<svg xmlns="http://www.w3.org/2000/svg" enable-background="new 0 0 512 512" viewBox="0 0 512 512" id="2"><path fill="#3864fc" d="M421.024,511c-19.561,0-287.35,0-301.385,0c0-32.991,0-76.587,0-110.528
						c2.859-2.74,177.266-169.879,187.421-179.611c29.61-28.377,29.447-65.15,19.421-90.102
						c-10.025-24.952-35.351-51.614-76.363-51.614c-31.373,0-59.579,17.432-73.61,45.493l-15.638,31.275l-69.895-34.948
						l15.638-31.275C133.779,35.36,189.319,1,250.118,1c34.044,0,66.227,10.126,93.068,29.282
						c50.766,36.231,76.459,100.185,64.877,161.462c-6.124,32.403-22.354,61.981-46.933,85.536L198.79,432.855h222.234V511z" class="color404a7f svgShape"></path></svg>