<svg xmlns="http://www.w3.org/2000/svg" enable-background="new 0 0 1500 1500" viewBox="0 0 1500 1500" id="Carcollidedwhichcausedaccident"><path fill="#bfc0c3" d="M184.7,963.5c0,4.1,257.4,7.5,575,7.5s575-3.3,575-7.5c0-4.1-257.4-7.5-575-7.5S184.7,959.3,184.7,963.5z" class="colorbfc0c3 svgShape"></path><polygon fill="#2c3552" points="908.6 925.3 758.2 947.9 676.3 943 671.9 946.9 582.2 941.6 578.6 937.6 377.4 925.6 372.4 930 226.6 921.4 213.7 905.2 202.1 832.4 260.8 788.8 885.8 845.3 913.2 898.2" class="color2c3352 svgShape"></polygon><path fill="#3864fc" d="M165.3,878.8c0,6.3,0.7,11.9,2.7,14c1,1,3,2.3,5.7,3.8c8.2,4.5,22.3,10.4,32.3,13.2c3.2,0.9,6,1.5,8,1.6    l10.2,0.6c-0.8-4-1.2-8-1.4-12.1c-0.1-2.5-0.1-5,0.1-7.5c2.6-42.9,39.4-75.6,82.2-73c19.9,1.2,37.6,9.7,50.6,22.8    c3,3,5.7,6.2,8.1,9.6c10,14,15.4,31.3,14.3,49.8c-0.2,3-0.5,6-1,8.9c-0.6,3.6-1.5,7.1-2.6,10.4L746.3,943c1.2,0.1,2.6,0.1,4,0.2    c-0.9-4.4-1.3-8.8-1.4-13.4c0-2,0-4.1,0.1-6.2c0.4-6.7,1.6-13.1,3.6-19.2c2.2-7.1,5.5-13.7,9.5-19.7c7.8-11.6,18.7-21,31.5-27    c0.6-0.3,1.3-0.6,1.9-0.9c0.6-0.3,1.3-0.6,1.9-0.8c0.4-0.1,0.7-0.3,1-0.4c0.6-0.3,1.3-0.5,2-0.7c0.7-0.3,1.5-0.5,2.2-0.8    c0.8-0.2,1.5-0.5,2.3-0.7c0.4-0.1,0.9-0.2,1.3-0.4c1.1-0.3,2.1-0.6,3.2-0.8c0.9-0.2,1.9-0.4,2.8-0.6c0.7-0.1,1.3-0.2,2-0.4    c0.8-0.1,1.6-0.2,2.4-0.4c0.8-0.1,1.6-0.2,2.4-0.3c0.8-0.1,1.6-0.1,2.4-0.2c0.8-0.1,1.6-0.1,2.4-0.1c0.8,0,1.7,0,2.5,0    c1.6,0,3.1,0,4.7,0.1c1,0.1,2,0.1,2.9,0.2c0.3,0,0.6,0,0.9,0.1c0.9,0.1,1.7,0.2,2.6,0.3c0.4,0,0.8,0.1,1.2,0.2    c0.8,0.1,1.6,0.3,2.4,0.4c0.4,0.1,0.9,0.2,1.3,0.3c0.8,0.2,1.6,0.3,2.4,0.5c2.1,0.5,4.1,1.1,6.2,1.8c0.2,0.1,0.5,0.2,0.7,0.2    c0.9,0.3,1.9,0.6,2.8,1c1,0.4,2.1,0.8,3.1,1.3c1,0.4,1.9,0.9,2.9,1.3c0.1,0.1,0.3,0.1,0.4,0.2c1.9,0.9,3.7,1.9,5.5,3    c0,0,0.1,0,0.1,0.1c0.9,0.6,1.8,1.1,2.8,1.7c0,0,0.1,0.1,0.2,0.1c0.9,0.6,1.7,1.1,2.5,1.8c0.9,0.6,1.8,1.3,2.6,2    c0.7,0.5,1.4,1.1,2,1.7c0.2,0.2,0.4,0.4,0.6,0.6c0.7,0.6,1.4,1.2,2.1,1.8c0.1,0.1,0.2,0.2,0.4,0.4c0.8,0.7,1.5,1.4,2.2,2.2    c0.6,0.6,1.2,1.3,1.8,1.9c0.2,0.2,0.4,0.5,0.6,0.7c0.7,0.7,1.3,1.5,2,2.3c0.7,0.8,1.3,1.6,2,2.5c0.2,0.3,0.4,0.5,0.6,0.8    c0.5,0.6,0.9,1.3,1.4,1.9c0.6,0.8,1.1,1.7,1.7,2.5c0,0.1,0.1,0.1,0.1,0.2c1.2,1.8,2.3,3.7,3.3,5.6c0.6,1.1,1.1,2.1,1.6,3.2    c0.3,0.7,0.6,1.4,0.9,2.1c0.1,0.3,0.3,0.7,0.4,1c0.4,0.9,0.7,1.8,1.1,2.8c0.4,1,0.7,2,1.1,3c0,0.1,0.1,0.2,0.1,0.4    c0.2,0.8,0.5,1.6,0.7,2.4c0.1,0.3,0.2,0.7,0.3,1c0.2,0.9,0.5,1.9,0.7,2.8c0.2,1,0.5,2,0.6,3.1c0,0.2,0.1,0.3,0.1,0.5    c0.1,0.8,0.3,1.6,0.4,2.4c0,0.2,0.1,0.5,0.1,0.7c4.7-4.7,10-10,14.8-15.1c8.2-8.5,15.1-16.1,16.1-18.7c2.6-6.7-6.4-42-12.5-46.7    c-6.1-4.7-15,0-15,0s-6-12.4-13.9-25.7c-1.1-1.8-2.2-3.6-3.3-5.3c-1.4-2.2-2.8-4.4-4.3-6.5v0c-14.5-3-30.5-5.9-46.1-8.7    c-6.5,3.4-13,7.3-18.9,10.7c-9.5,5.5-17.4,9.9-20.8,9.2c-3.7-0.8-10.1-5.4-16.7-10.9c-11.5-9.5-23.6-21.6-23.6-21.6    s-84.4-69.9-133.8-87.6c-2.9-1.1-5.7-1.9-8.4-2.6c-125-31-326.6-29.8-341.6-23.1c-14.1,6.4-58.9,57.5-69.8,77.3    c-0.4,0.6-0.7,1.3-1,1.8c-0.2,0.4-0.4,0.8-0.6,1.2c-0.9,2.2-2,5.3-3.1,9.1c-2.7,9.2-5.7,22.3-8.6,35.4    c-5.3,24.4-9.9,49.1-9.9,49.1s-10.4,7.8-14.2,13.1c-0.7,1-1.1,1.8-1.3,2.6C166.9,857.5,165.3,869,165.3,878.8z" class="color56a3ba svgShape"></path><path fill="#3864fc" d="M750.3,824.1l28.1,21.8l15.2,11.9c0.6-0.3,1.3-0.6,1.9-0.9c0.6-0.3,1.3-0.6,1.9-0.8c0.4-0.1,0.7-0.3,1-0.4    c0.6-0.3,1.3-0.5,2-0.7c0.7-0.3,1.5-0.5,2.2-0.8c0.8-0.2,1.5-0.5,2.3-0.7c0.4-0.1,0.9-0.2,1.3-0.4c1.1-0.3,2.1-0.6,3.2-0.8    c0.9-0.2,1.9-0.4,2.8-0.6c0.7-0.1,1.3-0.2,2-0.4c0.8-0.1,1.6-0.2,2.4-0.4c0.8-0.1,1.6-0.2,2.4-0.3c0.8-0.1,1.6-0.1,2.4-0.2    c0.8-0.1,1.6-0.1,2.4-0.1c0.8,0,1.7,0,2.5,0c1.6,0,3.1,0,4.7,0.1c1,0.1,2,0.1,2.9,0.2c0.3,0,0.6,0,0.9,0.1    c0.9,0.1,1.7,0.2,2.6,0.3c0.4,0,0.8,0.1,1.2,0.2c0.8,0.1,1.6,0.3,2.4,0.4c0.4,0.1,0.9,0.2,1.3,0.3c0.8,0.2,1.6,0.3,2.4,0.5    c2.1,0.5,4.1,1.1,6.2,1.8c0.2,0.1,0.5,0.2,0.7,0.2c0.9,0.3,1.9,0.6,2.8,1c1,0.4,2.1,0.8,3.1,1.3c1,0.4,1.9,0.9,2.9,1.3    c0.1,0.1,0.3,0.1,0.4,0.2c1.9,0.9,3.7,1.9,5.5,3c0,0,0.1,0,0.1,0.1c0.9,0.6,1.8,1.1,2.8,1.7c0,0,0.1,0.1,0.2,0.1    c0.9,0.6,1.7,1.2,2.5,1.8c0.9,0.6,1.8,1.3,2.6,2c0.7,0.5,1.4,1.1,2,1.7c0.2,0.2,0.4,0.4,0.6,0.6c0.7,0.6,1.4,1.2,2.1,1.8    c0.1,0.1,0.2,0.2,0.4,0.4c0.8,0.7,1.5,1.4,2.2,2.2c0.6,0.6,1.2,1.3,1.8,1.9c0.2,0.2,0.4,0.5,0.6,0.7c0.7,0.7,1.3,1.5,2,2.3    c0.7,0.8,1.3,1.6,2,2.5c0.2,0.3,0.4,0.5,0.6,0.8c0.5,0.6,0.9,1.3,1.4,1.9c0.6,0.8,1.1,1.7,1.7,2.5c0,0.1,0.1,0.1,0.1,0.2    c1.2,1.8,2.3,3.7,3.3,5.6c0.6,1.1,1.1,2.1,1.6,3.2c0.3,0.7,0.6,1.4,0.9,2.1c0.1,0.3,0.3,0.7,0.4,1c0.4,0.9,0.7,1.8,1.1,2.8    c0.4,1,0.7,2,1.1,3c0,0.1,0.1,0.2,0.1,0.4c0.2,0.8,0.5,1.6,0.7,2.4c0.1,0.3,0.2,0.7,0.3,1c0.2,0.9,0.5,1.9,0.7,2.8    c0.2,1,0.5,2,0.6,3.1c0,0.2,0.1,0.3,0.1,0.5c0.1,0.8,0.3,1.6,0.4,2.4c0,0.2,0.1,0.5,0.1,0.7c4.7-4.7,10-10,14.8-15.1    c8.2-8.5,15.1-16.1,16.1-18.7c2.5-6.5-5.7-39.4-11.8-46c-0.2-0.3-0.5-0.5-0.7-0.7c-5.9-4.5-14.2-0.4-14.9,0c0,0,0,0,0,0    s-6-12.4-13.9-25.7c-1.1-1.8-2.2-3.6-3.3-5.3c-1.4-2.2-2.8-4.4-4.3-6.5v0c-2.7-4-5.5-7.7-8.3-10.8c-1.3-1.5-2.7-2.9-4-4.1    c-6.7-6-20.1-1-33.8,6.2c-6.5,3.4-13,7.3-18.9,10.7c-9.5,5.5-17.4,9.9-20.8,9.2c-3.7-0.8-10.1-5.4-16.7-10.9    c-11.5-9.5-23.6-21.6-23.6-21.6l-4.1,20.4L750.3,824.1z" class="color56a3ba svgShape"></path><path fill="#647ed9" d="M168.8,852c26.2,5.9,36-4.7,36-4.7s-12.5-0.2-21.8-8.4C183,838.9,172.6,846.7,168.8,852z" class="color64bed9 svgShape"></path><path fill="#647ed9" d="M355.8,842.3c3,3,5.7,6.2,8.1,9.6l388.7,52.6c2.2-7.1,5.5-13.7,9.5-19.7L355.8,842.3z" opacity=".5" class="color64bed9 svgShape"></path><path fill="#647ed9" d="M205,744.1c211.8,39.9,407.7,48.3,550.4,54.6c9.5,0.4,18.7,0.8,27.7,1.2c-11.5-9.5-23.6-21.6-23.6-21.6    s-84.4-69.9-133.8-87.6c-2.9-1.1-5.7-1.9-8.4-2.6c-125-31-326.6-29.8-341.6-23.1c-14.1,6.4-58.9,57.5-69.8,77.3    C205.6,742.9,205.3,743.5,205,744.1z" class="color64bed9 svgShape"></path><path fill="#4b5474" d="M625.7 690.6c16.1 11.3 35.4 28.1 53 44.2 19.7 18.1 37.1 35.4 45.2 43.6 25.4.4 35.6-.2 35.6-.2s-30.2-25-65-48.9C671.1 713.3 645.6 697.7 625.7 690.6zM314.7 721.3c3.2 4.3 18.3 30.2 202.4 45.3 73.8 6 127.3 9.1 165.1 10.6-9.7-9.8-23.5-23.7-36.3-36.6-16.5-16.5-31.3-31.4-33.8-33.5-5.9-5.2-36.4-16.7-97.7-23.1-60.5-6.3-176-11.1-180.6-3.1-3.2 5.6-12.7 20.9-17.1 31.1C314.7 716.5 313.7 720 314.7 721.3z" class="color4b5774 svgShape"></path><path fill="#ffffff" d="M333.7,680.9c-3.2,5.6-12.7,20.9-17.1,31.1c94.2,17.9,241.6,38.2,329.2,28.6c-16.5-16.5-31.3-31.4-33.8-33.5    c-5.9-5.2-36.4-16.7-97.7-23.1C453.8,677.6,338.3,672.9,333.7,680.9z" opacity=".1" class="colorffffff svgShape"></path><polygon fill="#647ed9" points="518.9 678 536.1 773.3 495.4 769.5 492.5 678.5" class="color64bed9 svgShape"></polygon><polygon fill="#647ed9" points="400.7 673.1 365.4 754.1 340.3 745 364.7 671.6" class="color64bed9 svgShape"></polygon><path fill="#4e62a8" d="M385.1,668.5c4.8-2.8,45.6-1.6,82.3,1.2c10.9,0.9,23.3,2.1,36.2,3.6c0.7,0.1,1.4,0.2,2.2,0.3    c47.1,5.6,99.4,14.6,105.6,20.9c1.9,2,9.4,8.2,18.8,16.1c35.1,29.4,69.7,58.9,73.4,68.7c18.5,48.5,5.6,154.3,5.4,155.3l-2.1-0.3    c0.1-1.1,13-106.3-5.3-154.3c-3.8-10.1-47-46.3-72.8-67.9c-9.8-8.2-17-14.2-18.9-16.2c-5-5.1-54.1-14.3-103.6-20.2    c6.3,28.4,17.9,84.2,19.2,105.8c1.8,28.2-3.6,142.8-3.7,144l-2.1-0.1c0-1.2,5.4-115.7,3.7-143.8c-1.3-21.2-13.1-78.1-19.3-106.2    c-12.6-1.5-25.1-2.7-36.9-3.6c-40-3.1-77.2-3.8-81-1.6c-3.7,3.4-38.2,113.8-38.9,124.4c-0.2,2.7,5.7,5.7,12.5,9.3    c13,6.8,29.3,19.3,37.4,40.7c12.5,33.2,8.1,72.4,8,72.8l-2-0.4c0.1-0.4,4.4-39-7.9-71.7c-7.8-20.6-23.7-32.8-36.4-39.5    c-8.3-4.4-13.8-7.3-13.6-11.3C345.8,786.8,380.2,671.4,385.1,668.5z" class="color4e93a8 svgShape"></path><path fill="#44589e" d="M552.8,801l0,0.3c0,0.4,0,0.8,0.1,1.2c0.5,3.3,3.2,5.9,6.7,6.2l26.8,2c3.9,0.3,7.3-2.5,7.8-6.3     c0-0.1,0-0.2,0-0.2l0-0.5c0.4-4.2-2.7-7.8-6.8-8.1l-26.8-1.6C556.5,793.9,553,797,552.8,801z" class="color44839e svgShape"></path><path fill="#647ed9" d="M552.8,801l0,0.3c0,0.4,0,0.8,0.1,1.2c10.2,0.5,30.7,1.4,41.2,1.9c0-0.1,0-0.2,0-0.2l0-0.5     c0.4-4.2-2.7-7.8-6.8-8.1l-26.8-1.6C556.5,793.9,553,797,552.8,801z" class="color64bed9 svgShape"></path><path fill="#44589e" d="M372.6,790.3l0,0.3c0,0.4,0,0.8,0.1,1.2c0.5,3.3,3.2,5.9,6.7,6.2l26.8,2c3.9,0.3,7.3-2.5,7.8-6.3     c0-0.1,0-0.2,0-0.2l0-0.5c0.4-4.2-2.7-7.8-6.8-8.1l-26.8-1.6C376.3,783.2,372.8,786.3,372.6,790.3z" class="color44839e svgShape"></path><path fill="#647ed9" d="M372.6,790.3l0,0.3c0,0.4,0,0.8,0.1,1.2c10.2,0.5,30.7,1.4,41.2,1.9c0-0.1,0-0.2,0-0.2l0-0.5     c0.4-4.2-2.7-7.8-6.8-8.1l-26.8-1.6C376.3,783.2,372.8,786.3,372.6,790.3z" class="color64bed9 svgShape"></path><path fill="#4b5474" d="M206,742.3c10.2-1.4,22.7-4.1,26.9-8.5c3.5-3.7,13.3-19.4,22.7-34.8c10.4-17.1,20.2-34,20.2-34    c-6.6,3-19.9,15.8-33.3,30.5C227.2,712.3,211.8,731.7,206,742.3z" class="color4b5774 svgShape"></path><path fill="#4463cc" d="M192.9,789.8c10.7,1.6,28.3,3.9,31.7,1.7c5-3.2,18.2-26.6,15-30.3c-2.4-2.7-26.4-5.6-38.1-6.8    C198.8,763.5,195.7,776.6,192.9,789.8z" class="colorcc4468 svgShape"></path><path fill="#647ed9" d="M731.2,929c0,4.4,0.4,8.8,1,13.2l14.1,0.8c1.2,0.1,2.6,0.1,4,0.2c-0.9-4.4-1.3-8.8-1.4-13.4    c0-2,0-4.1,0.1-6.2c1.7-29.4,19.6-54.1,44.6-65.8c11.4-5.3,24.2-8,37.6-7.2c37.7,2.2,67.5,30.9,72.4,66.9c4.7-4.7,10-10,14.8-15.1    c-10.7-38.1-44.5-67-86.2-69.5c-19.6-1.2-38.2,3.7-53.9,12.9c-26.5,15.6-45,43.6-47,76.6C731.3,924.8,731.2,926.9,731.2,929z" class="color64bed9 svgShape"></path><path fill="#444c69" d="M234.4,893.1c-2.2,36.5,25.7,67.9,62.2,70.1c36.5,2.2,67.9-25.7,70.1-62.2c2.2-36.5-25.7-67.9-62.2-70.1     C268,828.7,236.6,856.6,234.4,893.1z" class="color444b69 svgShape"></path><path fill="#a9acb6" d="M265.4,894.9c-1.2,19.4,13.7,36.1,33.1,37.3c19.4,1.2,36.1-13.7,37.3-33.1c1.2-19.4-13.7-36.1-33.1-37.3     C283.2,860.7,266.5,875.5,265.4,894.9z" class="colora9abb6 svgShape"></path><circle cx="300.6" cy="897" r="30.9" fill="#7b7d85" transform="rotate(-11.564 300.484 897.025)" class="color7b7d85 svgShape"></circle><path fill="#a9acb6" d="M291.5,896.5c-0.3,5,3.5,9.3,8.5,9.6c5,0.3,9.3-3.5,9.6-8.5c0.3-5-3.5-9.3-8.5-9.6     C296.1,887.7,291.8,891.5,291.5,896.5z" class="colora9abb6 svgShape"></path><path fill="#3b3c40" d="M301.2 886.3c-.8-.1-1.5-.7-1.5-1.6l-.4-16.9 6.1.4-2.4 16.7C302.8 885.7 302 886.4 301.2 886.3zM310.2 892.2c-.4-.8-.1-1.7.6-2.1l14.4-8.8 2.8 5.5-15.7 6.3C311.5 893.3 310.6 893 310.2 892.2zM309.5 903c.5-.7 1.4-.9 2.2-.5l14.9 8.1-3.4 5.1-13.3-10.5C309.2 904.6 309.1 903.7 309.5 903zM299.9 907.8c.8.1 1.5.7 1.5 1.6l.4 16.9-6.1-.4 2.4-16.7C298.3 908.3 299.1 907.7 299.9 907.8zM290.9 901.8c.4.8.1 1.7-.6 2.1l-14.4 8.8-2.8-5.5 15.7-6.3C289.7 900.7 290.6 901.1 290.9 901.8zM291.6 891.1c-.5.7-1.4.9-2.2.5l-14.9-8.1 3.4-5.1 13.3 10.5C291.9 889.5 292.1 890.4 291.6 891.1zM294.5 868.4l3.8 16.5c.2.8-.3 1.7-1.1 1.9s-1.7-.1-2-.9l-6.6-15.6L294.5 868.4zM307.8 889.1c-.6-.6-.7-1.5-.2-2.2l10.2-13.5 4.6 4.1L310 889C309.4 889.6 308.4 889.6 307.8 889.1zM311.1 899.3c.2-.8 1-1.4 1.8-1.3l16.8 2.1-1.3 6-16.2-4.9C311.4 900.9 310.9 900.1 311.1 899.3zM303.9 907.3c.8-.3 1.7.1 2 .9l6.6 15.6-5.8 1.9-3.8-16.5C302.6 908.4 303.1 907.5 303.9 907.3zM293.4 905c.6.6.7 1.5.2 2.2l-10.2 13.5-4.6-4.1 12.4-11.6C291.8 904.5 292.7 904.4 293.4 905zM290 894.8c-.2.8-1 1.4-1.8 1.3l-16.8-2.1 1.3-6 16.2 4.9C289.7 893.1 290.2 894 290 894.8z" class="color3b3c40 svgShape"></path><path fill="#647ed9" d="M205.3,891.4c-0.1,1.2-0.1,2.4-0.1,3.6c-0.1,5,0.2,9.9,0.8,14.8c3.2,0.9,6,1.5,8,1.6l10.2,0.6    c-0.8-4-1.3-8-1.4-12.1c-0.1-2.5-0.1-5,0.1-7.5c2.5-42.9,39.4-75.6,82.2-73c42.9,2.5,75.6,39.4,73,82.2c-0.2,3-0.5,6-1,8.9    c-0.6,3.6-1.5,7-2.6,10.4l18.1,1.1c1.7-6.2,2.7-12.7,3.1-19.3c3.1-52.6-37-97.8-89.6-100.9C253.6,798.7,208.5,838.8,205.3,891.4z" class="color64bed9 svgShape"></path><path fill="#44589e" d="M374.6 921L746.3 943c1.2.1 2.6.2 4 .2-.8-4.4-1.3-8.8-1.4-13.4-5.8-.3-11.6-.5-17.7-.8-106.4-5-247-12.3-354.1-18.5C376.5 914.1 375.7 917.6 374.6 921zM165.3 878.8c0 6.3.7 11.9 2.7 14 4.2 4.2 24.8 13.3 38 17 3.2.9 6 1.5 8 1.6l10.2.6c-.8-4-1.3-8-1.4-12.1-1.9-.3-3.2-.5-4-.7-4.3-1.1-9-2.6-13.7-4.2C189.8 889.7 173.5 882.5 165.3 878.8z" class="color44839e svgShape"></path><path fill="#44589e" d="M165.3,878.8c0,6.3,0.7,11.9,2.7,14c1,1,3,2.3,5.7,3.8c0.4-12,1.7-28.2,5.8-33.6c6.8-9,18.5-13.5,19.9-20.6    c1.5-7.2,16.7-88.4,23.6-100.4c7-12.1,52.7-76.9,52.7-76.9c-14.2,6.4-58.9,57.5-69.8,77.3c-0.6,1.1-1.1,2.1-1.5,3    c-0.9,2.1-2,5.3-3.1,9.1c-2.7,9.2-5.7,22.3-8.6,35.4c-5.3,24.4-9.9,49.1-9.9,49.1s-14.5,10.9-15.5,15.7    C166.9,857.5,165.3,869,165.3,878.8z" opacity=".3" class="color44839e svgShape"></path><path fill="#ffffff" d="M625.7 690.6c16.1 11.3 35.4 28.1 53 44.2 5.9-1.6 11.1-3.4 15.8-5.5C671.1 713.3 645.6 697.7 625.7 690.6zM242.4 695.5c3.7 1.1 8.1 2.2 13.1 3.5 10.4-17.1 20.2-34 20.2-34C269.1 668 255.8 680.7 242.4 695.5z" opacity=".1" class="colorffffff svgShape"></path><g fill="#000000" class="color000000 svgShape"><path fill="#444c69" d="M760.4,928.3c0,13.8,4.2,26.5,11.4,37.1h109.8c7.2-10.6,11.4-23.4,11.4-37.1c0-36.6-29.7-66.3-66.3-66.3     C790,862,760.4,891.7,760.4,928.3z" class="color444b69 svgShape"></path><path fill="#444c69" d="M765.1,965.4H890c3,0,5.4-2.4,5.4-5.4l0,0c0-3-2.4-5.4-5.4-5.4H765.1c-3,0-5.4,2.4-5.4,5.4l0,0     C759.7,963,762.1,965.4,765.1,965.4z" class="color444b69 svgShape"></path><path fill="#a9acb6" d="M791.4,928.3c0,19.5,15.8,35.2,35.2,35.2s35.2-15.8,35.2-35.2c0-19.5-15.8-35.2-35.2-35.2     S791.4,908.8,791.4,928.3z" class="colora9abb6 svgShape"></path><path fill="#7b7d85" d="M795.7,928.3c0,17.1,13.8,30.9,30.9,30.9c17.1,0,30.9-13.8,30.9-30.9c0-17.1-13.8-30.9-30.9-30.9     C809.6,897.3,795.7,911.2,795.7,928.3z" class="color7b7d85 svgShape"></path><path fill="#a9acb6" d="M817.5,928.3c0,5,4.1,9.1,9.1,9.1c5,0,9.1-4.1,9.1-9.1c0-5-4.1-9.1-9.1-9.1     C821.6,919.2,817.5,923.2,817.5,928.3z" class="colora9abb6 svgShape"></path><path fill="#3b3c40" d="M826.6 917.5c-.9 0-1.6-.7-1.6-1.5l-1.4-16.9h6.1l-1.4 16.9C828.2 916.9 827.5 917.5 826.6 917.5zM836 922.9c-.4-.7-.2-1.7.5-2.2l13.9-9.7 3.1 5.3-15.3 7.2C837.3 923.9 836.4 923.6 836 922.9zM836 933.6c.4-.7 1.3-1 2.1-.7l15.3 7.2-3.1 5.3-13.9-9.7C835.7 935.3 835.5 934.4 836 933.6zM826.6 939c.9 0 1.6.7 1.6 1.5l1.4 16.9h-6.1l1.4-16.9C825.1 939.7 825.8 939 826.6 939zM817.3 933.6c.4.7.2 1.7-.5 2.2l-13.9 9.7-3.1-5.3 15.3-7.2C816 932.6 816.9 932.9 817.3 933.6zM817.3 922.9c-.4.7-1.3 1-2.1.7l-15.3-7.2 3.1-5.3 13.9 9.7C817.6 921.2 817.8 922.2 817.3 922.9zM818.9 900l4.8 16.2c.2.8-.2 1.7-1 2-.8.3-1.7 0-2.1-.8l-7.5-15.2L818.9 900zM833.4 919.9c-.7-.5-.8-1.5-.3-2.2l9.4-14.1 4.8 3.8-11.7 12.3C835 920.3 834 920.4 833.4 919.9zM837.3 929.9c.1-.8.9-1.4 1.7-1.4l16.9 1.1-.9 6.1-16.4-4C837.7 931.5 837.1 930.7 837.3 929.9zM830.6 938.3c.8-.3 1.7 0 2.1.8l7.5 15.2-5.7 2.2-4.8-16.2C829.3 939.5 829.8 938.6 830.6 938.3zM819.9 936.7c.7.5.8 1.5.3 2.2l-9.4 14.1-4.8-3.8 11.7-12.3C818.3 936.2 819.3 936.1 819.9 936.7zM816 926.7c-.1.8-.9 1.4-1.7 1.4l-16.9-1.1.9-6.1 16.4 4C815.6 925 816.1 925.8 816 926.7z" class="color3b3c40 svgShape"></path></g><path fill="#44589e" d="M762.1,780.8c0,0,14.8-13.2,18.4-15.2c3.6-2.1,19.2,10.3,26.2,7.7c7-2.6,31.3-25.1,37.8-30.2    c6.5-5,23.1,18.8,23.1,18.8l7.3-14.6c0,0-23.3-15-30.6-13c-7.3,2.1-32.7,30.1-39.9,29.6c-7.3-0.5-20.2-7.3-25.9-8.8    c-5.7-1.6-18.9,23.1-18.9,23.1L762.1,780.8z" class="color44839e svgShape"></path><path fill="#344378" d="M848.5,802.9c1.6,4.1,8.3,19.7,15,20.2c4.9,0.4,21-7.3,29.7-11.7c-4.9-8.1-10.4-16.6-15.8-22.6    C866.9,792,847.3,799.6,848.5,802.9z" class="color346378 svgShape"></path><path fill="#647ed9" d="M893.1,864.6c0.8-0.4,22.2-12,29.6-26.8c-0.2-0.3-0.5-0.5-0.7-0.7c-5.9-4.5-14.2-0.4-14.9,0c0,0,0,0,0,0    C902.6,856.7,893.7,864.1,893.1,864.6z" class="color64bed9 svgShape"></path><g fill="#000000" class="color000000 svgShape"><path fill="#444c69" d="M989,875.5l6.9,80.1c0,4.6-3.8,8.4-8.5,8.4H964c-4.7,0-8.4-3.8-8.4-8.4l-6.6-65.9     c-0.5-5.4,3.4-10.2,8.7-10.8L989,875.5z" class="color444b69 svgShape"></path><path fill="#444c69" d="M954 964h43.5c2.2 0 4-1.8 4-4l0 0c0-2.2-1.8-4-4-4H954c-2.2 0-4 1.8-4 4l0 0C950 962.2 951.8 964 954 964zM1285.7 909.6v45.9c0 4.6-3.8 8.4-8.4 8.4h-23.4c-4.7 0-8.4-3.8-8.4-8.4v-42.1L1285.7 909.6z" class="color444b69 svgShape"></path><polygon fill="#444c69" points="1285.7 909.6 1285.7 944 1245.3 944.2 1245.3 913.5" opacity=".4" class="color444b69 svgShape"></polygon><g fill="#000000" class="color000000 svgShape"><path fill="#557bff" d="M966.4 806.2l2 6.1c0 0-22.2 21.6-27.6 20.9-3.2-.4-9.3-3.2-13.7-6-3-1.9-5.3-3.8-5.3-5-.1-2.7 18.8-19.6 21.1-19.3 1.1.1 5 1.5 8.9 2.9 4.2 1.5 8.4 3.1 8.4 3.1L966.4 806.2zM1288.9 770.9c-1.6 4.7-4 9.9-6 12.1-3.7 4-34.5 2.2-34.5 2.2l-2.5-5.9 6.5-2c0 0 2.4-4.4 4.8-8.6 1.9-3.3 3.7-6.4 4.4-7.2 1.6-1.7 26.9-1.3 28.6.8C1290.9 763.2 1290.2 766.9 1288.9 770.9z" class="colorffb655 svgShape"></path><path fill="#557bff" d="M948.2,937.7c0.4,0.7,0.8,1.4,1.1,1.9c0.6,0.9,1.4,2,2.4,3.1c4.7,5.4,13.5,12.1,25.8,11.5l279.8-13.3     c12.3-0.6,20.4-8.1,24.6-13.9c0.9-1.2,1.6-2.3,2.1-3.3c3-5.6,6.8-19.6,8.1-26.8c1.3-7.2-5.5-69.6-6.7-71.7     c-1.2-2.1-17.5-8.5-17.5-8.5l0,0c-0.5-1.1-9.4-20.2-21.4-41.8c-11.3-20.3-25.5-42.8-38.2-54.8c0,0,0,0,0,0     c-15.6-14.6-101.9-10-102.2-9.9c-0.2,0-84.6,3.5-100.3,19.1c-0.2,0.2-0.4,0.4-0.6,0.6c-11.5,13.1-23.4,36.9-32.8,58.2     c-9.9,22.7-16.9,42.5-17.3,43.7l0,0c0,0,5.7,26,8.9,45.5c0.6,3.4,1.1,6.6,1.4,9.4c0.2,1.3,0.4,2.6,0.5,3.8     C967.5,903.8,954.2,927.7,948.2,937.7z" class="colorffb655 svgShape"></path><path fill="#6083fc" d="M1208.3,719.9c-46.1,14.1-157.8,23.6-202.4,9.1c15.6-15.6,100-19.1,100.3-19.1     C1106.4,710,1192.7,705.3,1208.3,719.9z" class="colorfcce60 svgShape"></path><polygon fill="#484f66" points="1014.9 853.3 1019.8 886.1 1112 891.2 1211.6 877.4 1209.8 848.2" class="color485066 svgShape"></polygon><path fill="#303545" d="M965.5 931.9L965.5 931.9c.6 2.1 1.3 4.1 2 5.8 1.2 2.9 2.6 5.2 4 6.3 2 1.6 24 1.5 50.3.8l-1-6-2.1-12.5c-4.9 2.2-15 3.9-16.9 3.7-3.7-.5-10.1-12.2-13.1-17.1-2.2-.1-4.3-.1-6.3-.2C976.2 916.6 965.8 925.3 965.5 931.9zM1265.3 924.8c-.8 2.4-1.9 4.3-3 5.4-1.8 1.8-23.7 3.8-50 5.6l2.2-31.7c28.3-2.9 48.8-5.8 52.8-7.6C1269.4 903.9 1268.2 917 1265.3 924.8zM1031.8 944.5c40-1.2 85.2-3.6 85.3-3.6.1 0 45.3-2 85.2-4.5-.1-2.2-.2-4.5-.4-6.9-.4-8.6-.9-18.2-1.3-24.1-23.4 2.2-50.7 4.2-78 5.6l0 0-37.1 6.1c0 0-7.6-2.3-13.5-4.2-2.7-.9-5.1-1.7-6-2.2-1-.5-5.2.7-10.5 2.5l0 0c-10 3.4-23.5 9-24.7 9.5.2 5 .4 10.7.7 15.9C1031.7 940.7 1031.8 942.7 1031.8 944.5z" class="color303645 svgShape"></path><g opacity=".3" fill="#000000" class="color000000 svgShape"><path fill="#5b5f6e" d="M967.5 937.7c1.2 2.9 2.6 5.2 4 6.3 2 1.6 24 1.5 50.3.8l-1-6C997.9 939.3 979 939.1 967.5 937.7zM1031.6 938.6c.1 2.1.2 4 .3 5.9 40-1.2 85.2-3.6 85.3-3.6.1 0 45.3-2 85.2-4.5-.1-2.2-.2-4.5-.3-6.9C1152.2 933 1083.7 937.3 1031.6 938.6zM1212.8 928.7l-.5 7.1c26.3-1.8 48.2-3.8 50-5.6 1.1-1.1 2.1-3 3-5.4C1258.2 925.4 1238.8 926.9 1212.8 928.7z" class="color5b6b6e svgShape"></path></g><path fill="#5b5f6e" d="M993.9,927.6c0.3,6.7-3.4,12.3-8.4,12.5c-4.9,0.2-9.2-5-9.5-11.6c-0.3-6.7,3.4-12.3,8.4-12.5     C989.3,915.7,993.6,920.9,993.9,927.6z" class="color5b6b6e svgShape"></path><path fill="#83899e" d="M992.2,927.7c0.3,5.5-2.8,10-6.9,10.2c-4,0.2-7.5-4.1-7.8-9.5c-0.3-5.5,2.8-10,6.9-10.2     C988.5,918,992,922.2,992.2,927.7z" class="color839a9e svgShape"></path><path fill="#4361c9" d="M1282,927c0.9-1.2,1.6-2.3,2.1-3.3c3-5.7,6.8-19.6,8.1-26.8c1.3-7.2-5.5-69.6-6.7-71.7     c-1.2-2.1-17.5-8.5-17.5-8.5C1277.6,842,1284.4,903.8,1282,927z" opacity=".3" class="colorc99043 svgShape"></path><path fill="#6083fc" d="M964.2,877c0.6,3.4,1.1,6.6,1.4,9.4c13.6,11.6,34.4,20.6,40.7,22.5c8.4,2.5,56-7.5,58.6-7.7     c2.6-0.2,43.4,3.8,48.9,3.6l0,0c0,0,0.3,0,0.8,0c0.5,0,0.8,0,0.8,0l0,0c13.2-0.8,102.3-6.3,119.9-12.3     c18.9-6.4,30-15.7,36.9-33.7c-14.4,8.9-70.6,19.9-158.3,24c-16.3,0.8-37.7,6.6-46.4,6.6c-8.7,0.1-37.3-5.4-52.5-6.2     C992,882,974.9,879.8,964.2,877z" class="colorfcce60 svgShape"></path><path fill="#5b5f6e" d="M1238.6,915.9c0.3,6.7,6,11.8,12.6,11.5c6.7-0.3,11.8-6,11.5-12.6c-0.3-6.7-6-11.8-12.6-11.5     C1243.4,903.6,1238.3,909.3,1238.6,915.9z" class="color5b6b6e svgShape"></path><path fill="#83899e" d="M1240.8,915.8c0.3,5.5,4.9,9.7,10.3,9.4c5.5-0.3,9.7-4.9,9.4-10.3c-0.3-5.5-4.9-9.7-10.3-9.4     C1244.7,905.8,1240.5,910.4,1240.8,915.8z" class="color839a9e svgShape"></path><path fill="#6083fc" d="M955.2,831.5c5.4,8.8,12.1,17,28.3,22.9c21.1,7.7,58.3,11.5,129.9,8.1c2.4-0.1,4.7-0.2,7-0.4     c59-3.1,93.2-9.1,113.8-16.8c21.5-8,28.4-18,33.7-28.7l0,0c-0.5-1.1-9.4-20.2-21.4-41.8l-13,0.6L1109.9,789l-124.4-1.8l-13,0.6     C962.6,810.5,955.6,830.3,955.2,831.5L955.2,831.5z" class="colorfcce60 svgShape"></path><path fill="#4361c9" d="M992.5 859.1c-12.6-5.4-20.3-12.5-23.5-21.7-4.3-12.1-.7-27.7 11.5-50.4l1.5.8c-12 22.3-15.5 37.5-11.4 49.1 3.1 8.7 10.5 15.5 22.6 20.7L992.5 859.1zM1233.5 847.6c12-6.5 19-14.3 21.4-23.8 3.1-12.5-1.9-27.6-16.3-49.1l-1.4.9c14.1 21.1 19 35.8 16 47.8-2.2 9-9 16.4-20.6 22.7L1233.5 847.6z" opacity=".3" class="colorc99043 svgShape"></path><path fill="#4b5474" d="M1202.3,720.8c0,0-74,5.7-95.4,6.7c-21.4,1-95.6,2.4-95.6,2.4s-18.8,21.2-32.4,58.7     c3,5.9,130.9,0.4,130.9,0.4s127.8-6.6,130.3-12.8C1223.1,740.2,1202.3,720.8,1202.3,720.8z" class="color4b5774 svgShape"></path><path fill="#c9d2f2" d="M1206.3,873.5c2,1.8,42.2-5.9,57.3-11.4c2.6-1,4.5-1.9,5.3-2.6c5.2-5.2,3.3-23.8,2.1-25.9     c-0.2-0.4-2.2-0.2-5.4,0.5c-15.2,3.1-57.7,15.8-60.3,19.1C1202.2,857.2,1206.3,873.5,1206.3,873.5z" class="colorc9ecf2 svgShape"></path><path fill="#4871ff" d="M1263.6,862.1c2.6-1,4.5-1.9,5.3-2.6c5.2-5.2,3.3-23.8,2.1-25.9c-0.2-0.4-2.2-0.2-5.4,0.5L1263.6,862.1z" class="colorff7b48 svgShape"></path><path fill="#ffffff" d="M1013,733.2c-3.8,4.6-18.4,23.6-29.8,53.6c12,2.1,64.2,1.4,114.5-0.6l8.5-55.3     C1085.7,731.8,1023.5,733,1013,733.2z" opacity=".2" class="colorffffff svgShape"></path><path fill="#6083fc" d="M942.9 803c1.1.1 5 1.5 8.9 2.9l-24.7 21.4c-3-1.9-5.3-3.8-5.3-5C921.8 819.6 940.6 802.7 942.9 803zM1288.9 770.9l-31.8-2.2c1.9-3.3 3.7-6.4 4.4-7.2 1.6-1.7 26.9-1.3 28.6.8C1290.9 763.2 1290.2 766.9 1288.9 770.9z" class="colorfcce60 svgShape"></path><path fill="#4361c9" d="M1036.3,823.4c-1.6-11.4-0.1-31.9-0.1-31.9L997.8,845l6.1,5.2C1004,850.3,1035.7,826.9,1036.3,823.4z" opacity=".3" class="colorc99043 svgShape"></path><path fill="#6083fc" d="M997.8,845l-17.4-58c0,0-5.7,16.5-5.9,19.3c-0.2,2.8,6.9,36.7,8.3,37C984.2,843.6,997.8,845,997.8,845z" opacity=".6" class="colorfcce60 svgShape"></path><path fill="#303545" d="M981.6,852.7c0.5,0.4,1.2,1,2,1.7c21.1,7.7,58.3,11.5,129.9,8.1c2.4-0.1,4.7-0.2,7-0.4     c-33.3-5.4-81.6-38.2-84.2-38.7c-2.8-0.6-32.5,23.4-38.4,21.6c-6-1.8-15.3-15.9-16.6-22.1c-1.3-6.2-2.2-34.3-2.2-34.3     s-10.4,18.6-11.3,35.3C966.8,840.6,978,850.1,981.6,852.7z" class="color303645 svgShape"></path><path fill="#81848f" d="M971.1,880.6c3.1,0.2,7.4-4.5,13-3.7c0.6,0.1,1.6,0.3,2.7,0.5c1.6,0.4,3.7,0.9,6,1.4     c8.7,2.2,20.8,5.3,24.8,5.1c0.7,0,1.2-0.2,1.4-0.4c0.1-0.3,0.3-0.6,0.4-1.1c1.1-4.3,2.1-17.1-0.3-19.7     c-2.5-2.7-27.7-13.9-32.5-14c-4.8-0.1-17.6,7.8-19.5,12C965.2,864.9,968,880.4,971.1,880.6z" class="color8f8b81 svgShape"></path><path fill="#c9d2f2" d="M971.1,880.6c3.1,0.2,7.4-4.5,13-3.7c0.6,0.1,1.6,0.3,2.7,0.5l-4.1-3.1l-7.7,1.9l-2.3-4.2l4-0.7l1.6-3.2     l-5.4-0.9l1.7-3.9l-3.4-2.6l10.4-7.9l8.2-2.1l4.6,10.3c0,0,10.4-2.6,10.9-2.6c0.5,0,9.3,5.6,9.3,5.6l1.6,8l-3.2,5.7l-3.6-7.1     l-2.1,7l-14.5,1.2l-0.8,0.1c0,0,19.6,7.6,21.3,7.8c0.7,0.1,2.5-1.2,4.4-2.8c0.6-0.5,1.2-1,1.8-1.5c1.1-4.3,2.1-17.1-0.3-19.7     c-2.5-2.7-27.7-13.9-32.5-14c-4.8-0.1-17.6,7.8-19.5,12C965.2,864.9,968,880.4,971.1,880.6z" class="colorc9ecf2 svgShape"></path></g></g><g fill="#000000" class="color000000 svgShape"><path fill="#426cff" d="M948.1,731.8l-11.4,39.4l-5.2-31.1l-41,23.3l24.9-48.2l-76.3-43.6l76.8,14l-24.4-66.4l44.6,58.6l24.4-59.7    l-2.1,64.3l69.5-28.5c0,0-65.4,48.2-63.3,48.2s86.6,16.1,86.6,16.1l-96-1.6l62.2,36.3L948.1,731.8z" class="colorff6742 svgShape"></path><polygon fill="#6184ff" points="944.1 721.3 938.6 754.8 935.4 721.6 908.8 744.1 924.7 711.2 868.7 682.2 927.8 695 905.7 647.3 938.9 690.5 954.5 645.2 950.3 689.1 999.4 670.8 956.2 702.2 1000.5 712.6 950.3 715.7 984.6 737.2" class="colorffca61 svgShape"></polygon></g></svg>