<svg xmlns="http://www.w3.org/2000/svg" enable-background="new 0 0 1364 960" viewBox="0 0 1364 960" id="LawFirmServices"><path fill="#d1dbff" d="M1214.19,778.11c-0.23,7.51-1.14,15.01-2.65,22.39c-0.35,1.68-0.72,3.34-1.12,5H167.95
			c-0.66-1.66-1.29-3.32-1.91-5c-15.59-42.93-16.17-92.27,2.99-133.86c29.74-62.83,90.16-101.63,135.14-152.97
			c78.34-65.76,33.96-197.79,87.24-269.42c89.88-95.43,210.67,42.62,312.18-38.35c65.28-37.32,139.69-112.89,208.59-78
			c148.63,72.83,55.19,221,186.23,282.6c82.07,36.57,77.04,117.25,62.21,214.35c0.27,11.32,3.92,22.18,8.44,32.48
			C1187.07,695.82,1215.42,733.37,1214.19,778.11z" class="colorfff7d1 svgShape"></path><path fill="#4c65bd" d="M187.7 756.84c-2.93-2.43-3.95-6.71-3.02-10.4.93-3.69 3.56-6.79 6.72-8.91 3.16-2.12 6.83-3.36 10.51-4.32 6.1-1.58 12.59-2.42 18.73-1.22-5.31-7.57-11.21-14.73-17.63-21.41-.58-.61-1.18-1.2-1.77-1.8-4.42 4.9-8.84 9.79-13.27 14.69-2.95 3.27-6 6.61-9.96 8.54-3.96 1.93-9.09 2.13-12.48-.68-2.93-2.43-3.95-6.71-3.02-10.4.93-3.69 3.56-6.79 6.72-8.91 3.16-2.12 6.83-3.36 10.51-4.32 6.29-1.63 13-2.47 19.31-1.1-7.35-7.19-15.29-13.76-23.73-19.62-4.67 4.79-9.34 9.58-14.01 14.37-3.07 3.15-6.25 6.38-10.28 8.15-4.03 1.78-9.17 1.78-12.45-1.16-2.84-2.54-3.69-6.85-2.62-10.51s3.82-6.65 7.05-8.65c3.24-2 6.95-3.1 10.67-3.91 5.96-1.3 12.26-1.9 18.17-.64-6.2-4.1-12.65-7.83-19.31-11.13-1.97-.98-3.97-1.91-5.97-2.81-4.97 4.77-9.93 9.53-14.9 14.3-3.18 3.05-6.46 6.17-10.54 7.81-4.09 1.64-9.22 1.48-12.41-1.57-2.75-2.63-3.46-6.97-2.28-10.59 1.19-3.61 4.03-6.52 7.33-8.41 3.3-1.89 7.05-2.87 10.79-3.56 5.35-.99 10.96-1.4 16.27-.44-6.91-2.82-14-5.19-21.23-7.1-6.47 1.78-12.94 3.56-19.41 5.34-4.25 1.17-8.62 2.35-13 1.85-4.38-.5-8.82-3.08-10.17-7.28-1.17-3.62.27-7.77 3.04-10.39 2.77-2.61 6.65-3.81 10.46-3.91 3.81-.09 7.57.83 11.2 2 6.68 2.16 13.28 5.36 17.95 10.55.02 0 .05 0 .07.01 7.69 2.02 15.24 4.56 22.58 7.6-4.18-3.82-7.32-8.83-9.78-13.98-1.64-3.44-3.05-7.04-3.46-10.83-.41-3.79.27-7.79 2.5-10.88 2.23-3.09 6.15-5.06 9.9-4.38 4.34.79 7.48 4.85 8.56 9.12 1.07 4.27.48 8.76-.13 13.12-.91 6.64-1.83 13.28-2.75 19.92 8.87 3.98 17.42 8.69 25.54 14.05-3.42-4.88-5.35-10.81-6.51-16.71-.74-3.74-1.21-7.58-.66-11.34.55-3.77 2.2-7.48 5.12-9.91 2.92-2.44 7.22-3.37 10.68-1.78 4.01 1.84 6.05 6.55 6.02 10.95-.02 4.4-1.72 8.6-3.38 12.68-2.54 6.2-5.07 12.4-7.61 18.61.25.17.51.34.76.52 8.21 5.77 15.95 12.21 23.12 19.23-3.11-5.91-3.97-12.87-3.91-19.6.04-3.81.35-7.66 1.65-11.24 1.3-3.58 3.67-6.88 7.03-8.67 3.36-1.79 7.76-1.84 10.83.42 3.55 2.61 4.6 7.64 3.68 11.94-.92 4.31-3.42 8.07-5.88 11.73-3.86 5.74-7.72 11.48-11.58 17.21.1.1.2.2.29.3l.19-.04c-.04.04-.07.08-.11.12 6.87 6.94 13.18 14.42 18.86 22.37-.48-5.98.84-12.12 2.81-17.84 1.26-3.67 2.81-7.3 5.21-10.34 2.4-3.04 5.76-5.47 9.58-6.13 3.82-.66 8.09.71 10.33 3.87 2.59 3.66 1.99 8.86-.28 12.72-2.27 3.87-5.91 6.71-9.46 9.45-5.04 3.9-10.08 7.79-15.12 11.69-.13.14-.26.29-.39.43 6.02 8.92 11.23 18.37 15.51 28.24.45 1.04-1.09 1.95-1.55.89-4.21-9.71-9.31-19-15.19-27.77-4.2 4.64-8.39 9.29-12.59 13.93-2.95 3.27-6 6.61-9.96 8.54C196.23 759.45 191.1 759.66 187.7 756.84zM1128.12 792.51c2.93-2.43 3.95-6.71 3.02-10.4-.93-3.69-3.56-6.79-6.72-8.91-3.16-2.12-6.83-3.36-10.51-4.32-6.1-1.58-12.59-2.42-18.73-1.22 5.31-7.57 11.21-14.73 17.63-21.41.58-.61 1.18-1.2 1.77-1.8 4.42 4.9 8.84 9.79 13.27 14.69 2.95 3.27 6 6.61 9.96 8.54 3.96 1.93 9.09 2.13 12.48-.68 2.93-2.43 3.95-6.71 3.02-10.4-.93-3.69-3.56-6.79-6.72-8.91-3.16-2.12-6.83-3.36-10.51-4.32-6.29-1.63-13-2.47-19.31-1.1 7.35-7.19 15.29-13.76 23.73-19.62 4.67 4.79 9.34 9.58 14.01 14.37 3.07 3.15 6.25 6.38 10.28 8.15 4.03 1.78 9.17 1.78 12.45-1.16 2.84-2.54 3.69-6.85 2.62-10.51-1.07-3.65-3.82-6.65-7.05-8.65-3.24-2-6.95-3.1-10.67-3.91-5.96-1.3-12.26-1.9-18.17-.64 6.2-4.1 12.65-7.83 19.31-11.13 1.97-.98 3.97-1.91 5.97-2.81 4.97 4.77 9.93 9.53 14.9 14.3 3.18 3.05 6.46 6.17 10.54 7.81 4.09 1.64 9.22 1.48 12.41-1.57 2.75-2.63 3.46-6.97 2.28-10.59-1.19-3.61-4.03-6.52-7.33-8.41-3.3-1.89-7.05-2.87-10.79-3.56-5.35-.99-10.96-1.4-16.27-.44 6.91-2.82 14-5.19 21.23-7.1 6.47 1.78 12.94 3.56 19.41 5.34 4.25 1.17 8.62 2.35 13 1.85 4.38-.5 8.82-3.08 10.17-7.28 1.17-3.62-.27-7.77-3.04-10.39-2.77-2.61-6.65-3.81-10.46-3.91-3.81-.09-7.57.83-11.2 2-6.68 2.16-13.28 5.36-17.95 10.55-.02 0-.05 0-.07.01-7.69 2.02-15.24 4.56-22.58 7.6 4.18-3.82 7.32-8.83 9.78-13.98 1.64-3.44 3.05-7.04 3.46-10.83.41-3.79-.27-7.79-2.5-10.88-2.23-3.09-6.15-5.06-9.9-4.38-4.34.79-7.48 4.85-8.56 9.12-1.07 4.27-.48 8.76.13 13.12.91 6.64 1.83 13.28 2.75 19.92-8.87 3.98-17.42 8.69-25.54 14.05 3.42-4.88 5.35-10.81 6.51-16.71.74-3.74 1.21-7.58.66-11.34-.55-3.77-2.2-7.48-5.12-9.91-2.92-2.44-7.22-3.37-10.68-1.78-4.01 1.84-6.05 6.55-6.02 10.95.02 4.4 1.72 8.6 3.38 12.68 2.54 6.2 5.07 12.4 7.61 18.61-.25.17-.51.34-.76.52-8.21 5.77-15.95 12.21-23.12 19.23 3.11-5.91 3.97-12.87 3.91-19.6-.04-3.81-.35-7.66-1.65-11.24-1.3-3.58-3.67-6.88-7.03-8.67-3.36-1.79-7.76-1.84-10.83.42-3.55 2.61-4.6 7.64-3.68 11.94.92 4.31 3.42 8.07 5.88 11.73 3.86 5.74 7.72 11.48 11.58 17.21-.1.1-.2.2-.29.3l-.19-.04c.04.04.07.08.11.12-6.87 6.94-13.18 14.42-18.86 22.37.48-5.98-.84-12.12-2.81-17.84-1.26-3.67-2.81-7.3-5.21-10.34-2.4-3.04-5.76-5.47-9.58-6.13-3.82-.66-8.09.71-10.33 3.87-2.59 3.66-1.99 8.86.28 12.72 2.27 3.87 5.91 6.71 9.46 9.45 5.04 3.9 10.08 7.79 15.12 11.69.13.14.26.29.39.43-6.02 8.92-11.23 18.37-15.51 28.24-.45 1.04 1.09 1.95 1.55.89 4.21-9.71 9.31-19 15.19-27.77 4.2 4.64 8.39 9.29 12.59 13.93 2.95 3.27 6 6.61 9.96 8.54C1119.6 795.13 1124.73 795.33 1128.12 792.51z" class="colorb0bd4c svgShape"></path><path fill="#31458c" d="M397.99,358.55c10.97,23.15,44.85,30.66,57.37,53.81c6.67,13.6,0.5,26.39-2.5,38.85
					c-3.4,22.9-5.87,48.78,2.81,73.76c4.75,11.38,13.4,22.12,16.11,33.63c-10.57-0.88-23.16-3.68-35.44-8.29
					c-0.23-0.27-0.45-0.56-0.67-0.83c-8.54-10.95-14.35-24.36-12.9-38.47c1.32-12.85,7.81-25.65,4.65-38.71
					c-1.73-7.14-6.36-13.05-10.71-18.79c-4.49-5.93-8.46-11.9-10.29-19.19c-3.07-12.17-1.65-26.24-9.11-36.98
					c-4.56-6.55-11.86-10.07-18.37-14.28c-3.65-2.35-7.11-5.03-9.7-8.56c-2.21-3.01-3.79-6.4-5.01-9.92
					c-2.4-6.93-3.52-14.23-5.81-21.19c-2.32-7.07-6.14-13.43-11.01-19.04c-10.65-12.24-24.95-20.28-38.06-29.51
					c-11.86-8.35-23.88-18.43-29.77-32.06c-0.2-0.46-0.39-0.93-0.57-1.4c1.52-1.63,3.58-2.93,6.22-3.8
					c23.09-4.43,39.05,28.44,59.02,38.55c23.92,9.36,44.07,7.7,48.19,38.39C393.7,342.52,394.13,350.7,397.99,358.55z" class="color318c85 svgShape"></path><path fill="#253878" d="M309.33,294.83c13.11,9.23,27.41,17.27,38.06,29.51c4.87,5.61,8.69,11.97,11.01,19.04
					c2.29,6.97,3.41,14.26,5.81,21.19c1.22,3.51,2.8,6.91,5.01,9.92c2.59,3.52,6.05,6.2,9.7,8.56c6.52,4.22,13.81,7.74,18.37,14.28
					c7.47,10.74,6.04,24.81,9.11,36.98c1.84,7.29,5.8,13.26,10.29,19.19c4.35,5.74,8.98,11.65,10.71,18.79
					c3.16,13.05-3.33,25.86-4.65,38.71c-1.45,14.12,4.36,27.52,12.9,38.47c0.22,0.28,0.45,0.56,0.67,0.83
					c-0.63-0.23-1.24-0.47-1.86-0.72c-28.28-11.06-54.23-31.73-48.99-60.57c5.81-13.31,11.9-23.72-6.53-36.48
					c-28.05-24.41-65.36-40.08-56.46-77.68c2.8-16.98,14.68-41.04-2.44-58.54c-7.73-6-17.39-7.88-25.25-13.64
					c-14.66-9.23-24.57-30.17-16.57-40.44c0.22-0.31,0.48-0.6,0.76-0.89c0.18,0.47,0.37,0.94,0.57,1.4
					C285.46,276.4,297.47,286.48,309.33,294.83z" class="color257872 svgShape"></path><path fill="#8b99c9" d="M309.33,294.83c13.11,9.23,27.41,17.27,38.06,29.51c4.87,5.61,8.69,11.97,11.01,19.04
					c2.29,6.97,3.41,14.26,5.81,21.19c1.22,3.51,2.8,6.91,5.01,9.92c2.59,3.52,6.05,6.2,9.7,8.56c6.52,4.22,13.81,7.74,18.37,14.28
					c7.47,10.74,6.04,24.81,9.11,36.98c1.84,7.29,5.8,13.26,10.29,19.19c4.35,5.74,8.98,11.65,10.71,18.79
					c3.16,13.05-3.33,25.86-4.65,38.71c-1.45,14.12,4.36,27.52,12.9,38.47c0.22,0.28,0.45,0.56,0.67,0.83
					c-0.63-0.23-1.24-0.47-1.86-0.72c-2.01-2.62-3.88-5.4-5.58-8.36c-3.12-5.46-5.49-11.38-6.61-17.58
					c-1.19-6.59-0.74-13.15,0.6-19.69c1.37-6.67,3.44-13.22,4.14-20.01c0.82-7.76-0.88-14.82-5.05-21.43
					c-4.09-6.47-9.47-12.05-13.07-18.83c-3.03-5.72-4.27-12.05-5.14-18.4c-0.9-6.63-1.42-13.4-3.55-19.79
					c-2.58-7.76-7.9-12.94-14.71-17.23c-6.59-4.15-13.6-7.85-18-14.53c-3.89-5.92-5.57-12.94-7.23-19.73
					c-1.83-7.49-3.84-14.8-7.94-21.41c-4.38-7.03-10.34-12.93-16.73-18.11c-19.25-15.61-47.81-27.97-57.34-52.25
					c0.22-0.31,0.48-0.6,0.76-0.89c0.18,0.47,0.37,0.94,0.57,1.4C285.46,276.4,297.47,286.48,309.33,294.83z" class="color8bc9c4 svgShape"></path><path fill="#31458c" d="M1090.78,597.02c-10.97,23.15-44.85,30.66-57.37,53.81c-6.67,13.6-0.5,26.39,2.5,38.85
					c3.4,22.9,5.87,48.78-2.81,73.76c-4.75,11.38-13.4,22.12-16.11,33.63c10.57-0.88,23.16-3.68,35.44-8.29
					c0.23-0.27,0.45-0.56,0.67-0.83c8.54-10.95,14.35-24.36,12.9-38.47c-1.32-12.85-7.81-25.65-4.65-38.71
					c1.73-7.14,6.36-13.05,10.71-18.79c4.49-5.93,8.46-11.9,10.29-19.19c3.07-12.17,1.65-26.24,9.11-36.98
					c4.56-6.55,11.86-10.07,18.37-14.28c3.65-2.35,7.11-5.03,9.7-8.56c2.21-3.01,3.79-6.4,5.01-9.92c2.4-6.93,3.52-14.23,5.81-21.19
					c2.32-7.07,6.14-13.43,11.01-19.04c10.65-12.24,24.95-20.28,38.06-29.51c11.86-8.35,23.88-18.43,29.77-32.06
					c0.2-0.46,0.39-0.93,0.57-1.4c-1.52-1.63-3.58-2.93-6.22-3.8c-23.09-4.43-39.05,28.44-59.02,38.55
					c-23.92,9.36-44.07,7.7-48.19,38.39C1095.07,580.99,1094.63,589.17,1090.78,597.02z" class="color318c85 svgShape"></path><path fill="#253878" d="M1179.43,533.3c-13.11,9.23-27.41,17.27-38.06,29.51c-4.87,5.61-8.69,11.97-11.01,19.04
					c-2.29,6.97-3.41,14.26-5.81,21.19c-1.22,3.51-2.8,6.91-5.01,9.92c-2.59,3.52-6.05,6.2-9.7,8.56
					c-6.52,4.22-13.81,7.74-18.37,14.28c-7.47,10.74-6.04,24.81-9.11,36.98c-1.84,7.29-5.8,13.26-10.29,19.19
					c-4.35,5.74-8.98,11.65-10.71,18.79c-3.16,13.05,3.33,25.86,4.65,38.71c1.45,14.12-4.36,27.52-12.9,38.47
					c-0.22,0.28-0.45,0.56-0.67,0.83c0.63-0.23,1.24-0.47,1.86-0.72c28.28-11.06,54.23-31.73,48.99-60.57
					c-5.81-13.31-11.9-23.72,6.54-36.48c28.05-24.41,65.36-40.08,56.46-77.68c-2.8-16.98-14.68-41.04,2.44-58.54
					c7.73-6,17.39-7.88,25.25-13.64c14.66-9.23,24.57-30.17,16.57-40.44c-0.22-0.31-0.48-0.6-0.76-0.89
					c-0.18,0.47-0.37,0.94-0.57,1.4C1203.31,514.87,1191.29,524.95,1179.43,533.3z" class="color257872 svgShape"></path><path fill="#8b99c9" d="M1179.43,533.3c-13.11,9.23-27.41,17.27-38.06,29.51c-4.87,5.61-8.69,11.97-11.01,19.04
					c-2.29,6.97-3.41,14.26-5.81,21.19c-1.22,3.51-2.8,6.91-5.01,9.92c-2.59,3.52-6.05,6.2-9.7,8.56
					c-6.52,4.22-13.81,7.74-18.37,14.28c-7.47,10.74-6.04,24.81-9.11,36.98c-1.84,7.29-5.8,13.26-10.29,19.19
					c-4.35,5.74-8.98,11.65-10.71,18.79c-3.16,13.05,3.33,25.86,4.65,38.71c1.45,14.12-4.36,27.52-12.9,38.47
					c-0.22,0.28-0.45,0.56-0.67,0.83c0.63-0.23,1.24-0.47,1.86-0.72c2.01-2.62,3.88-5.4,5.58-8.36c3.12-5.46,5.49-11.38,6.61-17.58
					c1.19-6.59,0.74-13.15-0.6-19.69c-1.37-6.67-3.44-13.22-4.14-20.01c-0.82-7.76,0.88-14.82,5.05-21.43
					c4.09-6.47,9.47-12.05,13.07-18.83c3.03-5.72,4.27-12.05,5.14-18.4c0.9-6.63,1.42-13.4,3.55-19.79
					c2.58-7.76,7.9-12.94,14.71-17.23c6.59-4.15,13.6-7.85,18-14.53c3.89-5.92,5.57-12.94,7.23-19.73
					c1.83-7.49,3.84-14.8,7.94-21.41c4.38-7.03,10.34-12.93,16.73-18.11c19.25-15.61,47.81-27.97,57.34-52.25
					c-0.22-0.31-0.48-0.6-0.76-0.89c-0.18,0.47-0.37,0.94-0.57,1.4C1203.31,514.87,1191.29,524.95,1179.43,533.3z" class="color8bc9c4 svgShape"></path><polygon fill="#2142b5" points="759.01 718.27 734.04 747.81 442.98 717.16 419.51 320.5 444.48 290.97 760.52 292.08" class="colorb52121 svgShape"></polygon><polygon fill="#ccd7ff" points="748.5 730.71 734.04 747.81 432.47 727.81 428.36 321.94 445.36 301.66 750.01 302.74" class="colorfff4cc svgShape"></polygon><rect width="426.19" height="316.04" x="363.68" y="376.14" fill="#3a5bcf" transform="rotate(-89.797 576.77 534.153)" class="colorcf3a3a svgShape"></rect><path fill="#5273e3" d="M680.75,410.37v1.08l-0.81,196.49l-1.26-0.01h-0.08c-5.98,0-11.62,1.99-15.86,5.6
						c-4.27,3.62-6.64,8.46-6.66,13.61v1.08l-1.26-0.01l-158.32-0.47l0.01-1.08c0.02-5.15-2.31-10-6.54-13.65
						c-4.24-3.65-9.89-5.67-15.91-5.69h-1.26l0.01-1.08l0.81-196.49h1.34c5.99,0,11.62-1.98,15.87-5.59
						c4.27-3.63,6.64-8.46,6.65-13.61l0.01-1.08h1.26l158.31,0.48v1.08c-0.03,5.15,2.3,10,6.53,13.65
						c4.24,3.65,9.89,5.67,15.91,5.69H680.75z" class="colore35252 svgShape"></path><path fill="#ccd7ff" d="M646.9,619.21l-141.18-0.42l-0.28-0.75c-1.59-4.3-4.29-8.12-8.05-11.35c-3.76-3.24-8.2-5.58-13.21-6.97
							l-0.87-0.24l0.75-181.83l0.88-0.24c5.02-1.36,9.49-3.67,13.27-6.89c3.79-3.22,6.53-7.03,8.15-11.31l0.28-0.75l141.16,0.43
							l0.28,0.75c1.56,4.23,4.35,8.16,8.05,11.36c3.77,3.24,8.22,5.58,13.22,6.97l0.87,0.24l-0.75,181.82l-0.88,0.24
							c-5.02,1.36-9.49,3.68-13.27,6.9c-3.73,3.17-6.55,7.07-8.15,11.3L646.9,619.21z M507.56,616.64l137.53,0.41
							c1.76-4.26,4.68-8.2,8.47-11.42c3.79-3.23,8.41-5.7,13.41-7.17l0.74-178.7c-4.98-1.51-9.58-4-13.36-7.25
							c-3.77-3.25-6.65-7.2-8.38-11.48l-137.52-0.42c-1.76,4.26-4.68,8.2-8.48,11.43c-3.79,3.22-8.41,5.69-13.41,7.16l-0.73,178.7
							c4.99,1.51,9.58,4.01,13.35,7.25C503.01,608.46,505.82,612.32,507.56,616.64z" class="colorfff4cc svgShape"></path><path fill="#1c399c" d="M722.99 735.61C722.99 735.61 722.99 735.61 722.99 735.61l-5.22-.02c-.72 0-1.3-.59-1.3-1.31 0-.72.59-1.3 1.31-1.3 0 0 0 0 0 0l3.92.01.01-3.92c0-.72.59-1.3 1.31-1.3 0 0 0 0 0 0 .72 0 1.3.59 1.3 1.31l-.02 5.22C724.29 735.03 723.71 735.61 722.99 735.61zM707.27 735.56C707.27 735.56 707.27 735.56 707.27 735.56l-10.5-.04c-.72 0-1.3-.59-1.3-1.31 0-.72.59-1.3 1.31-1.3 0 0 0 0 0 0l10.5.04c.72 0 1.3.59 1.3 1.31C708.58 734.98 707.99 735.56 707.27 735.56zM686.28 735.48C686.28 735.48 686.28 735.48 686.28 735.48l-10.5-.04c-.72 0-1.3-.59-1.3-1.31 0-.72.59-1.3 1.31-1.3 0 0 0 0 0 0l10.5.04c.72 0 1.3.59 1.3 1.31C687.58 734.9 687 735.48 686.28 735.48zM665.29 735.41C665.29 735.41 665.29 735.41 665.29 735.41l-10.5-.04c-.72 0-1.3-.59-1.3-1.31 0-.72.59-1.3 1.31-1.3 0 0 0 0 0 0l10.5.04c.72 0 1.3.59 1.3 1.31C666.59 734.83 666.01 735.41 665.29 735.41zM644.29 735.33C644.29 735.33 644.29 735.33 644.29 735.33l-10.5-.04c-.72 0-1.3-.59-1.3-1.31 0-.72.59-1.3 1.31-1.3 0 0 0 0 0 0l10.5.04c.72 0 1.3.59 1.3 1.31C645.6 734.75 645.01 735.33 644.29 735.33zM623.3 735.26C623.3 735.26 623.3 735.26 623.3 735.26l-10.5-.04c-.72 0-1.3-.59-1.3-1.31 0-.72.59-1.3 1.31-1.3 0 0 0 0 0 0l10.5.04c.72 0 1.3.59 1.3 1.31C624.6 734.68 624.02 735.26 623.3 735.26zM602.31 735.18C602.31 735.18 602.31 735.18 602.31 735.18l-10.5-.04c-.72 0-1.3-.59-1.3-1.31 0-.72.59-1.3 1.31-1.3 0 0 0 0 0 0l10.5.04c.72 0 1.3.59 1.3 1.31C603.61 734.6 603.03 735.18 602.31 735.18zM581.32 735.11C581.31 735.11 581.31 735.11 581.32 735.11l-10.5-.04c-.72 0-1.3-.59-1.3-1.31 0-.72.59-1.3 1.31-1.3 0 0 0 0 0 0l10.5.04c.72 0 1.3.59 1.3 1.31C582.62 734.53 582.03 735.11 581.32 735.11zM560.32 735.04C560.32 735.04 560.32 735.04 560.32 735.04l-10.5-.04c-.72 0-1.3-.59-1.3-1.31 0-.72.59-1.3 1.31-1.3 0 0 0 0 0 0l10.5.04c.72 0 1.3.59 1.3 1.31C561.62 734.46 561.04 735.04 560.32 735.04zM539.33 734.96C539.33 734.96 539.33 734.96 539.33 734.96l-10.5-.04c-.72 0-1.3-.59-1.3-1.31 0-.72.59-1.3 1.31-1.3 0 0 0 0 0 0l10.5.04c.72 0 1.3.59 1.3 1.31C540.63 734.38 540.05 734.96 539.33 734.96zM518.34 734.89C518.33 734.89 518.33 734.89 518.34 734.89l-10.5-.04c-.72 0-1.3-.59-1.3-1.31 0-.72.59-1.3 1.31-1.3 0 0 0 0 0 0l10.5.04c.72 0 1.3.59 1.3 1.31C519.64 734.31 519.05 734.89 518.34 734.89zM497.34 734.81C497.34 734.81 497.34 734.81 497.34 734.81l-10.5-.04c-.72 0-1.3-.59-1.3-1.31 0-.72.59-1.3 1.31-1.3 0 0 0 0 0 0l10.5.04c.72 0 1.3.59 1.3 1.31C498.65 734.23 498.06 734.81 497.34 734.81zM476.35 734.74C476.35 734.74 476.35 734.74 476.35 734.74l-10.5-.04c-.72 0-1.3-.59-1.3-1.31 0-.72.59-1.3 1.31-1.3 0 0 0 0 0 0l10.5.04c.72 0 1.3.59 1.3 1.31C477.65 734.16 477.07 734.74 476.35 734.74zM455.36 734.67C455.35 734.67 455.35 734.67 455.36 734.67l-10.5-.04c-.72 0-1.3-.59-1.3-1.31 0-.72.59-1.3 1.31-1.3 0 0 0 0 0 0l10.5.04c.72 0 1.3.59 1.3 1.31C456.66 734.08 456.08 734.67 455.36 734.67zM434.36 734.59C434.36 734.59 434.36 734.59 434.36 734.59l-5.22-.02c-.35 0-.68-.14-.92-.39-.24-.25-.38-.58-.38-.92l.02-5.22c0-.72.6-1.31 1.31-1.3.72 0 1.3.59 1.3 1.31l-.01 3.92 3.92.01c.72 0 1.3.59 1.3 1.31C435.67 734.01 435.08 734.59 434.36 734.59zM429.2 718.84C429.2 718.84 429.2 718.84 429.2 718.84c-.73 0-1.31-.59-1.31-1.31l.04-10.51c0-.72.59-1.3 1.31-1.3 0 0 0 0 0 0 .72 0 1.3.59 1.3 1.31l-.04 10.51C430.5 718.26 429.92 718.84 429.2 718.84zM429.27 697.83C429.27 697.83 429.27 697.83 429.27 697.83c-.73 0-1.31-.59-1.31-1.31l.04-10.51c0-.72.59-1.3 1.31-1.3 0 0 0 0 0 0 .72 0 1.3.59 1.3 1.31l-.04 10.51C430.57 697.25 429.99 697.83 429.27 697.83zM429.35 676.81C429.35 676.81 429.34 676.81 429.35 676.81c-.73 0-1.31-.59-1.31-1.31l.04-10.51c0-.72.59-1.3 1.31-1.3 0 0 0 0 0 0 .72 0 1.3.59 1.3 1.31l-.04 10.51C430.65 676.23 430.07 676.81 429.35 676.81zM429.42 655.79C429.42 655.79 429.42 655.79 429.42 655.79c-.73 0-1.31-.59-1.31-1.31l.04-10.51c0-.72.59-1.3 1.31-1.3 0 0 0 0 0 0 .72 0 1.3.59 1.3 1.31l-.04 10.51C430.72 655.21 430.14 655.79 429.42 655.79zM429.5 634.77C429.49 634.77 429.49 634.77 429.5 634.77c-.73 0-1.31-.59-1.31-1.31l.04-10.51c0-.72.59-1.3 1.31-1.3 0 0 0 0 0 0 .72 0 1.3.59 1.3 1.31l-.04 10.51C430.8 634.19 430.21 634.77 429.5 634.77zM429.57 613.76C429.57 613.76 429.57 613.76 429.57 613.76c-.73 0-1.31-.59-1.31-1.31l.04-10.51c0-.72.59-1.3 1.31-1.3 0 0 0 0 0 0 .72 0 1.3.59 1.3 1.31l-.04 10.51C430.87 613.18 430.29 613.76 429.57 613.76zM429.64 592.74C429.64 592.74 429.64 592.74 429.64 592.74c-.73 0-1.31-.59-1.31-1.31l.04-10.51c0-.72.59-1.3 1.31-1.3 0 0 0 0 0 0 .72 0 1.3.59 1.3 1.31l-.04 10.51C430.95 592.16 430.36 592.74 429.64 592.74zM429.72 571.72C429.72 571.72 429.72 571.72 429.72 571.72c-.73 0-1.31-.59-1.31-1.31l.04-10.51c0-.72.59-1.3 1.31-1.3 0 0 0 0 0 0 .72 0 1.3.59 1.3 1.31l-.04 10.51C431.02 571.14 430.44 571.72 429.72 571.72zM429.79 550.7C429.79 550.7 429.79 550.7 429.79 550.7c-.73 0-1.31-.59-1.31-1.31l.04-10.51c0-.72.59-1.3 1.31-1.3 0 0 0 0 0 0 .72 0 1.3.59 1.3 1.31l-.04 10.51C431.1 550.12 430.51 550.7 429.79 550.7zM429.87 529.69C429.87 529.69 429.86 529.69 429.87 529.69c-.73 0-1.31-.59-1.31-1.31l.04-10.51c0-.72.59-1.3 1.31-1.3 0 0 0 0 0 0 .72 0 1.3.59 1.3 1.31l-.04 10.51C431.17 529.11 430.59 529.69 429.87 529.69zM429.94 508.67C429.94 508.67 429.94 508.67 429.94 508.67c-.73 0-1.31-.59-1.31-1.31l.04-10.51c0-.72.59-1.3 1.31-1.3 0 0 0 0 0 0 .72 0 1.3.59 1.3 1.31l-.04 10.51C431.24 508.09 430.66 508.67 429.94 508.67zM430.02 487.65C430.01 487.65 430.01 487.65 430.02 487.65c-.73 0-1.31-.59-1.31-1.31l.04-10.51c0-.72.59-1.3 1.31-1.3 0 0 0 0 0 0 .72 0 1.3.59 1.3 1.31l-.04 10.51C431.32 487.07 430.73 487.65 430.02 487.65zM430.09 466.64C430.09 466.64 430.09 466.64 430.09 466.64c-.73 0-1.31-.59-1.31-1.31l.04-10.51c0-.72.59-1.3 1.31-1.3 0 0 0 0 0 0 .72 0 1.3.59 1.3 1.31l-.04 10.51C431.39 466.05 430.81 466.64 430.09 466.64zM430.16 445.62C430.16 445.62 430.16 445.62 430.16 445.62c-.73 0-1.31-.59-1.31-1.31l.04-10.51c0-.72.59-1.3 1.31-1.3 0 0 0 0 0 0 .72 0 1.3.59 1.3 1.31l-.04 10.51C431.47 445.04 430.88 445.62 430.16 445.62zM430.24 424.6C430.24 424.6 430.24 424.6 430.24 424.6c-.73 0-1.31-.59-1.31-1.31l.04-10.51c0-.72.59-1.3 1.31-1.3 0 0 0 0 0 0 .72 0 1.3.59 1.3 1.31l-.04 10.51C431.54 424.02 430.96 424.6 430.24 424.6zM430.31 403.58C430.31 403.58 430.31 403.58 430.31 403.58c-.73 0-1.31-.59-1.31-1.31l.04-10.51c0-.72.59-1.3 1.31-1.3 0 0 0 0 0 0 .72 0 1.3.59 1.3 1.31l-.04 10.51C431.62 403 431.03 403.58 430.31 403.58zM430.39 382.57C430.39 382.57 430.38 382.57 430.39 382.57c-.73 0-1.31-.59-1.31-1.31l.04-10.51c0-.72.59-1.3 1.31-1.3 0 0 0 0 0 0 .72 0 1.3.59 1.3 1.31l-.04 10.51C431.69 381.98 431.11 382.57 430.39 382.57zM430.46 361.55C430.46 361.55 430.46 361.55 430.46 361.55c-.73 0-1.31-.59-1.31-1.31l.04-10.51c0-.72.59-1.3 1.31-1.3 0 0 0 0 0 0 .72 0 1.3.59 1.3 1.31l-.04 10.51C431.76 360.97 431.18 361.55 430.46 361.55zM430.54 340.53C430.54 340.53 430.53 340.53 430.54 340.53c-.73 0-1.31-.59-1.31-1.31l.02-5.22c0-.72.59-1.3 1.31-1.3 0 0 0 0 0 0l5.22.02c.72 0 1.3.59 1.3 1.31 0 .72-.59 1.3-1.31 1.3 0 0 0 0-.01 0l-3.92-.01-.01 3.92C431.84 339.95 431.26 340.53 430.54 340.53zM708.69 336.29C708.68 336.29 708.68 336.29 708.69 336.29l-10.5-.04c-.72 0-1.3-.59-1.3-1.31 0-.72.59-1.3 1.31-1.3 0 0 0 0 0 0l10.5.04c.72 0 1.3.59 1.3 1.31C709.99 335.71 709.41 336.29 708.69 336.29zM687.69 336.22C687.69 336.22 687.69 336.22 687.69 336.22l-10.5-.04c-.72 0-1.3-.59-1.3-1.31 0-.72.59-1.3 1.31-1.3 0 0 0 0 0 0l10.5.04c.72 0 1.3.59 1.3 1.31C689 335.64 688.41 336.22 687.69 336.22zM666.7 336.15C666.7 336.15 666.7 336.15 666.7 336.15l-10.5-.04c-.72 0-1.3-.59-1.3-1.31 0-.72.59-1.3 1.31-1.3 0 0 0 0 0 0l10.5.04c.72 0 1.3.59 1.3 1.31C668 335.56 667.42 336.15 666.7 336.15zM645.71 336.07C645.71 336.07 645.7 336.07 645.71 336.07l-10.5-.04c-.72 0-1.3-.59-1.3-1.31 0-.72.59-1.3 1.31-1.3 0 0 0 0 0 0l10.5.04c.72 0 1.3.59 1.3 1.31C647.01 335.49 646.43 336.07 645.71 336.07zM624.71 336C624.71 336 624.71 336 624.71 336l-10.5-.04c-.72 0-1.3-.59-1.3-1.31 0-.72.59-1.3 1.31-1.3 0 0 0 0 0 0l10.5.04c.72 0 1.3.59 1.3 1.31C626.02 335.42 625.43 336 624.71 336zM603.72 335.92C603.72 335.92 603.72 335.92 603.72 335.92l-10.5-.04c-.72 0-1.3-.59-1.3-1.31 0-.72.59-1.3 1.31-1.3 0 0 0 0 0 0l10.5.04c.72 0 1.3.59 1.3 1.31C605.02 335.34 604.44 335.92 603.72 335.92zM582.73 335.85C582.73 335.85 582.72 335.85 582.73 335.85l-10.5-.04c-.72 0-1.3-.59-1.3-1.31 0-.72.59-1.3 1.31-1.3 0 0 0 0 0 0l10.5.04c.72 0 1.3.59 1.3 1.31C584.03 335.27 583.45 335.85 582.73 335.85zM561.73 335.77C561.73 335.77 561.73 335.77 561.73 335.77l-10.5-.04c-.72 0-1.3-.59-1.3-1.31 0-.72.59-1.3 1.31-1.3 0 0 0 0 0 0l10.5.04c.72 0 1.3.59 1.3 1.31C563.04 335.19 562.45 335.77 561.73 335.77zM540.74 335.7C540.74 335.7 540.74 335.7 540.74 335.7l-10.5-.04c-.72 0-1.3-.59-1.3-1.31 0-.72.59-1.3 1.31-1.3 0 0 0 0 0 0l10.5.04c.72 0 1.3.59 1.3 1.31C542.04 335.12 541.46 335.7 540.74 335.7zM519.75 335.63C519.75 335.63 519.74 335.63 519.75 335.63l-10.5-.04c-.72 0-1.3-.59-1.3-1.31 0-.72.59-1.3 1.31-1.3 0 0 0 0 0 0l10.5.04c.72 0 1.3.59 1.3 1.31C521.05 335.05 520.47 335.63 519.75 335.63zM498.76 335.55C498.75 335.55 498.75 335.55 498.76 335.55l-10.5-.04c-.72 0-1.3-.59-1.3-1.31 0-.72.59-1.3 1.31-1.3 0 0 0 0 0 0l10.5.04c.72 0 1.3.59 1.3 1.31C500.06 334.97 499.47 335.55 498.76 335.55zM477.76 335.48C477.76 335.48 477.76 335.48 477.76 335.48l-10.5-.04c-.72 0-1.3-.59-1.3-1.31 0-.72.59-1.3 1.31-1.3 0 0 0 0 0 0l10.5.04c.72 0 1.3.59 1.3 1.31C479.06 334.9 478.48 335.48 477.76 335.48zM456.77 335.4C456.77 335.4 456.77 335.4 456.77 335.4l-10.5-.04c-.72 0-1.3-.59-1.3-1.31 0-.72.59-1.3 1.31-1.3 0 0 0 0 0 0l10.5.04c.72 0 1.3.59 1.3 1.31C458.07 334.82 457.49 335.4 456.77 335.4zM724.38 341.57C724.38 341.57 724.38 341.57 724.38 341.57c-.73 0-1.31-.59-1.31-1.31l.01-3.92-3.92-.01c-.72 0-1.3-.59-1.3-1.31 0-.72.59-1.3 1.31-1.3 0 0 0 0 0 0l5.22.02c.35 0 .68.14.92.39.24.25.38.58.38.92l-.02 5.22C725.69 340.99 725.1 341.57 724.38 341.57zM723.05 719.88C723.05 719.88 723.04 719.88 723.05 719.88c-.73 0-1.31-.59-1.31-1.31l.04-10.51c0-.72.59-1.3 1.31-1.3 0 0 0 0 0 0 .72 0 1.3.59 1.3 1.31l-.04 10.51C724.35 719.3 723.77 719.88 723.05 719.88zM723.12 698.87C723.12 698.87 723.12 698.87 723.12 698.87c-.73 0-1.31-.59-1.31-1.31l.04-10.51c0-.72.59-1.3 1.31-1.3 0 0 0 0 0 0 .72 0 1.3.59 1.3 1.31l-.04 10.51C724.42 698.28 723.84 698.87 723.12 698.87zM723.2 677.85C723.19 677.85 723.19 677.85 723.2 677.85c-.73 0-1.31-.59-1.31-1.31l.04-10.51c0-.72.59-1.3 1.31-1.3 0 0 0 0 0 0 .72 0 1.3.59 1.3 1.31l-.04 10.51C724.5 677.27 723.91 677.85 723.2 677.85zM723.27 656.83C723.27 656.83 723.27 656.83 723.27 656.83c-.73 0-1.31-.59-1.31-1.31l.04-10.51c0-.72.59-1.3 1.31-1.3 0 0 0 0 0 0 .72 0 1.3.59 1.3 1.31l-.04 10.51C724.57 656.25 723.99 656.83 723.27 656.83zM723.34 635.81C723.34 635.81 723.34 635.81 723.34 635.81c-.73 0-1.31-.59-1.31-1.31l.04-10.51c0-.72.59-1.3 1.31-1.3 0 0 0 0 0 0 .72 0 1.3.59 1.3 1.31l-.04 10.51C724.65 635.23 724.06 635.81 723.34 635.81zM723.42 614.8C723.42 614.8 723.42 614.8 723.42 614.8c-.73 0-1.31-.59-1.31-1.31l.04-10.51c0-.72.59-1.3 1.31-1.3 0 0 0 0 0 0 .72 0 1.3.59 1.3 1.31l-.04 10.51C724.72 614.22 724.14 614.8 723.42 614.8zM723.49 593.78C723.49 593.78 723.49 593.78 723.49 593.78c-.73 0-1.31-.59-1.3-1.31l.04-10.51c0-.72.59-1.3 1.31-1.3 0 0 0 0 0 0 .72 0 1.3.59 1.3 1.31l-.04 10.51C724.79 593.2 724.21 593.78 723.49 593.78zM723.57 572.76C723.57 572.76 723.56 572.76 723.57 572.76c-.73 0-1.31-.59-1.3-1.31l.04-10.51c0-.72.59-1.3 1.31-1.3 0 0 0 0 0 0 .72 0 1.3.59 1.3 1.31l-.04 10.51C724.87 572.18 724.29 572.76 723.57 572.76zM723.64 551.74C723.64 551.74 723.64 551.74 723.64 551.74c-.73 0-1.31-.59-1.31-1.31l.04-10.51c0-.72.59-1.3 1.31-1.3 0 0 0 0 0 0 .72 0 1.3.59 1.3 1.31l-.04 10.51C724.94 551.16 724.36 551.74 723.64 551.74zM723.72 530.73C723.71 530.73 723.71 530.73 723.72 530.73c-.73 0-1.31-.59-1.31-1.31l.04-10.51c0-.72.59-1.3 1.31-1.3 0 0 0 0 0 0 .72 0 1.3.59 1.3 1.31l-.04 10.51C725.02 530.15 724.43 530.73 723.72 530.73zM723.79 509.71C723.79 509.71 723.79 509.71 723.79 509.71c-.73 0-1.31-.59-1.31-1.31l.04-10.51c0-.72.59-1.3 1.31-1.3 0 0 0 0 0 0 .72 0 1.3.59 1.3 1.31l-.04 10.51C725.09 509.13 724.51 509.71 723.79 509.71zM723.86 488.69C723.86 488.69 723.86 488.69 723.86 488.69c-.73 0-1.31-.59-1.31-1.31l.04-10.51c0-.72.59-1.3 1.31-1.3 0 0 0 0 0 0 .72 0 1.3.59 1.3 1.31l-.04 10.51C725.17 488.11 724.58 488.69 723.86 488.69zM723.94 467.67C723.94 467.67 723.93 467.67 723.94 467.67c-.73 0-1.31-.59-1.31-1.31l.04-10.51c0-.72.59-1.3 1.31-1.3 0 0 0 0 0 0 .72 0 1.3.59 1.3 1.31l-.04 10.51C725.24 467.09 724.66 467.67 723.94 467.67zM724.01 446.66C724.01 446.66 724.01 446.66 724.01 446.66c-.73 0-1.31-.59-1.31-1.31l.04-10.51c0-.72.59-1.3 1.31-1.3 0 0 0 0 0 0 .72 0 1.3.59 1.3 1.31l-.04 10.51C725.32 446.08 724.73 446.66 724.01 446.66zM724.09 425.64C724.09 425.64 724.08 425.64 724.09 425.64c-.73 0-1.31-.59-1.31-1.31l.04-10.51c0-.72.59-1.3 1.31-1.3 0 0 0 0 0 0 .72 0 1.3.59 1.3 1.31l-.04 10.51C725.39 425.06 724.81 425.64 724.09 425.64zM724.16 404.62C724.16 404.62 724.16 404.62 724.16 404.62c-.73 0-1.31-.59-1.31-1.31l.04-10.51c0-.72.59-1.3 1.31-1.3 0 0 0 0 0 0 .72 0 1.3.59 1.3 1.31l-.04 10.51C725.46 404.04 724.88 404.62 724.16 404.62zM724.24 383.6C724.23 383.6 724.23 383.6 724.24 383.6c-.73 0-1.31-.59-1.31-1.31l.04-10.51c0-.72.59-1.3 1.31-1.3 0 0 0 0 0 0 .72 0 1.3.59 1.3 1.31l-.04 10.51C725.54 383.02 724.95 383.6 724.24 383.6zM724.31 362.59C724.31 362.59 724.31 362.59 724.31 362.59c-.73 0-1.31-.59-1.31-1.31l.04-10.51c0-.72.59-1.3 1.31-1.3 0 0 0 0 0 0 .72 0 1.3.59 1.3 1.31l-.04 10.51C725.61 362.01 725.03 362.59 724.31 362.59z" class="color9c1c1c svgShape"></path><g fill="#000000" class="color000000 svgShape"><path fill="#ffffff" d="M544.84 494.19h-31.39v-1.9c1.69 0 2.94-.15 3.77-.44.82-.29 1.36-.86 1.61-1.71.25-.84.38-2.09.38-3.73v-25.76c0-1.65-.13-2.91-.38-3.8-.25-.89-.79-1.5-1.61-1.84-.82-.34-2.08-.51-3.77-.51v-1.9h17.78v1.9c-1.69 0-2.98.18-3.89.54-.91.36-1.52.98-1.84 1.87-.32.89-.47 2.15-.47 3.8v27.47c0 1.39.34 2.3 1.01 2.72.67.42 1.94.63 3.8.63h2.91c2.11 0 3.82-.16 5.13-.47 1.31-.32 2.35-.85 3.13-1.61.78-.76 1.43-1.76 1.96-3.01.53-1.24 1.11-2.77 1.74-4.59h2.03L544.84 494.19zM564.46 494.19h-13.29v-1.9c1.18 0 2.13-.19 2.85-.57.72-.38 1.41-1.15 2.09-2.31.67-1.16 1.52-2.94 2.53-5.35l13.42-31.77h2.6l15 34.36c.93 2.07 1.82 3.52 2.69 4.37.86.84 2.14 1.27 3.83 1.27v1.9h-17.02v-1.9c.63 0 1.29-.04 1.96-.13.67-.08 1.24-.29 1.71-.63.46-.34.7-.86.7-1.58 0-.46-.07-1-.22-1.61-.15-.61-.43-1.38-.85-2.31l-2.72-6.33-.44-1.27-7.21-18.35h-.19l-7.4 18.35-.44 1.27-3.1 7.34c-.17.51-.33 1-.47 1.49-.15.49-.22 1.02-.22 1.61 0 .89.34 1.47 1.01 1.74.67.28 1.75.41 3.23.41V494.19zM580.66 480.33h-17.59l.95-2.53h15.7L580.66 480.33zM614.33 494.57h-1.58l-13.16-33.16c-.97-2.66-1.96-4.46-2.97-5.41-1.01-.95-2.34-1.44-3.99-1.49v-1.9h16.33v1.9c-1.6 0-2.7.18-3.29.54-.59.36-.89.88-.89 1.55 0 .8.29 1.96.89 3.48l7.34 18.48 1.96 5.32h.32l7.47-19.3 2.97 4.87h-1.84L614.33 494.57zM635.34 494.57h-1.71l-9.87-26.07-1.01-2.15-2.09-5.82c-.68-1.86-1.29-3.21-1.84-4.05-.55-.84-1.18-1.38-1.9-1.61-.72-.23-1.69-.35-2.91-.35v-1.9h16.52v1.9c-3.21 0-4.81.72-4.81 2.15 0 .51.13 1.1.38 1.77.25.68.48 1.31.7 1.9l6.58 17.09 2.09 6.27h.32l7.21-21.01c.21-.67.4-1.33.57-1.96.17-.63.31-1.26.41-1.87.1-.61.16-1.17.16-1.68 0-.97-.34-1.66-1.01-2.06-.68-.4-1.75-.6-3.23-.6v-1.9h13.04v1.9c-1.48.04-2.59.38-3.35 1.01-.76.63-1.44 1.75-2.03 3.35L635.34 494.57z" class="colorffffff svgShape"></path></g><g fill="#000000" class="color000000 svgShape"><path fill="#273e8f" d="M1061.49,191.95v589.08h-28.72V191.95c0-7.12,1.43-13.15,8.18-14.06l12.39-0.18
			C1060.56,178.71,1061.49,184.07,1061.49,191.95z" class="color8f4827 svgShape"></path><path fill="#273e8f" d="M1241.13,260.05c-61.53-19.63-132.33-23.77-196.92-22.46c-64.59-1.32-135.39,2.82-196.92,22.46
			c-8.66,2.73-4.94,16.38,3.77,13.6c60.02-19.16,128.8-22.74,191.55-21.94h1.6h1.6c62.75-0.8,131.53,2.78,191.55,21.94
			C1246.07,276.43,1249.79,262.78,1241.13,260.05z" class="color8f4827 svgShape"></path><polygon fill="#273e8f" points="855.16 451.2 863.21 451.2 861.65 261.41 858.05 261.41" class="color8f4827 svgShape"></polygon><polygon fill="#273e8f" points="920.88 455.08 927.69 451.75 860.48 262.22 857.74 263.36" class="color8f4827 svgShape"></polygon><polygon fill="#273e8f" points="796.28 455.2 789.47 451.86 858.5 262.9 861.54 264.2" class="color8f4827 svgShape"></polygon><path fill="#203375" d="M1077.27,776.87v-4.24c0-9.98-9.12-18.09-20.33-18.09h-19.64c-11.22,0-20.31,8.11-20.31,18.09v4.24H1077.27z
			" class="color753b20 svgShape"></path><path fill="#273e8f" d="M1092.19,801.48v-6.12c0-14.39-13.63-26.09-30.4-26.09h-29.37c-16.77,0-30.36,11.7-30.36,26.09v6.12H1092.19
			z" class="color8f4827 svgShape"></path><circle cx="1047.13" cy="243.18" r="25.58" fill="#3d69ff" class="colorffb83d svgShape"></circle><path fill="#3d69ff" d="M782.92,451.2c-0.04,35.59,24.22,65.54,57.16,74.05c0,0,0,0.04,0.04,0c6.07,1.56,12.43,2.4,19,2.4
				c42.17,0.04,76.28-34.12,76.33-76.29l-132.48-0.13L782.92,451.2z" class="colorffb83d svgShape"></path><path fill="#e6e6e6" d="M935.45,451.2c0.04,35.59-24.22,65.54-57.16,74.05c7.96-6.02,15.21-12.81,20.94-21.02
			c10.87-15.71,16.18-34.12,16.18-52.99L935.45,451.2z" class="colore6e6e6 svgShape"></path><ellipse cx="811.03" cy="483.88" fill="#999999" rx="8.17" ry="21.57" transform="rotate(-32.814 811.06 483.894)" class="color999999 svgShape"></ellipse><polygon fill="#273e8f" points="1227.47 451.2 1235.52 451.2 1233.96 261.41 1230.36 261.41" class="color8f4827 svgShape"></polygon><polygon fill="#273e8f" points="1293.19 455.08 1300 451.75 1232.79 262.22 1230.05 263.36" class="color8f4827 svgShape"></polygon><polygon fill="#273e8f" points="1168.58 455.2 1161.78 451.86 1230.81 262.9 1233.84 264.2" class="color8f4827 svgShape"></polygon><path fill="#3d69ff" d="M1155.23,451.2c-0.04,35.59,24.22,65.54,57.16,74.05c0,0,0,0.04,0.04,0c6.07,1.56,12.43,2.4,19,2.4
				c42.17,0.04,76.28-34.12,76.33-76.29l-132.48-0.13L1155.23,451.2z" class="colorffb83d svgShape"></path><path fill="#e6e6e6" d="M1307.76,451.2c0.04,35.59-24.22,65.54-57.16,74.05c7.96-6.02,15.21-12.81,20.94-21.02
			c10.87-15.71,16.18-34.12,16.18-52.99L1307.76,451.2z" class="colore6e6e6 svgShape"></path><ellipse cx="1183.34" cy="483.88" fill="#999999" rx="8.17" ry="21.57" transform="rotate(-32.814 1183.382 483.895)" class="color999999 svgShape"></ellipse></g><g fill="#000000" class="color000000 svgShape"><path fill="#e3e9ff" d="M740.72,743.35v48.29H600.36c-13.32,0-24.15-10.82-24.15-24.14c0-13.32,10.84-24.15,24.15-24.15H740.72z" class="colorfff4e3 svgShape"></path><path fill="#3864fc" d="M588.87,791.64h151.85v9.54H343.73c-5.67,0-10.27-4.6-10.27-10.28v-46.82c0-5.67,4.6-10.27,10.27-10.27
						h396.99v9.53H600.36C579.28,743.35,564.42,770.48,588.87,791.64z" class="color206e9e svgShape"></path><rect width="9.04" height="67.37" x="537.09" y="733.81" fill="#758ad1" class="color75b8d1 svgShape"></rect><rect width="9.04" height="67.37" x="508.58" y="733.81" fill="#758ad1" class="color75b8d1 svgShape"></rect><path fill="#b6bfde" d="M588.87,791.64h53.78l-1.07,9.54H343.73c-5.67,0-10.27-4.6-10.27-10.28v-1.06
				c48.19,4.87,213.18,7.78,218.67-2.32c4.54-8.35-0.18-12.04-0.23-23.98c-0.06-15.01,9.63-24.43,18.07-29.73h79.17l-1.07,9.53
				h-47.71C579.28,743.35,564.42,770.48,588.87,791.64z" class="colorb6dbde svgShape"></path><path fill="#758ad1" d="M576.2,767.5c0,13.32,10.84,24.14,24.15,24.14h140.37v9.54H600.36c-18.58,0-33.69-15.11-33.69-33.68
							c0-18.58,15.11-33.69,33.69-33.69h140.37v9.54H600.36C587.04,743.35,576.2,754.19,576.2,767.5z" class="color75b8d1 svgShape"></path><path fill="#c2cdf5" d="M673.2 753.09h-73.83c-1 0-1.81-.81-1.81-1.81l0 0c0-1 .81-1.81 1.81-1.81h73.83c1 0 1.81.81 1.81 1.81l0 0C675.01 752.28 674.2 753.09 673.2 753.09zM726.25 787.52h-83.78c-1 0-1.81-.81-1.81-1.81l0 0c0-1 .81-1.81 1.81-1.81h83.78c1 0 1.81.81 1.81 1.81l0 0C728.06 786.71 727.25 787.52 726.25 787.52zM673.2 770.68h-45.97c-1 0-1.81-.81-1.81-1.81l0 0c0-1 .81-1.81 1.81-1.81h45.97c1 0 1.81.81 1.81 1.81l0 0C675.01 769.87 674.2 770.68 673.2 770.68zM618.19 770.68h-19.65c-1 0-1.81-.81-1.81-1.81l0 0c0-1 .81-1.81 1.81-1.81h19.65c1 0 1.81.81 1.81 1.81l0 0C620.01 769.87 619.19 770.68 618.19 770.68zM718.28 770.68h-19.65c-1 0-1.81-.81-1.81-1.81l0 0c0-1 .81-1.81 1.81-1.81h19.65c1 0 1.81.81 1.81 1.81l0 0C720.09 769.87 719.28 770.68 718.28 770.68zM704.86 754.91h-6.23c-1 0-1.81-.81-1.81-1.81l0 0c0-1 .81-1.81 1.81-1.81h6.23c1 0 1.81.81 1.81 1.81l0 0C706.67 754.09 705.86 754.91 704.86 754.91zM632.9 787.52h-6.23c-1 0-1.81-.81-1.81-1.81l0 0c0-1 .81-1.81 1.81-1.81h6.23c1 0 1.81.81 1.81 1.81l0 0C634.71 786.71 633.9 787.52 632.9 787.52zM736.11 770.68h-6.23c-1 0-1.81-.81-1.81-1.81l0 0c0-1 .81-1.81 1.81-1.81h6.23c1 0 1.81.81 1.81 1.81l0 0C737.92 769.87 737.11 770.68 736.11 770.68z" class="colorf5dac2 svgShape"></path><g fill="#000000" class="color000000 svgShape"><polygon fill="#4e68c2" points="678.56 760.63 678.56 781.6 689.23 774.19 699.89 781.6 699.89 760.63" class="colorc24e4e svgShape"></polygon></g><g fill="#000000" class="color000000 svgShape"><path fill="#758ad1" d="M367.05 748.86v22.41c0 2.5-.77 4.49-2.31 5.98-1.54 1.49-3.57 2.24-6.09 2.24-2.55 0-4.6-.76-6.14-2.28-1.54-1.52-2.31-3.6-2.31-6.24h3.96c.03 1.48.41 2.68 1.15 3.61.74.93 1.85 1.39 3.33 1.39 1.48 0 2.58-.44 3.31-1.33.72-.88 1.09-2.01 1.09-3.37v-22.41H367.05zM395.99 755.35v23.85h-3.96v-3.53c-.75 1.22-1.81 2.17-3.16 2.85-1.35.68-2.84 1.02-4.46 1.02-1.86 0-3.53-.38-5-1.15-1.48-.77-2.65-1.92-3.5-3.46-.86-1.54-1.28-3.41-1.28-5.61v-13.97h3.92v13.45c0 2.35.59 4.16 1.78 5.42 1.19 1.26 2.81 1.89 4.87 1.89 2.12 0 3.79-.65 5-1.96 1.22-1.31 1.83-3.21 1.83-5.7v-13.1H395.99zM406.21 778.65c-1.45-.62-2.6-1.49-3.44-2.61-.84-1.12-1.31-2.4-1.39-3.85h4.09c.12 1.19.67 2.16 1.68 2.92 1 .75 2.31 1.13 3.94 1.13 1.51 0 2.7-.33 3.57-1 .87-.67 1.31-1.51 1.31-2.52 0-1.04-.46-1.82-1.39-2.33-.93-.51-2.37-1.01-4.31-1.5-1.77-.46-3.21-.94-4.33-1.41-1.12-.48-2.07-1.19-2.87-2.13-.8-.94-1.2-2.18-1.2-3.72 0-1.22.36-2.34 1.09-3.35.72-1.02 1.75-1.82 3.09-2.42 1.33-.59 2.86-.89 4.57-.89 2.64 0 4.77.67 6.4 2 1.62 1.33 2.49 3.16 2.61 5.48h-3.96c-.09-1.25-.59-2.25-1.5-3-.91-.75-2.14-1.13-3.68-1.13-1.42 0-2.55.3-3.39.91-.84.61-1.26 1.41-1.26 2.39 0 .78.25 1.43.76 1.94.51.51 1.15.91 1.91 1.22.77.3 1.83.65 3.2 1.02 1.71.46 3.1.92 4.18 1.37 1.07.45 1.99 1.12 2.76 2.02.77.9 1.17 2.07 1.2 3.53 0 1.31-.36 2.48-1.09 3.53-.73 1.04-1.75 1.86-3.07 2.46-1.32.59-2.84.89-4.55.89C409.3 779.59 407.66 779.28 406.21 778.65zM430.24 758.61v14.06c0 1.16.25 1.98.74 2.46.49.48 1.35.72 2.57.72h2.92v3.35h-3.57c-2.2 0-3.86-.51-4.96-1.52-1.1-1.02-1.65-2.68-1.65-5v-14.06h-3.09v-3.26h3.09v-6.01h3.96v6.01h6.22v3.26H430.24zM441.38 750.69c-.52-.52-.78-1.16-.78-1.91 0-.75.26-1.39.78-1.91.52-.52 1.16-.78 1.91-.78.72 0 1.34.26 1.85.78.51.52.76 1.16.76 1.91 0 .75-.25 1.39-.76 1.91-.51.52-1.12.78-1.85.78C442.54 751.48 441.9 751.21 441.38 750.69zM445.21 755.35v23.85h-3.96v-23.85H445.21zM451.95 760.77c.99-1.84 2.36-3.27 4.11-4.29 1.76-1.02 3.76-1.52 6.03-1.52 2.93 0 5.35.71 7.25 2.13 1.9 1.42 3.16 3.39 3.76 5.92h-4.26c-.41-1.45-1.2-2.6-2.37-3.44-1.18-.84-2.63-1.26-4.37-1.26-2.26 0-4.09.78-5.48 2.33-1.39 1.55-2.09 3.75-2.09 6.59 0 2.87.7 5.09 2.09 6.66 1.39 1.57 3.22 2.35 5.48 2.35 1.74 0 3.19-.41 4.35-1.22 1.16-.81 1.96-1.97 2.39-3.48h4.26c-.64 2.44-1.91 4.39-3.83 5.85-1.91 1.47-4.31 2.2-7.18 2.2-2.26 0-4.27-.51-6.03-1.52-1.76-1.02-3.13-2.45-4.11-4.31-.99-1.86-1.48-4.03-1.48-6.53C450.47 764.76 450.96 762.61 451.95 760.77zM499.99 768.75h-19.06c.14 2.35.95 4.19 2.42 5.51 1.46 1.32 3.24 1.98 5.33 1.98 1.71 0 3.14-.4 4.29-1.2 1.15-.8 1.95-1.86 2.42-3.2h4.27c-.64 2.29-1.91 4.16-3.83 5.59-1.92 1.44-4.29 2.15-7.14 2.15-2.26 0-4.29-.51-6.07-1.52-1.78-1.02-3.18-2.46-4.2-4.33-1.02-1.87-1.52-4.04-1.52-6.51 0-2.47.49-4.63 1.48-6.48.99-1.86 2.37-3.29 4.16-4.29 1.78-1 3.84-1.5 6.16-1.5 2.26 0 4.26.49 6.01 1.48 1.74.99 3.08 2.34 4.03 4.07.94 1.73 1.41 3.68 1.41 5.85C500.12 767.11 500.08 767.91 499.99 768.75zM495.03 761.64c-.67-1.09-1.57-1.91-2.72-2.48-1.15-.57-2.41-.85-3.81-.85-2 0-3.71.64-5.11 1.91-1.41 1.28-2.21 3.05-2.41 5.31h15.06C496.03 764.02 495.7 762.72 495.03 761.64z" class="color75b8d1 svgShape"></path></g><g fill="#000000" class="color000000 svgShape"><path fill="#e3e9ff" d="M372.01,675.98v48.29h140.37c13.32,0,24.16-10.82,24.16-24.14c0-13.32-10.84-24.15-24.16-24.15H372.01z" class="colorfff4e3 svgShape"></path><path fill="#3d69ff" d="M779.28,673.95v52.36c0,4.15-3.36,7.51-7.5,7.51H372.02v-9.54h151.85c24.45-21.16,9.59-48.29-11.48-48.29
						H372.02v-9.54h399.76C775.92,666.44,779.28,669.8,779.28,673.95z" class="colorffb83d svgShape"></path><rect width="9.04" height="67.37" x="566.66" y="666.44" fill="#94acff" transform="rotate(-180 571.182 700.126)" class="colorffd894 svgShape"></rect><rect width="9.04" height="67.37" x="589.26" y="666.44" fill="#94acff" transform="rotate(-180 593.78 700.126)" class="colorffd894 svgShape"></rect><path fill="#9dafeb" d="M779.28,724.29v2.02c0,4.15-3.36,7.51-7.5,7.51H475.67l-2.42-9.54h39.13c13.31,0,24.16-10.82,24.16-24.14
				c0-13.31-10.84-24.15-24.16-24.15h-43.19l8.14-9.54h71.75c6.01,5.08,9.81,24.6,4.33,40.88c-7.68,22.83,4.63,15.94,33.22,16.95
				C613.22,725.21,759.01,724.4,779.28,724.29z" class="colorebcf9d svgShape"></path><path fill="#2e5dff" d="M518.93,676.89c-4.43-5.25-11.06-8.6-18.46-8.6H372.01v7.69h140.37
						C514.65,675.98,516.85,676.3,518.93,676.89z" class="colorffb32e svgShape"></path><path fill="#94acff" d="M546.07,700.13c0,18.56-15.11,33.68-33.69,33.68H372.02v-9.54h140.36c13.31,0,24.16-10.82,24.16-24.14
							c0-13.31-10.84-24.15-24.16-24.15H372.02v-9.54h140.36C530.96,666.44,546.07,681.55,546.07,700.13z" class="colorffd894 svgShape"></path><path fill="#c2cdf5" d="M461.05 685.22h-82.68c-1 0-1.81-.81-1.81-1.81l0 0c0-1 .81-1.81 1.81-1.81h82.68c1 0 1.81.81 1.81 1.81l0 0C462.86 684.41 462.05 685.22 461.05 685.22zM520.16 719.65H426.4c-1 0-1.81-.81-1.81-1.81l0 0c0-1 .81-1.81 1.81-1.81h93.76c1 0 1.81.81 1.81 1.81l0 0C521.98 718.84 521.16 719.65 520.16 719.65zM461.05 702.81h-51.64c-1 0-1.81-.81-1.81-1.81l0 0c0-1 .81-1.81 1.81-1.81h51.64c1 0 1.81.81 1.81 1.81l0 0C462.86 702 462.05 702.81 461.05 702.81zM399.76 702.81h-22.31c-1 0-1.81-.81-1.81-1.81l0 0c0-1 .81-1.81 1.81-1.81h22.31c1 0 1.81.81 1.81 1.81l0 0C401.57 702 400.76 702.81 399.76 702.81zM511.28 702.81h-22.31c-1 0-1.81-.81-1.81-1.81l0 0c0-1 .81-1.81 1.81-1.81h22.31c1 0 1.81.81 1.81 1.81l0 0C513.09 702 512.28 702.81 511.28 702.81zM498.31 685.22h-7.35c-1 0-1.81-.81-1.81-1.81l0 0c0-1 .81-1.81 1.81-1.81h7.35c1 0 1.81.81 1.81 1.81l0 0C500.13 684.41 499.31 685.22 498.31 685.22zM416.15 719.65h-7.35c-1 0-1.81-.81-1.81-1.81l0 0c0-1 .81-1.81 1.81-1.81h7.35c1 0 1.81.81 1.81 1.81l0 0C417.96 718.84 417.15 719.65 416.15 719.65zM531.14 702.81h-7.35c-1 0-1.81-.81-1.81-1.81l0 0c0-1 .81-1.81 1.81-1.81h7.35c1 0 1.81.81 1.81 1.81l0 0C532.96 702 532.14 702.81 531.14 702.81z" class="colorf5dac2 svgShape"></path><g fill="#000000" class="color000000 svgShape"><polygon fill="#4e68c2" points="485.19 689.57 485.19 710.68 475.74 703.22 466.29 710.68 466.29 689.57" class="colorc24e4e svgShape"></polygon></g><g fill="#000000" class="color000000 svgShape"><path fill="#2550e6" d="M630.8 712.83h14.08v4.27h-19.33v-40.21h5.25V712.83zM650.47 692.66c1.31-2.44 3.11-4.34 5.39-5.68 2.29-1.35 4.84-2.02 7.64-2.02 2.77 0 5.17.6 7.21 1.79 2.04 1.19 3.56 2.69 4.56 4.5v-5.77h5.31v31.61h-5.31v-5.88c-1.04 1.85-2.59 3.37-4.64 4.59-2.06 1.21-4.45 1.82-7.18 1.82-2.81 0-5.35-.69-7.61-2.08-2.27-1.38-4.06-3.33-5.37-5.83-1.31-2.5-1.96-5.35-1.96-8.54C648.51 697.94 649.16 695.11 650.47 692.66zM673.83 695c-.96-1.77-2.26-3.12-3.89-4.07-1.64-.94-3.43-1.41-5.39-1.41-1.96 0-3.75.46-5.37 1.38-1.62.92-2.9 2.27-3.87 4.04-.96 1.77-1.44 3.85-1.44 6.23 0 2.42.48 4.53 1.44 6.32.96 1.79 2.25 3.15 3.87 4.1 1.61.94 3.4 1.41 5.37 1.41 1.96 0 3.76-.47 5.39-1.41 1.63-.94 2.93-2.31 3.89-4.1.96-1.79 1.44-3.87 1.44-6.26C675.28 698.85 674.79 696.77 673.83 695zM731.58 685.48l-9.86 31.61h-5.42L708.68 692l-7.62 25.09h-5.42l-9.92-31.61h5.37l7.27 26.54 7.85-26.54h5.37l7.67 26.59 7.15-26.59H731.58z" class="colore68925 svgShape"></path></g></g><g fill="#000000" class="color000000 svgShape"><path fill="#e3e9ff" d="M743.67,664.42c-2.08-0.74-348.44,1.42-349.93-0.74c-8.42-3.92-15.54-10.55-20.1-18.63h-0.06V600.8h0.03
							c4.85-8.59,12.57-15.52,21.67-19.35h347.76C734.83,608.33,738.03,637.33,743.67,664.42z" class="colorfff4e3 svgShape"></path><path fill="#283973" d="M748.99,655.29c1.22,1.21,1.97,2.89,1.97,4.74c0,3.7-3,6.71-6.71,6.71H406.5
						c-6.19,0-12.08-1.24-17.44-3.5c-0.56-0.24-1.11-0.48-1.64-0.74c-0.56-0.26-1.11-0.53-1.66-0.82c-0.45-0.24-0.89-0.47-1.34-0.73
						c-0.47-0.27-0.94-0.54-1.4-0.83c-0.39-0.23-0.78-0.48-1.16-0.73c-0.4-0.27-0.81-0.54-1.2-0.82c-0.35-0.25-0.69-0.49-1.03-0.74
						c-0.36-0.27-0.7-0.54-1.05-0.82c-0.31-0.25-0.62-0.49-0.91-0.74c-0.32-0.27-0.64-0.54-0.95-0.82
						c-0.27-0.24-0.54-0.48-0.79-0.73c-0.3-0.27-0.59-0.55-0.88-0.83c-0.12-0.12-0.25-0.25-0.37-0.37
						c-0.12-0.12-0.24-0.23-0.35-0.36c-0.27-0.27-0.53-0.54-0.77-0.82c-0.24-0.23-0.46-0.48-0.68-0.74
						c-0.24-0.27-0.48-0.54-0.7-0.82c-0.21-0.23-0.41-0.48-0.6-0.73c-0.22-0.27-0.45-0.55-0.66-0.83c-0.19-0.23-0.37-0.48-0.55-0.73
						c-0.2-0.27-0.4-0.54-0.59-0.82c-0.18-0.25-0.36-0.49-0.51-0.74c-0.19-0.27-0.37-0.55-0.55-0.82c-0.16-0.25-0.31-0.48-0.46-0.73
						c-0.17-0.27-0.34-0.55-0.5-0.83c-0.14-0.25-0.29-0.49-0.42-0.74c-0.02-0.03-0.04-0.07-0.06-0.1
						c-3.67-6.52-5.76-14.04-5.76-22.05c0-8.01,2.09-15.53,5.76-22.05c0.01-0.02,0.02-0.04,0.03-0.07c0.13-0.25,0.28-0.49,0.42-0.73
						c0.16-0.28,0.32-0.56,0.5-0.83c0.15-0.25,0.3-0.48,0.46-0.73c0.17-0.27,0.35-0.55,0.54-0.82c0.17-0.25,0.34-0.49,0.51-0.74
						c0.19-0.28,0.39-0.55,0.59-0.82c0.18-0.25,0.36-0.49,0.55-0.73c0.21-0.28,0.44-0.56,0.65-0.83c0.2-0.25,0.4-0.49,0.6-0.73
						c0.23-0.28,0.47-0.55,0.72-0.82c0.21-0.26,0.44-0.5,0.67-0.74c0.25-0.28,0.5-0.55,0.77-0.82c0.24-0.25,0.48-0.49,0.73-0.74
						c0.28-0.27,0.57-0.55,0.86-0.82c0.26-0.25,0.53-0.49,0.81-0.73c0.31-0.28,0.64-0.56,0.96-0.83c0.29-0.25,0.58-0.49,0.88-0.73
						c0.35-0.28,0.69-0.55,1.05-0.82c0.33-0.25,0.67-0.49,1.02-0.74c0.39-0.28,0.79-0.55,1.2-0.82c0.38-0.25,0.76-0.49,1.15-0.73
						c0.46-0.29,0.93-0.56,1.4-0.83c0.45-0.26,0.89-0.5,1.35-0.74c0.54-0.28,1.07-0.55,1.62-0.8c0.54-0.26,1.08-0.5,1.64-0.74
						c5.39-2.28,11.32-3.55,17.54-3.55h337.74c1.86,0,3.53,0.75,4.74,1.97c1.22,1.21,1.97,2.89,1.97,4.74c0,3.71-3,6.71-6.71,6.71
						H407.68c-1.13,0-2.25,0.06-3.34,0.17c-1.63,0.16-3.22,0.44-4.78,0.82c-0.85,0.21-1.7,0.46-2.53,0.74
						c-0.75,0.25-1.49,0.51-2.21,0.82c-0.54,0.22-1.09,0.47-1.61,0.73c-0.55,0.26-1.08,0.53-1.62,0.83
						c-0.42,0.22-0.84,0.46-1.25,0.73c-0.44,0.26-0.87,0.53-1.3,0.82c-0.36,0.23-0.72,0.48-1.06,0.74
						c-0.37,0.27-0.72,0.54-1.07,0.82c-0.3,0.24-0.59,0.48-0.88,0.73c-0.31,0.27-0.63,0.54-0.93,0.83
						c-0.26,0.23-0.51,0.48-0.77,0.73c-0.28,0.27-0.55,0.54-0.81,0.82c-0.24,0.25-0.46,0.49-0.67,0.74
						c-0.25,0.27-0.48,0.54-0.69,0.82c-0.21,0.24-0.41,0.48-0.59,0.73c-0.22,0.27-0.43,0.55-0.63,0.83
						c-0.19,0.25-0.37,0.49-0.54,0.74c-0.18,0.27-0.36,0.54-0.53,0.81c-0.17,0.25-0.32,0.49-0.46,0.74
						c-0.18,0.27-0.34,0.55-0.49,0.83c-0.15,0.25-0.28,0.48-0.39,0.73c-0.16,0.27-0.29,0.54-0.42,0.82
						c-0.12,0.25-0.25,0.49-0.35,0.74c-0.13,0.27-0.26,0.54-0.37,0.82c-0.11,0.25-0.2,0.48-0.29,0.73
						c-0.12,0.28-0.22,0.55-0.31,0.83c-0.1,0.23-0.18,0.48-0.26,0.73c-0.1,0.27-0.19,0.54-0.26,0.82c-0.09,0.25-0.16,0.49-0.22,0.74
						c-0.08,0.27-0.15,0.55-0.21,0.82c-0.07,0.24-0.12,0.48-0.17,0.73c-0.07,0.27-0.12,0.55-0.17,0.83
						c-0.06,0.23-0.1,0.48-0.13,0.73c-0.06,0.27-0.09,0.54-0.12,0.82c-0.05,0.25-0.08,0.49-0.1,0.74c-0.03,0.27-0.06,0.54-0.08,0.82
						c-0.03,0.25-0.04,0.49-0.06,0.74c-0.02,0.27-0.03,0.54-0.03,0.82c-0.02,0.23-0.03,0.48-0.02,0.73
						c-0.01,0.13-0.01,0.26-0.01,0.39c0,0.15,0,0.29,0.01,0.44c0,0.25,0,0.49,0.02,0.73c0,0.28,0.01,0.55,0.03,0.82
						c0.01,0.25,0.03,0.49,0.07,0.74c0.01,0.28,0.03,0.55,0.08,0.82c0.02,0.25,0.06,0.49,0.1,0.73c0.02,0.28,0.07,0.56,0.12,0.83
						c0.03,0.25,0.08,0.49,0.13,0.74c0.04,0.27,0.1,0.54,0.17,0.81c0.04,0.25,0.1,0.49,0.17,0.74c0.07,0.28,0.13,0.55,0.21,0.83
						c0.07,0.25,0.15,0.49,0.22,0.73c0.08,0.28,0.16,0.55,0.27,0.82c0.07,0.25,0.15,0.49,0.25,0.73c0.09,0.28,0.2,0.55,0.31,0.83
						c0.09,0.25,0.19,0.48,0.3,0.73c0.11,0.28,0.24,0.55,0.37,0.82c0.1,0.25,0.22,0.49,0.35,0.74c0.13,0.28,0.27,0.55,0.43,0.82
						c0.12,0.25,0.26,0.48,0.39,0.73c0.16,0.28,0.31,0.56,0.49,0.83c0.15,0.25,0.29,0.49,0.46,0.73c0.17,0.28,0.35,0.55,0.54,0.82
						c0.17,0.25,0.35,0.49,0.54,0.74c0.19,0.28,0.4,0.55,0.61,0.82c0.19,0.25,0.38,0.49,0.59,0.73c0.22,0.28,0.46,0.56,0.72,0.83
						c0.21,0.26,0.44,0.49,0.67,0.74c0.26,0.27,0.53,0.55,0.79,0.81c0.26,0.26,0.53,0.5,0.78,0.74c0.3,0.29,0.62,0.56,0.94,0.83
						c0.29,0.25,0.58,0.49,0.88,0.73c0.36,0.28,0.72,0.56,1.08,0.82c0.35,0.26,0.7,0.5,1.06,0.74c0.42,0.29,0.85,0.56,1.3,0.82
						c0.41,0.26,0.84,0.5,1.28,0.73c0.53,0.3,1.07,0.57,1.62,0.83c0.53,0.26,1.07,0.5,1.62,0.73c0.74,0.3,1.49,0.57,2.25,0.82
						c0.85,0.29,1.71,0.54,2.6,0.74c1.68,0.41,3.41,0.68,5.18,0.82c0.91,0.09,1.81,0.12,2.74,0.12h336.57
						C746.1,653.32,747.78,654.07,748.99,655.29z" class="color28736d svgShape"></path><path fill="#c2cdf5" d="M576.83 607.16h-173.4c-1 0-1.81-.81-1.81-1.81l0 0c0-1 .81-1.81 1.81-1.81h173.4c1 0 1.81.81 1.81 1.81l0 0C578.65 606.35 577.83 607.16 576.83 607.16zM698.08 641.59H501.95c-1 0-1.81-.81-1.81-1.81l0 0c0-1 .81-1.81 1.81-1.81h196.13c1 0 1.81.81 1.81 1.81l0 0C699.89 640.78 699.08 641.59 698.08 641.59zM576.83 624.75H467.11c-1 0-1.81-.81-1.81-1.81l0 0c0-1 .81-1.81 1.81-1.81h109.73c1 0 1.81.81 1.81 1.81l0 0C578.65 623.94 577.83 624.75 576.83 624.75zM451.12 624.75h-49.58c-1 0-1.81-.81-1.81-1.81l0 0c0-1 .81-1.81 1.81-1.81h49.58c1 0 1.81.81 1.81 1.81l0 0C452.93 623.94 452.12 624.75 451.12 624.75zM679.86 624.75h-49.58c-1 0-1.81-.81-1.81-1.81l0 0c0-1 .81-1.81 1.81-1.81h49.58c1 0 1.81.81 1.81 1.81l0 0C681.68 623.94 680.86 624.75 679.86 624.75zM649.18 608.98h-18.9c-1 0-1.81-.81-1.81-1.81l0 0c0-1 .81-1.81 1.81-1.81h18.9c1 0 1.81.81 1.81 1.81l0 0C650.99 608.16 650.18 608.98 649.18 608.98zM484.73 641.59h-18.9c-1 0-1.81-.81-1.81-1.81l0 0c0-1 .81-1.81 1.81-1.81h18.9c1 0 1.81.81 1.81 1.81l0 0C486.54 640.78 485.73 641.59 484.73 641.59zM720.6 624.75h-18.9c-1 0-1.81-.81-1.81-1.81l0 0c0-1 .81-1.81 1.81-1.81h18.9c1 0 1.81.81 1.81 1.81l0 0C722.42 623.94 721.6 624.75 720.6 624.75z" class="colorf5dac2 svgShape"></path><polygon fill="#3a5bcf" points="611.28 630.97 599.96 624.54 588.64 630.97 588.64 603.54 611.28 603.54" class="colorcf3a3a svgShape"></polygon></g></g><g fill="#000000" class="color000000 svgShape"><path fill="#273e8f" d="M917.59,716.28l14.69-23.19c0.12-0.19,0.38-0.25,0.58-0.13l131.39,83.22c6.6,4.18,8.56,12.92,4.38,19.51
			s-12.92,8.56-19.51,4.38l-131.39-83.22C917.52,716.73,917.47,716.48,917.59,716.28z" class="color8f4827 svgShape"></path><path fill="#abb2cc" d="M921.3,710.43l124.73,79c6.6,4.18,15.33,2.22,19.51-4.38c1.16-1.84,1.83-3.84,2.08-5.87
			c3.75,4.59,4.35,11.23,1,16.51c-4.18,6.6-12.92,8.56-19.51,4.38l-131.39-83.22c-0.19-0.12-0.25-0.38-0.13-0.58L921.3,710.43z" class="colorccb4ab svgShape"></path><path fill="#3d69ff" d="M934.71,688.94c-2.17-1.37-5.04-0.73-6.42,1.44l-14.44,22.8c-1.37,2.17-0.73,5.04,1.44,6.42
			c2.17,1.37,5.04,0.73,6.42-1.44l14.44-22.8C937.52,693.19,936.88,690.32,934.71,688.94z" class="colorffb83d svgShape"></path><rect width="22.27" height="24.02" x="900.45" y="684.09" fill="#273e8f" transform="rotate(-147.651 911.595 696.087)" class="color8f4827 svgShape"></rect><path fill="#abb2cc" d="M908.36,704.04c2.64,1.67,6.13,0.89,7.81-1.75l7.91-12.49l3.34,2.11l-12.85,20.29l-18.81-11.91l1.92-3.03
			L908.36,704.04z" class="colorccb4ab svgShape"></path><path fill="#273e8f" d="M891.2 709.58c-4.46 11.4-2.2 28.58-13.15 36.11-11.49 7.89-29.14-13.57-39.3-18.48-11.27-5.45-34.24-10.3-32.08-26.31 1.29-9.58 16.25-15.19 25.1-28.65C831.76 672.24 871.1 697.05 891.2 709.58zM854.48 634.3c4.46-11.4 2.87-28.96 13.82-36.48 11.49-7.89 29.14 13.57 39.3 18.48 11.27 5.45 34.24 10.3 32.08 26.31-1.29 9.58-16.25 15.19-25.1 28.65C914.59 671.27 874.58 646.83 854.48 634.3z" class="color8f4827 svgShape"></path><rect width="46.13" height="70.73" x="849.85" y="636.92" fill="#4a64bd" transform="rotate(120.997 872.904 672.316)" class="colorbd6e4a svgShape"></rect><rect width="15.76" height="70.72" x="865.75" y="635.72" fill="#3d69ff" transform="rotate(120.997 873.624 671.114)" class="colorffb83d svgShape"></rect><path fill="#abb2cc" d="M838.74,727.2c10.15,4.92,27.81,26.38,39.3,18.48c10.8-7.41,8.77-24.21,12.99-35.61l0.32,0.19l23.75-39.55
			l-0.09-0.06c7.08-10.35,17.7-16.02,22.39-22.66c0.89-1.38,2.6-3.32,2.4-8.27c-0.12-3.04-1.22-4.82-1.22-4.82
			c-9.81,7.95-38.4,32.68-51.42,60.8c-15.41,33.25-51.95,18.59-71.87-6.8c-4.5,3.94-8.02,7.52-8.62,11.97
			C804.5,716.91,827.48,721.76,838.74,727.2z" class="colorccb4ab svgShape"></path></g><g fill="#000000" class="color000000 svgShape"><path fill="#273e8f" d="M960.78 763.9H760.45c-15.94 0-28.87 12.92-28.87 28.87v8.71h258.07v-8.71C989.65 776.82 976.72 763.9 960.78 763.9zM931.39 736.25H789.84c-10.76 0-19.48 8.72-19.48 19.48v8.17h180.51v-8.17C950.87 744.97 942.15 736.25 931.39 736.25z" class="color8f4827 svgShape"></path><path fill="#abb2cc" d="M933.49,736.36c3.18,3.47,5.14,8.07,5.14,13.15c0,4.51-3.66,8.17-8.17,8.17H770.36v6.21h180.51v-8.17
			C950.87,745.68,943.26,737.41,933.49,736.36z" class="colorccb4ab svgShape"></path><path fill="#3d69ff" d="M989.33,788.48H731.88c0.25-1.52,0.59-3.01,1.05-4.47h255.37C988.76,785.46,989.11,786.96,989.33,788.48z" class="colorffb83d svgShape"></path><path fill="#abb2cc" d="M964.77,764.21c5.41,5.25,8.78,12.58,8.78,20.7c0,4.81-3.9,8.71-8.72,8.71H731.58v7.86h258.07v-8.71
			C989.65,778.18,978.82,766.15,964.77,764.21z" class="colorccb4ab svgShape"></path></g><g fill="#000000" class="color000000 svgShape"><path fill="#dee5ff" d="M329.25,754.72c-0.08,1.26-0.2,2.47-0.32,3.67c-0.4,3.86-0.92,7.39-1.45,10.34
				c-0.94,5.3-6.23,9.21-12.46,9.21H208.88c-6.21,0-11.52-3.9-12.46-9.19c-0.62-3.45-1.24-7.65-1.65-12.26
				c-0.02-0.24-0.04-0.49-0.05-0.74c-1.22-14.69-0.2-33.24,9.95-44.31c18.38-20.03,46.99-42.84,48.23-60.74
				c0.03-0.4,0.04-0.81,0.04-1.19c0-18.09-29.48-41.44-48.27-61.94c-4.61-5.02-7.32-11.59-8.81-18.62
				c-2.47-11.64-1.56-24.59-0.19-34.09c1.14-7.89,8.93-13.8,18.15-13.8h93.08c8.7,0,16.18,5.27,17.92,12.6
				c2.11,8.86,4.13,21.11,2.92,32.5c-0.85,8.08-3.31,15.73-8.53,21.41c-18.8,20.5-48.27,43.85-48.27,61.94
				c0,0.28,0.01,0.56,0.02,0.84c0.89,17.97,29.75,40.93,48.25,61.1C329.13,722.26,330.34,740.2,329.25,754.72z" class="colordef1ff svgShape"></path><path fill="#4770ff" d="M311.11 575.72c-17.51-5.57-37.32 11.5-57.55 12.21-20.22.72-41.96-9.79-41.96-9.79 1.13 5.35 3.2 10.35 6.71 14.18 14.3 15.59 39.56 36.34 40.04 50.98l4.01 74.8 2.52-74.8c1.23-14.4 26.2-35.18 40.63-50.98 3.97-4.32 5.85-10.15 6.49-16.3C311.71 575.92 311.41 575.82 311.11 575.72zM262.6 732.76c-11.02-.14-38.46 6.93-56.06 11.04-3.25.76-5.4 3.43-5.06 6.32.46 3.86 1.17 7.5 1.78 10.25.62 2.8 3.47 4.83 6.78 4.83h103.79c3.34 0 6.21-2.06 6.79-4.9.44-2.14.94-4.87 1.38-8.01.39-2.79-1.53-5.45-4.62-6.36C299.92 740.78 272.73 732.89 262.6 732.76z" class="colorffbc47 svgShape"></path><path fill="#e8e8e8" d="M329.25,754.72c-0.08,1.26-0.2,2.47-0.32,3.67c-0.4,3.86-0.92,7.39-1.45,10.34
				c-0.94,5.3-6.23,9.21-12.46,9.21h-48.48c37.55-6.39,33.72-30.96,33.33-47.28c-0.41-17.74-32.8-51.54-35.28-78.61
				c-2.49-27.07,38.98-51.42,36.93-96.36c-0.92-20.08-23.61-30.68-36.32-34.64h41.71c8.7,0,16.18,5.27,17.92,12.6
				c2.11,8.86,4.13,21.11,2.92,32.5c-0.85,8.08-3.31,15.73-8.53,21.41c-18.8,20.5-48.27,43.85-48.27,61.94
				c0,0.28,0.01,0.56,0.02,0.84c0.89,17.97,29.75,40.93,48.25,61.1C329.13,722.26,330.34,740.2,329.25,754.72z" class="colore8e8e8 svgShape"></path><path fill="#cccccc" d="M213.18 576.97c8.5 15.83 19.65 26.32 24.89 23.42 5.24-2.9 2.6-18.09-5.91-33.92-8.5-15.83-19.65-26.32-24.89-23.42C202.03 545.95 204.68 561.14 213.18 576.97zM209.3 722.05c-8.22 15.39-10.32 30.17-4.71 33.02 5.62 2.85 16.83-7.32 25.05-22.7 8.22-15.39 10.32-30.17 4.71-33.02S217.52 706.66 209.3 722.05zM249.13 684.56c-2.86 5.35-3.59 10.49-1.64 11.48 1.95.99 5.85-2.54 8.71-7.89 2.86-5.35 3.59-10.49 1.64-11.48C255.89 675.67 251.99 679.21 249.13 684.56z" class="colorcccccc svgShape"></path><g fill="#000000" class="color000000 svgShape"><rect width="4.93" height="283.09" x="175.95" y="494.85" fill="#273e8f" class="color8f4827 svgShape"></rect><rect width="4.93" height="283.09" x="340.4" y="494.85" fill="#273e8f" class="color8f4827 svgShape"></rect><ellipse cx="178.41" cy="538.51" fill="#273e8f" rx="6.19" ry="6.03" class="color8f4827 svgShape"></ellipse><ellipse cx="342.87" cy="538.51" fill="#273e8f" rx="6.19" ry="6.03" class="color8f4827 svgShape"></ellipse><path fill="#273e8f" d="M172.22 760.34c0-3.33 2.77-6.03 6.19-6.03 3.42 0 6.19 2.7 6.19 6.03 0 3.33-2.77 6.03-6.19 6.03C174.99 766.37 172.22 763.67 172.22 760.34zM336.68 760.34c0-3.33 2.77-6.03 6.19-6.03 3.42 0 6.19 2.7 6.19 6.03 0 3.33-2.77 6.03-6.19 6.03C339.45 766.37 336.68 763.67 336.68 760.34zM357.98 493.22H160.57c-3.04 0-5.51 2.45-5.51 5.47v17.71c0 3.02 2.47 5.47 5.51 5.47h197.42c3.04 0 5.51-2.45 5.51-5.47v-17.71C363.49 495.67 361.03 493.22 357.98 493.22zM357.98 772.53H160.57c-3.04 0-5.51 2.45-5.51 5.47v17.71c0 3.02 2.47 5.47 5.51 5.47h197.42c3.04 0 5.51-2.45 5.51-5.47V778C363.49 774.98 361.03 772.53 357.98 772.53z" class="color8f4827 svgShape"></path></g></g><path fill="#a8b8f0" d="M1279.18 803c0 1.38-1.12 2.5-2.5 2.5H58.75c-.69 0-1.32-.28-1.77-.73-.45-.45-.73-1.08-.73-1.77 0-1.37 1.12-2.49 2.5-2.49h1217.93c.69 0 1.32.28 1.77.73C1278.9 801.69 1279.18 802.3 1279.18 803zM984.96 835.69H719.82c-1.49 0-2.69 1.21-2.69 2.69v0c0 1.49 1.21 2.69 2.69 2.69h265.14c1.49 0 2.69-1.21 2.69-2.69v0C987.66 836.9 986.45 835.69 984.96 835.69zM1105.33 835.69h-80.85c-1.49 0-2.69 1.21-2.69 2.69v0c0 1.49 1.21 2.69 2.69 2.69h80.85c1.49 0 2.7-1.21 2.7-2.69v0C1108.03 836.9 1106.82 835.69 1105.33 835.69z" class="colorf0dca8 svgShape"></path><g fill="#000000" class="color000000 svgShape"><path fill="#31458c" d="M275.03 487.17c-.08 0-.17-.02-.25-.05-.08-.03-2.01-.87-5.3-2.59-.31-.16-.42-.54-.26-.85.16-.31.54-.43.85-.26 3.24 1.7 5.19 2.54 5.21 2.55.32.14.47.51.33.82C275.51 487.03 275.28 487.17 275.03 487.17zM259.71 478.79c-.11 0-.23-.03-.33-.1-3.27-2.05-6.52-4.26-9.67-6.55-.28-.2-.34-.6-.14-.88.2-.28.6-.34.88-.14 3.13 2.28 6.36 4.47 9.6 6.5.29.18.38.57.2.86C260.12 478.68 259.92 478.79 259.71 478.79zM240.91 465.08c-.14 0-.29-.05-.4-.15-2.99-2.51-5.91-5.15-8.67-7.83-.25-.24-.25-.64-.01-.89.24-.25.64-.25.89-.01 2.74 2.66 5.63 5.28 8.6 7.77.27.22.3.62.08.88C241.26 465.01 241.09 465.08 240.91 465.08zM224.25 448.86c-.17 0-.35-.07-.47-.21-2.59-2.93-5.07-5.98-7.37-9.06-.21-.28-.15-.67.13-.88.28-.21.67-.15.88.13 2.28 3.05 4.74 6.07 7.31 8.98.23.26.2.66-.06.89C224.54 448.81 224.39 448.86 224.25 448.86zM210.34 430.24c-.21 0-.41-.1-.53-.3-2.06-3.32-3.99-6.74-5.73-10.18-.16-.31-.03-.69.28-.84.31-.16.69-.03.84.28 1.72 3.41 3.63 6.8 5.67 10.09.18.29.09.68-.2.86C210.57 430.21 210.45 430.24 210.34 430.24zM199.89 409.5c-.25 0-.49-.15-.58-.4-1.42-3.61-2.69-7.33-3.76-11.06-.1-.33.1-.68.43-.78.33-.1.68.1.78.43 1.07 3.69 2.32 7.38 3.73 10.95.13.32-.03.69-.35.81C200.04 409.49 199.96 409.5 199.89 409.5zM193.44 387.19c-.29 0-.56-.21-.61-.51-.72-3.79-1.28-7.67-1.66-11.56-.03-.34.22-.65.56-.69.35-.03.65.22.68.56.38 3.85.93 7.7 1.65 11.45.07.34-.16.67-.5.73C193.52 387.19 193.48 387.19 193.44 387.19zM191.15 364.09c-.34 0-.62-.28-.63-.62-.01-.57-.01-1.15-.01-1.73 0-3.27.12-6.62.34-9.95.02-.35.34-.61.67-.58.35.02.61.32.58.67-.23 3.3-.34 6.62-.34 9.86 0 .57 0 1.14.01 1.71C191.78 363.8 191.5 364.08 191.15 364.09 191.15 364.09 191.15 364.09 191.15 364.09zM192.65 340.89c-.03 0-.05 0-.08-.01-.34-.04-.59-.36-.54-.7.51-3.97 1.13-7.85 1.83-11.52.06-.34.39-.56.73-.5.34.06.56.39.5.73-.69 3.65-1.31 7.5-1.81 11.44C193.23 340.66 192.96 340.89 192.65 340.89zM197.06 318.08c-.05 0-.11-.01-.16-.02-.33-.09-.53-.43-.44-.77 1.05-3.9 2.24-7.65 3.54-11.13.12-.32.48-.49.81-.37.32.12.49.48.37.81-1.29 3.45-2.46 7.15-3.5 11.02C197.59 317.9 197.33 318.08 197.06 318.08zM250.3 301.07c-1.62 0-3.23-.33-4.78-.99-.32-.14-.47-.5-.33-.82.14-.32.51-.47.82-.33 3.49 1.48 7.38 1.07 10.46-1.08.29-.2.68-.13.87.16.2.28.13.67-.16.87C255.12 300.31 252.74 301.07 250.3 301.07zM205.26 296.38c-.1 0-.2-.02-.29-.07-.31-.16-.43-.54-.27-.85 1.89-3.63 3.98-6.97 6.21-9.93.21-.28.6-.33.88-.12.28.21.33.6.12.88-2.19 2.9-4.24 6.19-6.1 9.76C205.71 296.25 205.49 296.38 205.26 296.38zM237.67 292.1c-.22 0-.44-.12-.55-.33-1.66-3.12-2.85-6.9-3.55-11.23-.05-.34.18-.66.52-.72.34-.06.66.18.72.52.67 4.2 1.82 7.85 3.42 10.84.16.31.05.69-.26.85C237.87 292.08 237.77 292.1 237.67 292.1zM262.69 289.28c-.04 0-.08 0-.12-.01-.34-.06-.56-.39-.5-.73.23-1.21.34-2.5.34-3.82 0-.49-.02-1-.05-1.51-.12-1.85-.76-3.66-1.92-5.39-.19-.29-.12-.68.17-.87.29-.19.68-.12.87.17 1.29 1.92 2 3.94 2.13 6.01.03.54.05 1.07.05 1.59 0 1.4-.12 2.76-.36 4.05C263.25 289.07 262.99 289.28 262.69 289.28zM219.35 278.07c-.18 0-.36-.08-.48-.22-.22-.26-.19-.66.08-.88 3.14-2.64 6.5-4.74 9.98-6.23.32-.14.69.01.82.33.14.32-.01.69-.33.82-3.37 1.44-6.62 3.47-9.67 6.03C219.64 278.02 219.49 278.07 219.35 278.07zM251.84 271.17c-.08 0-.16-.01-.23-.04-3.39-1.34-7.22-1.97-11.14-1.8-.3.02-.64-.25-.65-.6-.02-.35.25-.64.6-.65.44-.02.88-.03 1.32-.03 3.6 0 7.18.66 10.34 1.91.32.13.48.49.35.81C252.32 271.02 252.09 271.17 251.84 271.17zM233.52 269.47c0 0-.01 0-.02 0-.35-.01-.62-.3-.61-.64l.02-.55c.12-3.6.48-7.33 1.06-11.12.05-.34.38-.58.71-.52.34.05.58.37.52.71-.57 3.74-.92 7.42-1.04 10.95l-.02.56C234.14 269.2 233.86 269.47 233.52 269.47zM236.98 246.49c-.05 0-.11-.01-.16-.02-.33-.09-.53-.43-.44-.77 1-3.75 2.22-7.49 3.61-11.13.12-.32.49-.48.81-.36.32.12.49.49.36.81-1.38 3.59-2.58 7.3-3.57 11C237.51 246.31 237.25 246.49 236.98 246.49zM245.31 224.81c-.1 0-.19-.02-.28-.07-.31-.16-.43-.54-.27-.84 1.77-3.46 3.76-6.86 5.89-10.1.19-.29.58-.37.87-.18.29.19.37.58.18.87-2.11 3.2-4.06 6.56-5.82 9.99C245.76 224.69 245.54 224.81 245.31 224.81zM258.07 205.42c-.14 0-.28-.05-.4-.14-.27-.22-.3-.62-.08-.88 2.47-2.98 5.14-5.87 7.93-8.59.25-.24.64-.24.89.01.24.25.24.65-.01.89-2.76 2.68-5.4 5.54-7.84 8.48C258.43 205.34 258.25 205.42 258.07 205.42zM274.71 189.25c-.19 0-.37-.08-.49-.24-.21-.27-.17-.67.11-.88 3.02-2.37 6.23-4.64 9.54-6.73.29-.19.68-.1.87.19.19.29.1.68-.19.87-3.27 2.08-6.45 4.32-9.44 6.66C274.98 189.2 274.84 189.25 274.71 189.25zM551.23 177.23c-1.61 0-3.24-.01-4.91-.03-.35 0-.62-.29-.62-.64 0-.34.29-.62.63-.62 0 0 .01 0 .01 0 1.69.02 3.32.03 4.98.03 2.24 0 4.47-.02 6.63-.06.34 0 .63.27.64.61.01.35-.27.63-.61.64-2.17.04-4.41.06-6.65.06C551.29 177.23 551.26 177.23 551.23 177.23zM534.71 176.86c-.01 0-.02 0-.03 0-3.79-.16-7.7-.38-11.63-.65-.35-.02-.61-.32-.58-.67.02-.35.33-.61.67-.58 3.92.27 7.82.49 11.6.65.35.02.61.31.6.65C535.32 176.6 535.04 176.86 534.71 176.86zM294.29 176.81c-.23 0-.45-.12-.56-.34-.16-.31-.04-.69.27-.84 3.4-1.73 6.97-3.36 10.62-4.84.32-.13.69.02.82.35.13.32-.02.69-.35.82-3.62 1.47-7.16 3.08-10.52 4.79C294.49 176.78 294.39 176.81 294.29 176.81zM569.58 176.71c-.33 0-.61-.26-.63-.59-.02-.35.24-.64.59-.66 3.96-.23 7.85-.54 11.56-.93.35-.03.65.21.69.56.04.34-.21.65-.56.69-3.73.39-7.64.7-11.62.94C569.61 176.71 569.59 176.71 569.58 176.71zM511.5 175.28c-.02 0-.04 0-.06 0-3.77-.35-7.67-.74-11.58-1.18-.34-.04-.59-.35-.55-.69.04-.34.36-.59.69-.55 3.91.44 7.79.84 11.56 1.18.34.03.6.34.57.68C512.09 175.03 511.82 175.28 511.5 175.28zM592.7 174.27c-.3 0-.57-.22-.62-.53-.06-.34.18-.66.52-.72 3.95-.63 7.77-1.38 11.37-2.21.33-.08.67.13.75.47.08.34-.13.67-.47.75-3.63.84-7.48 1.59-11.46 2.23C592.77 174.26 592.73 174.27 592.7 174.27zM488.38 172.68c-.03 0-.05 0-.08-.01-3.77-.5-7.65-1.04-11.53-1.62-.34-.05-.58-.37-.53-.71.05-.34.37-.58.71-.53 3.87.58 7.75 1.12 11.51 1.61.34.05.59.36.54.7C488.96 172.45 488.69 172.68 488.38 172.68zM465.37 169.26c-.03 0-.07 0-.1-.01-3.74-.62-7.6-1.28-11.47-1.98-.34-.06-.57-.39-.51-.73.06-.34.39-.57.73-.51 3.86.69 7.72 1.36 11.45 1.98.34.06.57.38.52.72C465.94 169.04 465.67 169.26 465.37 169.26zM615.32 168.95c-.26 0-.51-.17-.6-.43-.11-.33.07-.68.4-.79 3.87-1.27 7.49-2.69 10.74-4.22.31-.15.69-.01.83.3.15.31.01.69-.3.83-3.3 1.55-6.96 2.99-10.89 4.28C615.45 168.94 615.38 168.95 615.32 168.95zM315.79 168.06c-.27 0-.51-.17-.6-.44-.1-.33.08-.68.41-.79 3.62-1.15 7.4-2.2 11.23-3.13.33-.08.67.13.76.46.08.34-.13.68-.46.76-3.8.92-7.55 1.96-11.15 3.1C315.92 168.05 315.85 168.06 315.79 168.06zM442.47 165.21c-.04 0-.07 0-.11-.01-3.85-.67-7.71-1.29-11.47-1.85-.34-.05-.58-.37-.53-.71.05-.34.37-.58.71-.53 3.76.56 7.63 1.18 11.5 1.85.34.06.57.38.51.72C443.03 164.99 442.76 165.21 442.47 165.21zM338.35 162.58c-.3 0-.56-.21-.62-.52-.06-.34.17-.67.51-.73 3.74-.66 7.62-1.22 11.53-1.69.34-.05.66.21.7.55.04.34-.21.66-.55.7-3.89.46-7.74 1.02-11.46 1.68C338.43 162.58 338.39 162.58 338.35 162.58zM419.45 161.81c-.03 0-.05 0-.08 0-3.88-.47-7.77-.87-11.55-1.21-.35-.03-.6-.34-.57-.68.03-.34.34-.6.68-.57 3.8.34 7.69.75 11.59 1.21.34.04.59.35.55.7C420.04 161.57 419.77 161.81 419.45 161.81zM361.42 159.83c-.33 0-.6-.25-.62-.58-.02-.35.24-.64.58-.67 3.79-.25 7.71-.43 11.64-.51 0 0 .01 0 .01 0 .34 0 .62.27.63.61.01.35-.27.63-.61.64-3.91.08-7.81.26-11.58.51C361.45 159.83 361.43 159.83 361.42 159.83zM396.29 159.75c-.01 0-.02 0-.04 0-3.91-.22-7.82-.37-11.6-.44-.35-.01-.62-.29-.61-.64s.32-.63.64-.62c3.8.07 7.72.22 11.65.44.35.02.61.32.59.66C396.89 159.49 396.62 159.75 396.29 159.75zM636.45 158.61c-.19 0-.38-.09-.5-.25-.21-.28-.16-.67.12-.88 2.98-2.26 4.14-3.82 4.15-3.84.2-.28.6-.34.88-.13.28.2.34.6.14.87-.05.07-1.26 1.71-4.41 4.1C636.72 158.57 636.59 158.61 636.45 158.61z" class="color318c85 svgShape"></path><g fill="#000000" class="color000000 svgShape"><polygon fill="#17275e" points="647.02 150.36 663.67 140.88 653.34 135.61" class="color175e58 svgShape"></polygon><polygon fill="#31458c" points="664.16 144.36 680.82 124.34 654.2 140.05" class="color318c85 svgShape"></polygon><polygon fill="#31458c" points="680.83 124.3 638.59 129.86 648.22 134.58" class="color318c85 svgShape"></polygon><polygon fill="#243673" points="680.82 124.34 654.19 140.15 647.02 150.36 648.14 134.45" class="color24736d svgShape"></polygon></g></g><g fill="#000000" class="color000000 svgShape"><path fill="#3a5bcf" d="M287.3,397.63c0.43,0.7,0.57,1.53,0.37,2.36c-0.27,1.09-1.07,1.93-2.14,2.24l-10.39,3.03
			c-1.08,0.31-2.2,0.04-3.01-0.74c-0.81-0.78-1.13-1.89-0.87-2.98l2.57-10.52c0.27-1.09,1.07-1.93,2.14-2.24
			c1.08-0.31,2.2-0.04,3.01,0.74l7.82,7.48C286.99,397.2,287.16,397.41,287.3,397.63z M273.7,402.62c0.04,0.06,0.08,0.11,0.11,0.13
			c0.08,0.08,0.31,0.25,0.64,0.16l10.39-3.03c0.33-0.1,0.43-0.36,0.45-0.47c0.03-0.11,0.06-0.39-0.18-0.63l-7.82-7.49
			c-0.25-0.24-0.53-0.19-0.64-0.16c-0.11,0.03-0.37,0.14-0.45,0.47l-2.57,10.52C273.57,402.34,273.63,402.51,273.7,402.62z" class="colorcf3a3a svgShape"></path></g><g fill="#000000" class="color000000 svgShape"><path fill="#3a5bcf" d="M1226.68,619.31c0.43,0.7,0.57,1.53,0.37,2.36c-0.27,1.09-1.07,1.93-2.14,2.24l-10.39,3.03
			c-1.08,0.31-2.2,0.04-3.01-0.74c-0.81-0.78-1.13-1.89-0.87-2.98l2.57-10.52c0.27-1.09,1.07-1.93,2.14-2.24
			c1.08-0.31,2.2-0.04,3.01,0.74l7.82,7.48C1226.37,618.88,1226.54,619.09,1226.68,619.31z M1213.08,624.3
			c0.04,0.06,0.08,0.11,0.11,0.13c0.08,0.08,0.31,0.25,0.64,0.16l10.39-3.03c0.33-0.1,0.43-0.36,0.45-0.47
			c0.03-0.11,0.06-0.39-0.18-0.63l-7.82-7.49c-0.25-0.24-0.53-0.19-0.64-0.16c-0.11,0.03-0.37,0.14-0.45,0.47l-2.57,10.52
			C1212.95,624.02,1213.01,624.19,1213.08,624.3z" class="colorcf3a3a svgShape"></path></g><g fill="#000000" class="color000000 svgShape"><path fill="#6b8cff" d="M631.61,205.76l3.82-3.82c0.87-0.87,0.87-2.27,0-3.14c-0.87-0.87-2.28-0.87-3.14,0l-3.82,3.82l-3.82-3.82
			c-0.87-0.87-2.28-0.87-3.14,0c-0.87,0.87-0.87,2.27,0,3.14l3.82,3.82l-3.82,3.82c-0.87,0.87-0.87,2.27,0,3.14
			c0.43,0.43,1,0.65,1.57,0.65s1.14-0.22,1.57-0.65l3.82-3.82l3.82,3.82c0.43,0.43,1,0.65,1.57,0.65c0.57,0,1.14-0.22,1.57-0.65
			c0.87-0.87,0.87-2.27,0-3.14L631.61,205.76z" class="colorffb86b svgShape"></path></g><g fill="#000000" class="color000000 svgShape"><path fill="#253878" d="M1108.03,194c-4.81,0-8.73-3.92-8.73-8.73c0-4.81,3.92-8.73,8.73-8.73c4.81,0,8.73,3.92,8.73,8.73
				C1116.76,190.09,1112.84,194,1108.03,194z M1108.03,179.27c-3.31,0-6,2.69-6,6c0,3.31,2.69,6,6,6c3.31,0,6-2.69,6-6
				C1114.03,181.96,1111.33,179.27,1108.03,179.27z" class="color257872 svgShape"></path></g></svg>