<svg xmlns="http://www.w3.org/2000/svg" width="206.952" height="209.292" viewBox="0 0 206.952 209.292">
  <path id="Path_68485" data-name="Path 68485" d="M322.113,356.234v61.137a105.042,105.042,0,0,0,92.629-79.064l-60.64-9.188a44.363,44.363,0,0,1-31.989,27.115m-114.32-43.512a105.1,105.1,0,0,0,95,104.6V355.956a44.371,44.371,0,0,1,0-86.462V208.124a105.1,105.1,0,0,0-95,104.6m114.32-43.506A44.361,44.361,0,0,1,354.1,296.328l60.64-9.188a105.039,105.039,0,0,0-92.632-79.061Z" transform="translate(-207.793 -208.079)" fill="#fff" opacity="0.089"/>
</svg>
