<svg xmlns="http://www.w3.org/2000/svg" enable-background="new 0 0 2000 2000" viewBox="0 0 2000 2000" id="TaxForm"><path fill="#d5deff" d="M896.4 47.4c249.4-17.3 477.6 74.2 630.4 230.7 242.8 107.3 414.8 328.9 430 595.5 22.6 396.1-309.6 741.5-742 771.3-118.5 8.2-232.3-8.2-335.4-44.4-5.5.5-11 .9-16.5 1.4-432.4 29.9-801.2-267-823.8-663-12.9-226.2 90-435.9 261-579.7C434.3 184.9 648.9 64.4 896.4 47.4z" class="colord5f0ff svgShape"></path><g fill="#000000" class="color000000 svgShape"><path fill="#849ffe" fill-rule="evenodd" d="M793.9 898.4c-210.4-32.3-627.4-82.8-622.5-68.5 31.6-2.1 471.8 51.8 636.6 113.6l-14.1-45.1z" clip-rule="evenodd" class="color84b2fe svgShape"></path><path fill="#849ffe" fill-rule="evenodd" d="M106.9 825.9c14.5-6.3 25.8-21.8 44.5-21.1 18.6.7 34.5 10.7 42.6 24.7-9.1 13.3-25.8 21.8-44.5 21.1-18.6-.9-27.9-16.2-42.6-24.7zM207.3 888.8c2.6-11.2-1.6-24.6 6.9-35.1 8.5-10.6 21.2-15.6 32.8-14.3 3.8 11.1 1.6 24.6-6.9 35.2-8.4 10.5-21.4 9.3-32.8 14.2zM195.3 789.8c7.5 3.7 17.6 2.8 23.7 10.6 6.1 7.8 7.5 17.5 4.7 25.5-8.4.9-17.6-2.8-23.6-10.6-6.2-7.7-3.2-16.6-4.8-25.5zM263.1 767c2.8 14.6-3.3 31.6 7.1 45.6 10.5 14 26.5 21.1 41.6 19.9 5.4-14.1 3.3-31.5-7.1-45.6-10.5-14-27.3-13-41.6-19.9zM292 924.1c3.7-16.1-2.3-35.2 9.9-50.4 12.3-15.2 30.5-22.4 47.2-20.4 5.5 15.9 2.3 35.2-9.9 50.4-12.2 15.2-30.9 13.4-47.2 20.4zM351.5 743.5c2.3 21.1-8.4 44.6 4.9 65.8 13.2 21.3 35.3 33.3 57 33.4 9.4-19.5 8.4-44.6-4.9-65.9-13.3-21.2-37.3-21.8-57-33.3zM378.5 988c6.1-26.2-3.8-57.6 16.2-82.4 20-24.8 49.7-36.6 77.1-33.4 9 26.1 3.8 57.6-16.2 82.4-20.1 24.9-50.5 22-77.1 33.4zM472.6 700.6c.6 32.4-18.7 66.7-1.4 100.8 17.3 34.1 49.3 55.3 82.2 58.3 17-28.4 18.7-66.7 1.4-100.8-17.3-34-53.8-38.1-82.2-58.3zM484.4 1056.1c13-37.1 3.7-83.9 36.6-116.6 32.9-32.7 77.6-45 116.7-36 8.8 39.1-3.7 83.9-36.5 116.6-32.9 32.7-76.4 23.6-116.8 36zM830 871.2C615.3 679 179.7 313.4 174.7 333.2c37.4 21.1 496.8 407.7 638 599.5l17.3-61.5z" clip-rule="evenodd" class="color84b2fe svgShape"></path><path fill="#849ffe" fill-rule="evenodd" d="M104.6 281c21.1 3.6 45.3-5.7 66 8.9 20.6 14.7 31.3 37.6 30 59.4-20.2 8.3-45.4 5.7-66-9-20.5-14.6-19.6-38.8-30-59.3zM172 426.6c11.2-10.8 16.3-29.1 33.8-34.8 17.5-5.7 35.6-2 47.8 8.2-3.9 15.5-16.3 29.1-33.8 34.8-17.6 5.6-31.3-5.4-47.8-8.2zM231.4 305.5c5.8 9.7 17.9 16.2 19.1 29.5 1.2 13.3-4.4 25.4-13.5 32.4-10.3-5.2-17.9-16.2-19-29.5-1.3-13.3 8.8-21.2 13.4-32.4zM325.2 329.7c-7.6 18.6-27.1 33.3-25.6 57C301 410.3 314 430.2 332 440c16.7-11.9 27.1-33.3 25.6-56.9-1.5-23.7-21.2-35-32.4-53.4zM241.9 529.2c16.1-15.5 23.4-41.7 48.5-49.9 25.1-8.2 51.1-2.9 68.6 11.6-5.6 22.1-23.4 41.7-48.6 49.9-25 8.3-44.9-7.5-68.5-11.6zM442.8 368.4c-13 25.6-42.5 44.4-43.2 78.2-.7 33.9 15.4 63.9 39.9 80 25.1-15.1 42.5-44.4 43.2-78.3.8-33.9-26-52.3-39.9-79.9zM292.6 665.7c26.3-25.3 38.3-68.1 79.3-81.4 41-13.4 83.4-4.8 112.1 19.1-9.1 36.2-38.3 68.1-79.3 81.5-41 13.3-73.4-12.6-112.1-19.2zM611.8 409.4c-23.2 37.2-70.5 61.8-76.1 113.3-5.5 51.5 15 99.2 50.2 126.9 40.2-19.7 70.5-61.8 76.1-113.3 5.6-51.5-32.8-83.1-50.2-126.9zM362.5 821.2c42.1-32.4 66.2-92.4 127.7-105.2 61.4-12.8 121.3 6.4 159 45.5-18.9 50.9-66.2 92.4-127.7 105.2-61.5 12.8-104.2-29.7-159-45.5z" clip-rule="evenodd" class="color84b2fe svgShape"></path><path fill="#849ffe" fill-rule="evenodd" d="M883.2 865.6c-113.9-228.1-352.8-671-363.4-656.3 23.9 29.5 275.5 497.4 329.1 701.3l34.3-45z" clip-rule="evenodd" class="color84b2fe svgShape"></path><path fill="#849ffe" fill-rule="evenodd" d="M479.2 143.5c16.2 9.8 39.2 10.1 51.4 28.9 12.1 18.8 13.4 41.1 5.3 58.6-19.4.3-39.2-10.1-51.4-28.9-12.1-18.7-3.5-38.3-5.3-58.6zM487.1 285.2c12.8-5.2 22.9-18.6 39.1-17.6 16.3 1 30 10 36.7 22.3-8.3 11.4-22.9 18.6-39.1 17.6-16.3-1-24.1-14.5-36.7-22.3zM575.5 205c1.6 9.9 9.4 19.2 6 30.5-3.3 11.3-11.9 19.5-21.7 22.2-6.7-7.7-9.4-19.2-6-30.4 3.4-11.3 14.3-14.6 21.7-22.3zM644.7 255.5c-12.3 12.8-33.1 18.6-39.6 38.5s-2.4 40.6 9.2 54.5c17.6-4.4 33.2-18.5 39.7-38.4 6.5-20-6.1-35.8-9.3-54.6zM511.1 392.5c18.3-7.5 32.9-26.6 56.2-25.2 23.3 1.5 42.9 14.3 52.6 32-11.8 16.4-32.9 26.7-56.2 25.2-23.3-1.5-34.5-21-52.6-32zM728.8 325.8c-19.1 16.8-49.4 22.6-61.1 50.3-11.6 27.7-8.1 57.5 6.8 78.8 25.6-4.2 49.4-22.6 61.1-50.3 11.7-27.7-4.4-51.6-6.8-78.8zM508.3 521.2c29.9-12.2 53.7-43.6 91.8-41.1 38.1 2.4 70.2 23.3 85.9 52.3-19.3 26.8-53.7 43.6-91.8 41.1-38.1-2.3-56.3-34.1-85.9-52.3zM854.5 414.6c-31.2 23-78.1 27.8-99.5 68.3-21.4 40.6-20 86.5-.2 120.8 39.6-3.1 78.2-27.8 99.6-68.4 21.3-40.4.1-79 .1-120.7zM515 671.9c45.2-12.9 84.6-54.4 139.3-44.8 54.7 9.5 97.7 44.8 115.9 89.3-32.2 35.7-84.6 54.4-139.3 44.9-54.6-9.6-75.9-58.5-115.9-89.4z" clip-rule="evenodd" class="color84b2fe svgShape"></path></g><g fill="#000000" class="color000000 svgShape"><path fill="#849ffe" fill-rule="evenodd" d="M1231.5 793c17.2-212.2 37.7-631.7 23.8-625.8 4.3 31.4-17.9 474.3-67.8 643.1l44-17.3z" clip-rule="evenodd" class="color84b2fe svgShape"></path><path fill="#849ffe" fill-rule="evenodd" d="M1254.7 102.6c7.3 14 23.6 24.2 24.2 42.8.6 18.7-8.2 35.2-21.6 44.2-13.9-8.2-23.6-24.2-24.2-42.8-.5-18.6 14.2-28.9 21.6-44.2zM1199.1 207.3c11.4 1.8 24.4-3.4 35.6 4.4 11.2 7.7 17.1 20 16.6 31.7-10.8 4.6-24.4 3.4-35.6-4.4-11.2-7.7-10.9-20.7-16.6-31.7zM1297 188.2c-3.2 7.8-1.6 17.8-8.8 24.4-7.3 6.6-16.9 8.8-25.1 6.5-1.5-8.3 1.6-17.7 8.8-24.3 7.3-6.7 16.4-4.3 25.1-6.6zM1324.6 254.2c-14.3 3.8-31.7-1.1-45 10.4-13.2 11.4-19.2 27.9-16.9 42.9 14.4 4.4 31.6 1.1 44.9-10.4 13.4-11.4 11.1-28.1 17-42.9zM1170 294.3c16.3 2.6 35-4.8 51 6.3 16 11.2 24.5 28.8 23.7 45.6-15.5 6.6-35 4.8-51-6.3s-15.6-29.8-23.7-45.6zM1354.3 340.7c-20.9 3.8-45.1-5.2-65.3 9.6-20.3 14.7-30.7 37.6-29.2 59.2 20.2 8 45.1 5.2 65.4-9.6 20.2-14.7 19.1-38.7 29.1-59.2zM1112.4 385.1c26.6 4.2 57.2-7.9 83.3 10.3 26.2 18.1 40.1 46.9 38.8 74.5-25.4 10.8-57.2 7.9-83.4-10.2-26.1-18.3-25.4-48.9-38.7-74.6zM1405.8 458.4c-32.3 3-67.9-13.9-100.7 5.8s-51.6 53.1-52.3 86.2c29.6 14.9 67.9 13.9 100.7-5.8 32.7-19.7 34.2-56.4 52.3-86.2zM1052 495.6c37.9 10.3 83.9-2.3 119 28.1 35 30.5 50.4 74.2 44.3 113.9-38.4 11.6-83.9 2.3-118.9-28.1-35.1-30.4-29.1-74.5-44.4-113.9zM1261.2 827.1c176.4-227.9 509.9-688.5 489.7-692.1-18.3 38.8-371.1 524.6-552.4 679.2l62.7 12.9z" clip-rule="evenodd" class="color84b2fe svgShape"></path><path fill="#849ffe" fill-rule="evenodd" d="M1798 61.4c-2.1 21.3 8.9 44.8-4.2 66.4-13.2 21.6-35.3 33.9-57.1 34.2-9.7-19.5-8.9-44.9 4.2-66.5 13.2-21.5 37.4-22.3 57.1-34.1zM1657.6 139c11.6 10.4 30.2 14.2 37.1 31.2 6.9 17.1 4.5 35.3-4.7 48.3-15.7-2.7-30.2-14.2-37.1-31.2-6.9-17.2 3.1-31.7 4.7-48.3zM1782.7 189.6c-9.2 6.5-14.9 19-28.1 21.1-13.2 2.1-25.7-2.6-33.3-11.2 4.5-10.6 14.9-19 28.1-21.1 13.2-2.1 21.8 7.4 33.3 11.2zM1765.3 284.9c-19.1-6.2-35.2-24.6-58.6-21.4-23.5 3.1-42.4 17.5-50.9 36.1 13.1 15.8 35.1 24.7 58.6 21.5 23.4-3.3 33.3-23.8 50.9-36.2zM1560.2 216.1c16.6 14.9 43.3 20.3 53.2 44.8 10 24.5 6.6 50.7-6.7 69.3-22.5-4-43.3-20.4-53.2-44.9-10-24.5 4.4-45.4 6.7-69.2zM1735 405c-26.4-11.2-47.3-39.2-81.1-37.5-33.9 1.7-62.6 20-76.9 45.6 16.9 24 47.3 39.2 81.2 37.5 33.8-1.8 50.2-29.9 76.8-45.6zM1427.8 276.4c27.1 24.4 70.6 33.3 86.9 73.3 16.3 39.9 10.7 82.9-11 113.2-36.7-6.5-70.7-33.3-86.9-73.3-16.4-40 7.1-74.1 11-113.2zM1706.2 576.5c-38.8-20.5-66.7-65.9-118.4-67.8-51.8-1.8-97.8 22.1-123 59.1 22.5 38.7 66.7 65.9 118.5 67.8 51.7 1.9 80.5-38.7 122.9-59.1zM1277.6 357.2c35.4 39.7 96.9 59.4 114.1 119.8 17.2 60.4 2.3 121.5-34 161.9-52.1-15.3-96.9-59.4-114.1-119.8-17.1-60.4 22.2-106 34-161.9z" clip-rule="evenodd" class="color84b2fe svgShape"></path><path fill="#849ffe" fill-rule="evenodd" d="M1270.6 879.8c219.4-129.9 644-399.9 628.6-409.4-27.7 25.9-476.4 310.4-676 378.4l47.4 31z" clip-rule="evenodd" class="color84b2fe svgShape"></path><path fill="#849ffe" fill-rule="evenodd" d="M1962 425.2c-8.7 16.9-7.3 39.8-25.2 53.3-17.9 13.4-40.1 16.4-58.1 9.5-1.7-19.3 7.3-39.8 25.2-53.3 17.8-13.5 38-6.2 58.1-9.5zM1821.1 443.2c6.1 12.4 20.2 21.5 20.3 37.8.1 16.3-7.8 30.6-19.6 38.2-12-7.4-20.2-21.5-20.3-37.8-.1-16.4 12.8-25.1 19.6-38.2zM1907.5 525.7c-9.7 2.3-18.5 10.8-30 8.2-11.5-2.5-20.3-10.5-23.7-20.1 7.2-7.2 18.4-10.7 29.9-8.2 11.5 2.6 15.6 13.2 23.8 20.1zM1862.1 598.3c-13.6-11.4-20.9-31.7-41.2-36.8-20.4-5.1-40.6.5-53.7 13.1 5.6 17.3 20.9 31.7 41.2 36.8 20.3 5.1 35.1-8.6 53.7-13.1zM1715.9 474.8c8.8 17.8 28.9 30.9 29.1 54.3.2 23.4-11.2 43.9-28.2 54.8-17.2-10.6-29-30.9-29.2-54.3-.1-23.4 18.5-35.9 28.3-54.8zM1798 687.2c-18.1-17.8-26.1-47.7-54.5-57.3-28.4-9.6-58-4-78.1 12.4 6 25.2 26.1 47.7 54.5 57.3 28.4 9.6 51.1-8.1 78.1-12.4zM1587.3 481.2c14.3 29 47.3 50.4 47.6 88.6.3 38.2-18.2 71.7-46 89.5-28.1-17.3-47.3-50.4-47.6-88.6-.4-38.2 30-58.6 46-89.5zM1718.4 818.9c-25.2-29.5-33.3-76-75.3-94.4-42-18.5-87.7-13.8-120.5 8.5 5.9 39.2 33.4 76 75.3 94.4 41.9 18.4 78.9-5.5 120.5-8.5zM1437.4 498.7c16.1 44.2 60.3 80.5 54.7 135.8-5.6 55.3-37.7 100.7-80.7 122-37.9-29.5-60.3-80.5-54.7-135.7 5.5-55.3 52.8-80 80.7-122.1z" clip-rule="evenodd" class="color84b2fe svgShape"></path></g><g fill="#000000" class="color000000 svgShape"><path fill="#4d66bc" fill-rule="evenodd" d="M563.9 1935.6h968.3c70.5 0 127.7-57.2 127.7-127.7V446.7c0-70.5-57.2-127.7-127.7-127.7H563.9c-70.5 0-127.7 57.2-127.7 127.7v1361.2c0 70.5 57.2 127.7 127.7 127.7z" clip-rule="evenodd" class="color4d79bc svgShape"></path><path fill="#ffffff" fill-rule="evenodd" d="M564.9 392.5h966.4c31.3 0 56.8 25.6 56.8 56.8v1356c0 31.3-25.6 56.8-56.8 56.8H564.9c-31.3 0-56.8-25.6-56.8-56.8v-1356c0-31.3 25.5-56.8 56.8-56.8z" clip-rule="evenodd" class="colorffffff svgShape"></path><g fill="#000000" class="color000000 svgShape"><g fill="#000000" class="color000000 svgShape"><path fill="#ffffff" fill-rule="evenodd" d="M603.7 651.5H784v180.3H603.7z" clip-rule="evenodd" class="colorffffff svgShape"></path><path fill="#4d66bc" d="M788.3 836.1H599.4V647.2h188.9v188.9zm-180.4-8.6h171.8V655.7H607.9v171.8z" class="color4d79bc svgShape"></path></g><g fill="#000000" class="color000000 svgShape"><path fill="#ffffff" fill-rule="evenodd" d="M603.7 958.7H784V1139H603.7z" clip-rule="evenodd" class="colorffffff svgShape"></path><path fill="#4d66bc" d="M788.3 1143.3H599.4V954.4h188.9v188.9zm-180.4-8.6h171.8V963H607.9v171.7z" class="color4d79bc svgShape"></path></g><g fill="#000000" class="color000000 svgShape"><path fill="#ffffff" fill-rule="evenodd" d="M603.7 1274.3H784v180.3H603.7z" clip-rule="evenodd" class="colorffffff svgShape"></path><path fill="#4d66bc" d="M788.3 1458.9H599.4V1270h188.9v188.9zm-180.4-8.6h171.8v-171.8H607.9v171.8z" class="color4d79bc svgShape"></path></g><g fill="#000000" class="color000000 svgShape"><path fill="#ffffff" fill-rule="evenodd" d="M603.7 1596.3H784v180.3H603.7z" clip-rule="evenodd" class="colorffffff svgShape"></path><path fill="#4d66bc" d="M788.3 1780.9H599.4V1592h188.9v188.9zm-180.4-8.5h171.8v-171.8H607.9v171.8z" class="color4d79bc svgShape"></path></g></g><g fill="#000000" class="color000000 svgShape"><path fill="#4d66bc" fill-rule="evenodd" d="M866.3 651.1h631.6c2 0 3.7 1.6 3.7 3.6v11c0 2-1.7 3.7-3.7 3.7H866.3c-2 0-3.7-1.7-3.7-3.7v-11c0-1.9 1.6-3.6 3.7-3.6zM866.3 726.9h631.6c2 0 3.7 1.7 3.7 3.7v11c0 2-1.7 3.6-3.7 3.6H866.3c-2 0-3.7-1.6-3.7-3.6v-11c0-2 1.6-3.7 3.7-3.7zM864.8 813.8h388.8c1.2 0 2.3 1.7 2.3 3.7v11c0 2-1 3.6-2.3 3.6H864.8c-1.2 0-2.3-1.6-2.3-3.6v-11c.1-2.1 1.1-3.7 2.3-3.7zM866.3 958.4h631.6c2 0 3.7 1.7 3.7 3.7v11c0 2-1.7 3.6-3.7 3.6H866.3c-2 0-3.7-1.7-3.7-3.6v-11c0-2 1.6-3.7 3.7-3.7zM866.3 1034.2h631.6c2 0 3.7 1.7 3.7 3.7v11c0 2-1.7 3.6-3.7 3.6H866.3c-2 0-3.7-1.6-3.7-3.6v-11c0-2 1.6-3.7 3.7-3.7zM865.5 1121h510.6c1.6 0 3 1.7 3 3.7v11c0 2-1.3 3.7-3 3.7H865.5c-1.6 0-3-1.7-3-3.7v-11c.1-2 1.4-3.7 3-3.7zM866.3 1274h631.6c2 0 3.7 1.7 3.7 3.7v11c0 2-1.7 3.6-3.7 3.6H866.3c-2 0-3.7-1.6-3.7-3.6v-11c0-2.1 1.6-3.7 3.7-3.7zM866.3 1349.8h631.6c2 0 3.7 1.7 3.7 3.7v11c0 2-1.7 3.7-3.7 3.7H866.3c-2 0-3.7-1.7-3.7-3.7v-11c0-2.1 1.6-3.7 3.7-3.7zM866.3 1436.6h631.6c2 0 3.7 1.6 3.7 3.6v11c0 2-1.7 3.7-3.7 3.7H866.3c-2 0-3.7-1.7-3.7-3.7v-11c0-2 1.6-3.6 3.7-3.6zM866.3 1596h631.6c2 0 3.7 1.6 3.7 3.6v11c0 2-1.7 3.7-3.7 3.7H866.3c-2 0-3.7-1.7-3.7-3.7v-11c0-2 1.6-3.6 3.7-3.6zM866.3 1671.8h631.6c2 0 3.7 1.7 3.7 3.7v11c0 2-1.7 3.6-3.7 3.6H866.3c-2 0-3.7-1.6-3.7-3.6v-11c0-2 1.6-3.7 3.7-3.7zM863.7 1758.6h192.9c.6 0 1.1 1.7 1.1 3.7v11c0 2-.5 3.7-1.1 3.7H863.7c-.6 0-1.1-1.7-1.1-3.7v-11c0-2 .5-3.7 1.1-3.7z" clip-rule="evenodd" class="color4d79bc svgShape"></path></g><path fill="#3950a0" fill-rule="evenodd" d="M879.4 252.6h108.1v-.2c0-29 23.8-52.8 52.8-52.8h42.5c29 0 52.8 23.8 52.8 52.8v.2h108.1c90.8 0 165.2 74.1 165.6 164.9H713.8c.4-90.8 74.8-164.9 165.6-164.9zm178.4-30.9c12.1 0 21.9 9.8 21.9 21.9 0 12.1-9.8 21.9-21.9 21.9-12.1 0-21.9-9.8-21.9-21.9-.1-12.1 9.7-21.9 21.9-21.9z" clip-rule="evenodd" class="color3957a0 svgShape"></path><path fill="#4d66bc" fill-rule="evenodd" d="M628.8 731.2l9-9c3.3-3.3 8.7-3.3 12 0l54.7 54.7 106.1-106.2c3.3-3.3 8.7-3.3 12.1 0l9 9c3.3 3.3 3.3 8.7 0 12.1L711 812.5c-1.8 1.8-4.1 2.6-6.5 2.5-2.3.1-4.7-.7-6.5-2.5l-69.3-69.3c-3.2-3.3-3.2-8.7.1-12zM628.8 1038.4l9-9c3.3-3.3 8.7-3.3 12 0l54.7 54.6 106.1-106.2c3.3-3.3 8.7-3.3 12.1 0l9 9c3.3 3.3 3.3 8.7 0 12.1L711 1119.8c-1.8 1.8-4.1 2.6-6.5 2.5-2.3.2-4.7-.7-6.5-2.5l-69.3-69.3c-3.2-3.3-3.2-8.7.1-12.1z" clip-rule="evenodd" class="color4d79bc svgShape"></path></g><path fill="#3864fc" d="M895.1 458.4h92.5v24.3h-30.1v97.2h-32.4v-97.2H895v-24.3zM1026.6 458.4h39.1l46 121.4h-34.6l-8.6-25.7h-46.7l-9.1 25.7h-32l45.9-121.4zm18.9 27.1-15.7 45.5h30.9l-15.2-45.5z" class="color2c7efe svgShape"></path><path fill="#3864fc" d="M1111.5 458.4h37.3l20.5 42.8 19.6-42.8h34.9l-36.4 57.8 40.8 63.7h-38.1l-23.3-47.1-23.8 47.1h-35.5l40.9-63.7-36.9-57.8z" class="color2c7efe svgShape"></path><g fill="#000000" class="color000000 svgShape"><path fill="#99affc" fill-rule="evenodd" d="m941.1 966.5-163.3 58-54.4 42.4 33.8 43 .1.2L791 1153l54.4-42.3 96-144z" clip-rule="evenodd" class="colorfcca99 svgShape"></path><path fill="#96abf5" fill-rule="evenodd" d="m801.6 1144.9-604.2 470.7c-23.8 18.5-58.5 14.3-77.2-9.4-18.7-23.7-14.4-58.3 9.4-76.8l604.2-470.7c23.7-18.5 58.5-14.3 77.2 9.4 18.6 23.6 14.4 58.2-9.4 76.8z" clip-rule="evenodd" class="colorf59698 svgShape"></path><path fill="#1348ff" fill-rule="evenodd" d="M845 1111.1 223.8 1595l-67.7-86.2 621-483.9z" clip-rule="evenodd" class="colorffcc13 svgShape"></path><path fill="#cad0e5" fill-rule="evenodd" d="m261.3 1565.6-37.5 29.4-67.7-86.2 37.5-29.4z" clip-rule="evenodd" class="colorcdcae5 svgShape"></path><path fill="#253d8e" fill-rule="evenodd" d="m903 980 12.8 16.3.1.3 3 3.7 22.5-33.6-.3-.2z" clip-rule="evenodd" class="color253d8e svgShape"></path><path fill="#6888f6" fill-rule="evenodd" d="m856.5 996.6-116.8 91-16.3-20.7 54.4-42.4z" clip-rule="evenodd" class="colorf69668 svgShape"></path><path fill="#6685f0" fill-rule="evenodd" d="m787.1 1050.6-678.2 528.3c-2.1-18.4 5.1-37.4 20.7-49.5l604.2-470.7c15.7-12.3 35.9-14.5 53.3-8.1z" clip-rule="evenodd" class="colorf06666 svgShape"></path><path fill="#1c4df8" fill-rule="evenodd" d="m793.5 1045.6-621.2 483.9-16.2-20.7 621-483.9z" clip-rule="evenodd" class="colorf89e1c svgShape"></path><path fill="#94a0c8" fill-rule="evenodd" d="m210 1500.2-37.7 29.3-16.2-20.7 37.5-29.4z" clip-rule="evenodd" class="color9494c8 svgShape"></path><path fill="#6888f6" fill-rule="evenodd" d="M593.1 1242.3l.2-11.1c1-8.5-2.4-24.4 3.2-25.5 3.7-.3 2.4 10.6 6.9 13.4 10.7 1.4 17.6-28.1 26.3-26.4 12.9 2.3 21.2 17.3 14.5 28-3.1 5.8-21.7 14.5-36.5 25.1l-14.6-3.5zM343.1 1845.7l21.3 15.4c7.7 24 22.6 39 34.9 57.9l-59.9-25.2 3.7-48.1z" clip-rule="evenodd" class="colorf69668 svgShape"></path><path fill="#6888f6" fill-rule="evenodd" d="m366.9 1811.1-33.2-1.7 5.9 52.8c2.4 6 24.5 9.4 24.9-1l2.4-50.1z" clip-rule="evenodd" class="colorf69668 svgShape"></path><path fill="#5a78e1" fill-rule="evenodd" d="M455.3 1932.5c20.5-17.1-59.8 1.3-111.2-67.3-2.2-3.4-4.6-3.1-4.7-.1-5.8 25.8-2 49.4-3 74.2l4.8.6c1.5-12.4 2.9-24.7 4.3-36.9 6.5 14 33.8 30.7 45 31.2 10.1 1.4 39.5-1.1 64.8-1.7z" clip-rule="evenodd" class="colore15a79 svgShape"></path><path fill="#6888f6" fill-rule="evenodd" d="m442.2 1850.1 21.3 15.4c7.7 24 22.6 38.9 34.9 57.9l-59.9-25.2 3.7-48.1z" clip-rule="evenodd" class="colorf69668 svgShape"></path><path fill="#6888f6" fill-rule="evenodd" d="m465.9 1815.3-33.2-1.6 5.9 52.8c2.4 6 24.5 9.4 24.9-1l2.4-50.2z" clip-rule="evenodd" class="colorf69668 svgShape"></path><path fill="#5a78e1" fill-rule="evenodd" d="M554.4 1936.9c20.6-17.2-59.8 1.1-111.2-67.3-2.2-3.6-4.6-3.1-4.7-.2-5.8 25.9-2 49.5-3 74.3l4.8.5c1.5-12.3 2.9-24.5 4.3-36.8 6.5 14 33.8 30.7 45 31.2 10.1 1.4 39.5-1.1 64.8-1.7zM366.3 1399.9l100.7 92.2c11.2 48.7 24.7 97.7 23.5 128.3L470 1829c-16-.6-32-1-48-1.6l-3.8-199-23.8-71.2-27.5 272.3H317l6.2-326.3 43.1-103.3z" clip-rule="evenodd" class="colore15a79 svgShape"></path><path fill="#6281eb" fill-rule="evenodd" d="M386.1 1301.7c-9.3-21.3-18.7-42.7-28-63.9-32.6 33-86.2 68.2-97.8 99.2-5.8 20.3 72 101.2 101.5 134.3 3.9-10.8 7.5-18.4 11.4-29.1-25.7-31.7-50.5-61.4-69.1-96.3 23-13.5 59-30.6 82-44.2z" clip-rule="evenodd" class="color62caeb svgShape"></path><path fill="#6281eb" fill-rule="evenodd" d="M333.1 1267.5c20-12.2 40-24.3 60-36.5 18.8 6.5 49.1 10.4 56.4 19.5 75.5 71.6 20 105.9 140.7-22 9.2 6.5 12.4 8 21.8 18-33.6 48.5-96.8 181.1-163.4 89.3 5.5 64.3 22.8 115.1 28.3 179.6-37.4 38.1-131.4 23.5-158.7 8.6.4-88.4 14.6-168.1 14.9-256.5z" clip-rule="evenodd" class="color62caeb svgShape"></path><path fill="#6888f6" fill-rule="evenodd" d="m363.8 1151.6 71.3-6.2c2.9 42.9-1 87.7-30.2 88.4-32.2 1-41-44-41.1-82.2z" clip-rule="evenodd" class="colorf69668 svgShape"></path><path fill="#23346e" fill-rule="evenodd" d="M420.6 1169.5c12.9-3 19.5-5.4 24-16.5 8.3-21.2-10.8-33.7-30.1-33.3-5.9.1-13.8-1.4-24.2-.8-28.8 1.7-41.9 32.5-36.5 55.3 5.9 24.8 11.2 22.9 1 48.1-10 24.8-44.7 43.2-4.4 74.1 34.4 26.5 89.2.3 69-56.2-7.3-20.2-33.9-49.1-12.3-65 1.9-1.6 13.1-5.6 13.5-5.7z" clip-rule="evenodd" class="color23356e svgShape"></path><path fill="#6888f6" fill-rule="evenodd" d="m403.2 1198.6 4.5-14.6c-.9-5.2-5.3-10.9-11.3-6-6.4 7 3.4 17.5 6.8 20.6z" clip-rule="evenodd" class="colorf69668 svgShape"></path></g><g fill="#000000" class="color000000 svgShape"><g fill="#000000" class="color000000 svgShape"><g fill="#000000" class="color000000 svgShape"><path fill="#8d9fdc" fill-rule="evenodd" d="M1723.1 1733.9c-27.3-13.9-67-64.1-73.1-110.5-2-14.2-8.5-63.2 20-66.2 14.4 9.4 17.8 47.6 43.1 28.1 9.4-13.2-34.7-20.7-34.5-36.3 3-21.1 28-52.8 52.5-51.2 8.6 6.5 9.3 67.4 23.3 67 13.1-3.8-7.5-37.8-11.2-56.7-1.8-19.4 29.1-27.5 47.3-34.3-8.6 23.4-11.1 44.2-2.4 45.7 21.2 1.2-5.4-34.5 2.4-45.7 26.5-9.9 29.4-23.1 45.2-18.8 12.5 15.4 17.8 22.8 20.3 41.4 4.4 40.6-58.9 52-50.9 63.2 11 6 41.1-31.1 48.1-27.9 15.3 4.1 20.3 36.5 10.3 46.2-14.8 14.4-68.9 21.7-67.3 32.9 2 14 60.7-21.6 79.2-5.5 13.9 14.6 11.7 43.6 6.8 62.7-1.4 27.1-88.7-13.6-92.8-4.7 3.3 25.4 97.1 16 79.1 52.4-11.4 18.7-32.2 25.9-52.8 31.8-31.9 8.9-73.4-3.1-92.6-13.6zm112.5-113.2c-2.9-1.7-6.9-.4-8.7 2.9-1.9 3.2-1 7.3 2 9 3 1.7 6.9.4 8.8-2.9 1.8-3.2.9-7.3-2.1-9zm-79.2-17.1c2.2 10.1-11 2.7-13.3-2.5-4.1-5.8-8.6-15.1-4-21.6 8.9-.2 14.1 11.4 17.3 24.1zm-25.2 35.6c7.4-13.3-19.1-29.6-26.5-25.8-5.5 5.5 18.8 33.5 26.5 25.8zm51.5 51c5 2.7-2.8 5.6-5.8 4.7-3.9-.4-9.4-1.9-10.5-6.1 3.1-3.8 9.9-1.8 16.3 1.4zm36.2-125c-6.2-1.7-13.4 3.2-17.5 7.6 1.2 4.6 8 2.3 12.3 1.2 4.7-1 8.9-6.2 5.2-8.8z" clip-rule="evenodd" class="color8dafdc svgShape"></path></g></g><g fill="#000000" class="color000000 svgShape"><g fill="#000000" class="color000000 svgShape"><g fill="#000000" class="color000000 svgShape"><path fill="#647cce" d="M1701.8 1831.9c-1.5-.5-2.5-2-2.2-3.6 9.5-56.9 23.5-112.5 41.6-165.3 20.4-59.6 46.9-117.9 78.6-173.2.9-1.6 2.9-2.1 4.5-1.2 1.6.9 2.1 2.9 1.2 4.5-60.1 104.8-99.2 214.8-119.4 336.3-.3 1.8-2 3-3.8 2.7-.2-.1-.4-.1-.5-.2z" class="color6495ce svgShape"></path></g></g><g fill="#000000" class="color000000 svgShape"><g fill="#000000" class="color000000 svgShape"><path fill="#647cce" d="M1780.4 1574.4c-.6-.2-1.1-.5-1.5-1-8.6-10.4-14.1-21.8-16.4-33.8-2.2-11.2-1.6-23.1 1.6-35.3.5-1.7 2.2-2.8 4-2.3 1.7.5 2.8 2.2 2.3 4-6.2 23.5-1.6 44.8 13.6 63.3 1.1 1.4.9 3.4-.4 4.6-1 .6-2.2.8-3.2.5z" class="color6495ce svgShape"></path></g></g><g fill="#000000" class="color000000 svgShape"><g fill="#000000" class="color000000 svgShape"><path fill="#647cce" d="M1738.4 1681.7c-.1 0-.1 0-.2-.1-42.1-15.9-67.6-49.2-73.6-96.2-.2-1.8 1-3.4 2.8-3.7 1.8-.2 3.4 1 3.7 2.8 5.8 44.5 29.8 75.9 69.5 90.9 1.7.6 2.5 2.5 1.9 4.2-.7 1.8-2.5 2.6-4.1 2.1z" class="color6495ce svgShape"></path></g><g fill="#000000" class="color000000 svgShape"><path fill="#647cce" d="M1785.3 1645.1c-9.4-2.9-19.2-7.2-30-12.9-1.6-.8-2.2-2.8-1.4-4.4.8-1.6 2.8-2.2 4.4-1.4 37.4 19.8 66.1 22.2 99.1 8.4 1.7-.7 3.6.1 4.3 1.7.7 1.7-.1 3.6-1.7 4.3-18.7 7.8-36.5 10.7-54.2 8.6-6.6-.6-13.4-2.1-20.5-4.3z" class="color6495ce svgShape"></path></g></g><g fill="#000000" class="color000000 svgShape"><path fill="#647cce" d="M1755.5 1724.3c-10.7-3.3-19.6-8.2-27.2-13.2-1.5-1-1.9-3-.9-4.5 1-1.5 3-1.9 4.5-.9 21.2 13.9 52.9 26.9 109.9 3.6 1.7-.7 3.6.1 4.3 1.8.7 1.7-.1 3.6-1.8 4.3-39.7 16.1-67.8 15.5-88.8 8.9z" class="color6495ce svgShape"></path></g></g><g fill="#000000" class="color000000 svgShape"><g fill="#000000" class="color000000 svgShape"><path fill="#dfe3f3" fill-rule="evenodd" d="M1654.4 1745.6c-29.7 7.7-92.7-3.6-127.9-34.2-10.9-9.3-48.3-41.6-29-62.8 17-2.5 44.9 23.8 50.9-7.6-1.7-16.1-39.6 7.6-49.9-4.2-11.8-17.8-14.1-58.1 5.3-73.2 10.8-.8 51.7 44.4 61.9 34.7 7.3-11.5-30.7-23.3-46-35-14.2-13.4 3.5-39.9 12.7-57.1 9.1 23.3 21 40.4 28.5 35.8 16.6-13.1-26.9-22.2-28.5-35.8 13.2-25 6.7-36.8 21.3-44 19.5 3.3 28.4 5.2 42.7 17.6 30.2 27.5-9.7 78 3.8 81 12.2-2.8 10.2-50.5 17.5-52.7 14.2-7 39.5 13.8 38.4 27.7-1.5 20.6-37.2 62-28.5 69.2 10.8 9.2 31.1-56.4 55.6-56.6 20.1 1.7 37.7 24.9 46.7 42.4 16.9 21.2-75.4 48.6-72.5 58 19.3 16.8 83.3-52.4 93.9-13.2 3.9 21.6-6.8 40.8-18.4 58.9-18.1 27.6-57.1 46.2-78.5 51.1zm9.2-159.4c-3.3.7-5.4 4.3-4.6 8 .8 3.7 4.1 6.2 7.4 5.4 3.3-.7 5.4-4.3 4.7-7.9-.8-3.7-4.1-6.2-7.5-5.5zm-70.7 39.8c8.4 6.1-6.5 9.3-11.7 6.9-6.9-1.6-16.4-5.6-17.3-13.5 6.7-6 18.3-.9 29 6.6zm4.8 43.3c-3.2-14.9-33.9-9.5-37-1.7-.5 7.7 36.3 12.6 37 1.7zm72.3 4.1c5.6-1.3 1.6 6.1-1.3 7.3-3.1 2.3-8.3 4.9-11.9 2.4 0-4.9 6.3-7.9 13.2-9.7zm-55.7-117.7c-5.8 2.8-7.9 11.3-8.1 17.3 4 2.6 7.5-3.6 10-7.3 2.9-3.8 2.6-10.4-1.9-10z" clip-rule="evenodd" class="colordfe4f3 svgShape"></path></g></g><g fill="#000000" class="color000000 svgShape"><g fill="#000000" class="color000000 svgShape"><g fill="#000000" class="color000000 svgShape"><path fill="#8d9fdc" d="M1700.9 1834c-.9-.3-1.7-.9-2.2-1.7-30.6-48.8-57-99.8-78.5-151.4-24.2-58.2-43.1-119.4-56-181.9-.5-2.2 1-4.4 3.2-4.8 2.2-.5 4.4 1 4.8 3.2 24.5 118.3 68.2 226.5 133.5 330.6 1.2 1.9.6 4.4-1.3 5.6-1.1.6-2.4.7-3.5.4z" class="color8dafdc svgShape"></path></g></g><g fill="#000000" class="color000000 svgShape"><g fill="#000000" class="color000000 svgShape"><path fill="#8d9fdc" d="M1577.4 1586.4c-8.5-2.6-16.1-6.6-22.9-11.7-9.1-7-16.7-16.3-22.5-27.7-1-2-.2-4.5 1.8-5.5s4.5-.2 5.5 1.8c10.8 21.5 28.2 34.2 51.6 37.9 2.2.4 3.7 2.4 3.4 4.7-.4 2.2-2.4 3.7-4.7 3.4-4.2-.8-8.3-1.7-12.2-2.9z" class="color8dafdc svgShape"></path></g></g><g fill="#000000" class="color000000 svgShape"><g fill="#000000" class="color000000 svgShape"><path fill="#8d9fdc" d="M1557.7 1700.5c-16-5-31.5-13.9-46-26.6-1.7-1.5-1.9-4.1-.4-5.8 1.5-1.7 4.1-1.9 5.8-.4 33.6 29.3 72.2 36.8 111.5 21.8 2.1-.8 4.5.3 5.3 2.4.8 2.1-.3 4.5-2.4 5.3-25.3 9.6-50.2 10.7-73.8 3.3z" class="color8dafdc svgShape"></path></g></g><g fill="#000000" class="color000000 svgShape"><g fill="#000000" class="color000000 svgShape"><path fill="#8d9fdc" d="M1609.2 1648.8c-1.3-.4-2.4-1.5-2.7-2.9-.5-2.2.8-4.4 3-4.9 40.8-9.9 63.8-27 79.2-59 1-2 3.4-2.9 5.4-1.9 2 1 2.9 3.4 1.9 5.4-8.9 18.4-20.4 32.4-35.1 42.7-12.9 9-28.6 15.6-49.5 20.7-.8.2-1.5.1-2.2-.1z" class="color8dafdc svgShape"></path></g></g><g fill="#000000" class="color000000 svgShape"><g fill="#000000" class="color000000 svgShape"><path fill="#8d9fdc" d="M1641.6 1725.7c-1.5-.5-2.6-1.7-2.8-3.3-.3-2.2 1.2-4.3 3.4-4.6 24.9-3.6 57-14.8 84-69.7 1-2 3.4-2.9 5.5-1.9 2 1 2.9 3.4 1.9 5.5-13.1 26.5-28.2 45.4-46.2 57.7-16.5 11.3-32.2 14.7-44 16.4-.7.1-1.3 0-1.8-.1z" class="color8dafdc svgShape"></path></g></g></g></g><path fill="#15349d" fill-rule="evenodd" d="m1697.6 1864.6 27.8 38.2 27.8 38.3h-111.1l27.8-38.3z" clip-rule="evenodd" class="color15489d svgShape"></path><path fill="#3864fc" fill-rule="evenodd" d="M1844.1 1799.2c-6.1 71.1-69.3 126.9-146.5 126.9-77.1 0-140.4-55.9-146.5-126.9h293z" clip-rule="evenodd" class="color2c7efe svgShape"></path><path fill="#ffffff" fill-rule="evenodd" d="M1667 1914c-53.6-11.2-94.3-54.2-98.9-106.7h14.2c7 47.6 39.7 87.5 84.7 106.7z" clip-rule="evenodd" class="colorffffff svgShape"></path><g fill="#000000" class="color000000 svgShape"><path fill="#0d42f9" fill-rule="evenodd" d="M1475 1906.4c.1.4.1.9.1 1.3 0 20.6-75.1 37.3-167.7 37.3-92.7 0-167.8-16.6-167.8-37.3 0-.4.1-.9.2-1.3v-42c91.1.8 77.9 22.8 168.4 22.8s80.5-19.5 166.8-22.8v42z" clip-rule="evenodd" class="colorf9ce0d svgShape"></path><path fill="#2150f1" fill-rule="evenodd" d="M1475 1906.4c.1.4.1.9.1 1.3 0 18-57.4 33-133.6 36.4V1886c56.3-4.2 59.6-18.9 133.5-21.7v42.1z" clip-rule="evenodd" class="colorf19d21 svgShape"></path><path fill="#1649fa" fill-rule="evenodd" d="M1307.4 1900.2c92.4 0 167.7-16.7 167.7-37.3 0-20.5-75.3-37.2-167.7-37.2-92.4 0-167.8 16.6-167.8 37.2s75.4 37.3 167.8 37.3z" clip-rule="evenodd" class="colorfaec16 svgShape"></path><path fill="#0d42f9" fill-rule="evenodd" d="M1307.4 1892.8c86.2 0 156.4-13.4 156.4-29.8 0-16.3-70.2-29.7-156.4-29.7s-156.5 13.4-156.5 29.7c0 16.4 70.3 29.8 156.5 29.8z" clip-rule="evenodd" class="colorf9ce0d svgShape"></path><path fill="#1649fa" fill-rule="evenodd" d="M1307.4 1886.3c80.7 0 146.5-10.5 146.5-23.3s-65.8-23.2-146.5-23.2-146.5 10.5-146.5 23.2c0 12.8 65.8 23.3 146.5 23.3z" clip-rule="evenodd" class="colorfaec16 svgShape"></path><path fill="#2350ec" fill-rule="evenodd" d="M1363.9 1869.7c0 1.4-1.5 2.7-4.6 3.9-3 1.1-7.3 2.1-12.9 2.9-5.6.7-12.2 1.3-19.8 1.7-2.9.1-6 .3-9 .4v1.4c0 .3-1.5.6-3.3.6h-13.8c-1.8 0-3.3-.3-3.3-.6v-1.2c-4.3 0-8.2-.1-12.2-.2-5.1-.2-9.7-.4-13.8-.6-4.1-.3-7.5-.5-10.4-.8-2.8-.2-5-.4-6.2-.7-1.3-.2-2.3-.5-2.8-.8-.6-.4-.9-.9-.9-1.6 0-.4.1-.7.3-1l.9-.6c.3-.2.9-.3 1.5-.4.6-.1 1.3-.1 2.2-.1 1.2 0 3.1.2 5.7.4 2.6.3 5.8.6 9.4 1 3.7.3 8.1.6 13.2.9 5.1.3 11 .4 17.6.4 5 0 9.4-.1 13.4-.3 4.1-.2 7.5-.4 10.5-.8s5.3-.8 6.9-1.4c1.5-.6 2.3-1.2 2.3-2s-1.1-1.5-3.5-2c-2.3-.6-5.3-1-9-1.5-3.9-.4-8.1-.7-12.8-1.1-4.8-.3-9.6-.6-14.6-1-5-.3-9.9-.7-14.7-1.2-4.8-.4-9-1-12.8-1.6-3.8-.7-6.8-1.4-9.1-2.3-2.2-.9-3.5-2-3.5-3.3 0-1.1 1.2-2.1 3.7-3.1s6.1-1.9 10.9-2.7c5-.7 11.1-1.4 18.3-1.8 2.9-.2 6.2-.4 9.5-.5v-1.6c0-.3 1.5-.6 3.3-.6h13.8c1.8 0 3.3.3 3.3.6v1.4c2.7.1 5.5.1 8.2.2 4.3.1 8.1.3 11.6.5s6.4.4 8.7.6c2.4.2 4.4.4 5.6.6 1.2.2 2 .3 2.4.5.4.1.7.2.9.4.2.1.4.3.6.5.1.3.2.6.2.9 0 .3-.1.7-.2.9-.2.3-.5.5-.9.6-.5.2-.9.3-1.5.4-.6.1-1.3.1-1.9.1-1.1 0-2.6-.1-4.7-.3-2-.3-4.7-.5-7.8-.8-3.2-.2-7-.5-11.3-.7-4.4-.3-9.3-.4-14.9-.4-5 0-9.3.1-13.1.3-3.9.2-6.9.5-9.3.9-2.4.3-4.4.7-5.6 1.2s-1.8 1.1-1.8 1.7c0 .8 1.2 1.5 3.6 2 2.3.6 5.4 1 9.2 1.5 3.8.4 8.1.7 13 1.1 4.8.3 9.7.7 14.7 1 5.1.4 10 .8 14.9 1.2 5 .4 9.3 1 13.1 1.6 3.8.6 6.8 1.4 9.1 2.2 2.3.7 3.5 1.8 3.5 3.1z" clip-rule="evenodd" class="colorec8123 svgShape"></path><path fill="#0d42f9" fill-rule="evenodd" d="M1506.1 1848.8c.1.4.2.9.2 1.4 0 20.5-75.1 37.2-167.8 37.2-92.6 0-167.7-16.6-167.7-37.2 0-.5 0-1 .1-1.4v-42c91.1.8 78 22.8 168.5 22.8 90.4 0 80.4-19.5 166.7-22.8v42z" clip-rule="evenodd" class="colorf9ce0d svgShape"></path><path fill="#2150f1" fill-rule="evenodd" d="M1506.1 1848.8c.1.4.2.9.2 1.4 0 17.9-57.4 32.9-133.6 36.4v-58.2c56.2-4.2 59.5-18.9 133.4-21.7v42.1z" clip-rule="evenodd" class="colorf19d21 svgShape"></path><path fill="#1649fa" fill-rule="evenodd" d="M1338.5 1842.7c92.4 0 167.8-16.7 167.8-37.3 0-20.4-75.4-37.2-167.8-37.2s-167.7 16.7-167.7 37.2c0 20.5 75.3 37.3 167.7 37.3z" clip-rule="evenodd" class="colorfaec16 svgShape"></path><path fill="#0d42f9" fill-rule="evenodd" d="M1338.5 1835.2c86.2 0 156.5-13.4 156.5-29.8 0-16.3-70.3-29.7-156.5-29.7s-156.4 13.4-156.4 29.7c-.1 16.4 70.2 29.8 156.4 29.8z" clip-rule="evenodd" class="colorf9ce0d svgShape"></path><path fill="#1649fa" fill-rule="evenodd" d="M1338.5 1828.8c80.7 0 146.6-10.5 146.6-23.3s-65.9-23.2-146.6-23.2c-80.7 0-146.5 10.5-146.5 23.2 0 12.8 65.8 23.3 146.5 23.3z" clip-rule="evenodd" class="colorfaec16 svgShape"></path><path fill="#2350ec" fill-rule="evenodd" d="M1395 1812.1c0 1.4-1.5 2.7-4.5 3.9-3 1.1-7.3 2.1-12.9 2.9-5.6.7-12.2 1.3-19.9 1.7-2.8.2-5.9.3-9 .4v1.4c0 .3-1.4.6-3.3.6h-13.8c-1.8 0-3.3-.3-3.3-.6v-1.2c-4.2 0-8.2-.1-12.1-.2-5.2-.2-9.7-.4-13.9-.6-4.1-.2-7.5-.5-10.4-.7-2.8-.3-4.9-.5-6.2-.7-1.3-.2-2.2-.5-2.8-.9-.6-.4-.9-.9-.9-1.5 0-.4.2-.8.4-1 .2-.3.5-.5.8-.7.4-.2.9-.3 1.5-.4.7 0 1.4-.1 2.2-.1 1.3 0 3.2.2 5.8.5 2.5.2 5.7.5 9.4.9 3.7.3 8.1.6 13.2.9 5.1.3 10.9.4 17.5.4 5 0 9.4-.1 13.5-.3 4.1-.2 7.5-.4 10.5-.8 2.9-.4 5.2-.8 6.8-1.4 1.6-.6 2.4-1.2 2.4-2s-1.2-1.5-3.5-2c-2.3-.6-5.4-1-9.1-1.4-3.8-.5-8-.8-12.8-1.2-4.7-.3-9.5-.6-14.6-1-5-.3-9.8-.7-14.6-1.2-4.8-.4-9-1-12.9-1.6-3.8-.7-6.8-1.4-9-2.3-2.3-.9-3.5-2-3.5-3.3 0-1 1.2-2.1 3.7-3.1 2.3-1 6-1.9 10.9-2.7 4.9-.7 11-1.3 18.3-1.8 2.9-.2 6.1-.3 9.4-.5v-1.6c0-.3 1.5-.6 3.3-.6h13.8c1.9 0 3.3.3 3.3.6v1.4c2.7.1 5.6.1 8.3.2 4.3.1 8 .3 11.5.5s6.4.4 8.8.6c2.4.3 4.3.4 5.5.6 1.3.2 2.1.3 2.5.5.4.1.7.2.9.4.2.1.3.3.5.6.2.2.2.5.2.8 0 .4 0 .7-.2.9-.2.3-.5.5-.9.6-.4.2-.9.3-1.5.4-.6.1-1.2.1-1.9.1-1.1 0-2.6-.1-4.7-.3-2-.3-4.6-.5-7.8-.8-3.2-.2-7-.5-11.3-.7s-9.2-.4-14.8-.4c-5 0-9.4.1-13.2.3-3.8.2-6.9.5-9.3.9-2.4.3-4.3.8-5.5 1.3-1.2.5-1.8 1-1.8 1.6 0 .8 1.1 1.5 3.6 2 2.3.6 5.4 1.1 9.1 1.5 3.9.4 8.1.8 13 1.1 4.9.3 9.7.7 14.8 1 5 .4 9.9.8 14.9 1.2 4.9.5 9.2 1 13 1.6 3.9.6 6.9 1.4 9.1 2.3 2.4.7 3.5 1.8 3.5 3z" clip-rule="evenodd" class="colorec8123 svgShape"></path><path fill="#0d42f9" fill-rule="evenodd" d="M1477.2 1785.2c.1.5.2.9.2 1.4 0 20.5-75.1 37.2-167.8 37.2-92.6 0-167.7-16.6-167.7-37.2 0-.5 0-.9.1-1.4v-42c91.1.8 78 22.8 168.5 22.8 90.4 0 80.4-19.5 166.7-22.8v42z" clip-rule="evenodd" class="colorf9ce0d svgShape"></path><path fill="#2150f1" fill-rule="evenodd" d="M1477.2 1785.2c.1.5.2.9.2 1.4 0 18-57.4 32.9-133.6 36.4v-58.2c56.3-4.2 59.5-18.9 133.4-21.7v42.1z" clip-rule="evenodd" class="colorf19d21 svgShape"></path><path fill="#1649fa" fill-rule="evenodd" d="M1309.6 1779c92.4 0 167.8-16.7 167.8-37.2 0-20.5-75.4-37.3-167.8-37.3s-167.7 16.7-167.7 37.3c.1 20.5 75.4 37.2 167.7 37.2z" clip-rule="evenodd" class="colorfaec16 svgShape"></path><path fill="#0d42f9" fill-rule="evenodd" d="M1309.6 1771.6c86.2 0 156.5-13.4 156.5-29.7 0-16.4-70.3-29.8-156.5-29.8s-156.4 13.4-156.4 29.8c0 16.3 70.3 29.7 156.4 29.7z" clip-rule="evenodd" class="colorf9ce0d svgShape"></path><path fill="#1649fa" fill-rule="evenodd" d="M1309.6 1765.1c80.7 0 146.6-10.5 146.6-23.2 0-12.9-65.9-23.3-146.6-23.3-80.7 0-146.5 10.5-146.5 23.3.1 12.8 65.8 23.2 146.5 23.2z" clip-rule="evenodd" class="colorfaec16 svgShape"></path><path fill="#2350ec" fill-rule="evenodd" d="M1366.2 1748.5c0 1.4-1.5 2.7-4.5 3.9-3 1.2-7.3 2.1-12.9 2.9-5.6.7-12.2 1.3-19.9 1.7-2.8.2-5.9.3-9 .4v1.4c0 .3-1.4.6-3.2.6h-13.9c-1.8 0-3.3-.3-3.3-.6v-1.2c-4.2 0-8.2-.1-12.1-.2-5.2-.2-9.7-.4-13.9-.6-4.1-.2-7.5-.5-10.4-.7-2.8-.3-4.9-.5-6.2-.7-1.3-.2-2.2-.5-2.8-.9s-.9-.9-.9-1.5c0-.4.2-.8.4-1 .2-.3.5-.5.8-.7.4-.2.9-.3 1.5-.4.7 0 1.4-.1 2.2-.1 1.3 0 3.2.2 5.8.5 2.5.2 5.7.6 9.4.9 3.7.3 8.1.6 13.2.9 5.1.3 10.9.4 17.5.4 5 0 9.4-.1 13.5-.3 4.1-.1 7.5-.4 10.5-.8 2.9-.4 5.2-.8 6.9-1.4 1.5-.6 2.3-1.2 2.3-2s-1.2-1.5-3.5-2-5.4-1-9.1-1.4c-3.8-.5-8-.8-12.8-1.1-4.7-.4-9.5-.7-14.6-1.1-5-.3-9.8-.7-14.6-1.2-4.8-.4-9-1-12.9-1.6-3.8-.7-6.8-1.4-9-2.3-2.3-.9-3.5-2-3.5-3.2 0-1.1 1.2-2.2 3.7-3.2 2.3-1 6-1.9 10.9-2.7 4.9-.7 11-1.3 18.3-1.8 2.9-.2 6.1-.3 9.4-.4v-1.7c0-.3 1.5-.6 3.3-.6h13.9c1.8 0 3.2.3 3.2.6v1.4c2.7.1 5.6.1 8.3.2 4.3.1 8 .3 11.5.5s6.4.4 8.8.6c2.4.3 4.3.5 5.5.6 1.3.2 2.1.4 2.5.5.4.1.7.2.9.4.2.2.3.3.5.6.2.2.3.5.3.8 0 .4-.1.7-.3.9-.2.3-.5.5-.9.7-.4.1-.9.2-1.5.3-.6.1-1.2.1-1.9.1-1.1 0-2.6-.1-4.7-.3-2-.2-4.6-.5-7.8-.8-3.1-.2-6.9-.5-11.3-.7-4.3-.2-9.2-.3-14.8-.3-5 0-9.4.1-13.2.3-3.8.1-6.9.4-9.3.8-2.3.3-4.3.8-5.5 1.3-1.2.5-1.8 1-1.8 1.6 0 .8 1.2 1.5 3.6 2 2.3.6 5.4 1.1 9.2 1.5 3.8.4 8.1.8 12.9 1.1 4.9.3 9.7.7 14.8 1 5.1.4 9.9.8 14.9 1.2 4.9.5 9.2 1 13 1.6 3.9.6 6.9 1.4 9.1 2.3 2.4.6 3.5 1.7 3.5 3z" clip-rule="evenodd" class="colorec8123 svgShape"></path><path fill="#0d42f9" fill-rule="evenodd" d="M1474.3 1718.1c.1.4.2.9.2 1.4 0 20.5-75.1 37.2-167.8 37.2-92.6 0-167.7-16.6-167.7-37.2 0-.5 0-1 .1-1.4v-42c91.1.8 78 22.8 168.5 22.8 90.4 0 80.4-19.5 166.7-22.8v42z" clip-rule="evenodd" class="colorf9ce0d svgShape"></path><path fill="#2150f1" fill-rule="evenodd" d="M1474.3 1718.1c.1.4.2.9.2 1.4 0 17.9-57.4 32.9-133.6 36.4v-58.2c56.2-4.2 59.5-18.9 133.4-21.7v42.1z" clip-rule="evenodd" class="colorf19d21 svgShape"></path><path fill="#1649fa" fill-rule="evenodd" d="M1306.7 1711.9c92.4 0 167.8-16.7 167.8-37.3 0-20.4-75.4-37.2-167.8-37.2s-167.7 16.7-167.7 37.2c0 20.6 75.3 37.3 167.7 37.3z" clip-rule="evenodd" class="colorfaec16 svgShape"></path><path fill="#0d42f9" fill-rule="evenodd" d="M1306.7 1704.5c86.2 0 156.5-13.4 156.5-29.8 0-16.3-70.3-29.7-156.5-29.7s-156.4 13.4-156.4 29.7c0 16.4 70.2 29.8 156.4 29.8z" clip-rule="evenodd" class="colorf9ce0d svgShape"></path><path fill="#1649fa" fill-rule="evenodd" d="M1306.7 1698c80.7 0 146.6-10.5 146.6-23.3s-65.9-23.2-146.6-23.2c-80.7 0-146.5 10.5-146.5 23.2 0 12.9 65.8 23.3 146.5 23.3z" clip-rule="evenodd" class="colorfaec16 svgShape"></path><path fill="#2350ec" fill-rule="evenodd" d="M1363.2 1681.4c0 1.4-1.5 2.7-4.5 3.9-3 1.1-7.3 2.1-12.9 2.9-5.6.7-12.2 1.3-19.9 1.7-2.8.2-5.9.3-9 .4v1.4c0 .3-1.4.6-3.3.6h-13.8c-1.8 0-3.4-.3-3.4-.6v-1.2c-4.2 0-8.2-.1-12.1-.2-5.2-.2-9.7-.4-13.9-.6-4.1-.2-7.5-.5-10.4-.7-2.8-.3-4.9-.5-6.2-.7-1.3-.2-2.2-.5-2.8-.9-.6-.4-.9-.9-.9-1.5 0-.4.2-.8.4-1 .2-.3.5-.5.8-.7.4-.2.9-.3 1.5-.4.7 0 1.4-.1 2.2-.1 1.3 0 3.2.2 5.8.5 2.5.2 5.7.5 9.4.9 3.7.3 8.1.6 13.2.9 5.1.3 10.9.4 17.5.4 5 0 9.4-.1 13.5-.3 4.1-.2 7.5-.4 10.5-.8 2.9-.4 5.2-.8 6.8-1.4 1.6-.6 2.4-1.2 2.4-2s-1.2-1.5-3.5-2c-2.3-.6-5.4-1-9.1-1.4-3.8-.5-8-.8-12.8-1.2-4.7-.3-9.5-.6-14.6-1-5-.3-9.8-.7-14.6-1.2-4.8-.4-9-1-12.9-1.6-3.8-.7-6.8-1.4-9-2.3-2.3-.9-3.5-2-3.5-3.3 0-1 1.2-2.1 3.7-3.1 2.3-1 6-1.9 10.9-2.7 4.9-.7 11-1.3 18.3-1.8 2.9-.2 6.1-.3 9.4-.5v-1.6c0-.3 1.5-.6 3.4-.6h13.8c1.9 0 3.3.3 3.3.6v1.4c2.7.1 5.6.1 8.3.2 4.3.1 8 .3 11.5.5s6.4.4 8.8.6c2.4.3 4.3.4 5.5.6 1.3.2 2.1.4 2.5.5.4.1.7.2.9.4.2.1.3.3.5.6.2.2.3.5.3.8 0 .4-.1.7-.3.9-.2.3-.5.5-.9.6-.4.2-.9.3-1.5.4-.6.1-1.2.1-1.9.1-1.1 0-2.6-.1-4.7-.3-2-.3-4.6-.5-7.8-.8-3.1-.2-6.9-.5-11.3-.7-4.3-.2-9.2-.4-14.8-.4-5 0-9.4.1-13.2.3-3.8.2-6.9.5-9.3.9-2.3.3-4.3.8-5.5 1.3-1.2.5-1.8 1-1.8 1.6 0 .8 1.1 1.5 3.6 2 2.3.6 5.4 1.1 9.2 1.5 3.8.4 8.1.8 12.9 1.1 4.9.3 9.7.7 14.8 1 5 .4 9.9.8 14.9 1.2 4.9.5 9.2 1 13 1.6 3.9.6 6.9 1.4 9.1 2.3 2.4.6 3.5 1.7 3.5 3z" clip-rule="evenodd" class="colorec8123 svgShape"></path><path fill="#0d42f9" fill-rule="evenodd" d="M1505.4 1660.6c.1.5.1.9.1 1.4 0 20.5-75.1 37.2-167.7 37.2-92.7 0-167.7-16.6-167.7-37.2 0-.5 0-.9.1-1.4v-42c91.1.8 77.9 22.8 168.4 22.8s80.5-19.5 166.8-22.8v42z" clip-rule="evenodd" class="colorf9ce0d svgShape"></path><path fill="#2150f1" fill-rule="evenodd" d="M1505.4 1660.6c.1.5.1.9.1 1.4 0 18-57.2 32.9-133.6 36.4v-58.2c56.3-4.2 59.6-18.9 133.5-21.7v42.1z" clip-rule="evenodd" class="colorf19d21 svgShape"></path><path fill="#1649fa" fill-rule="evenodd" d="M1337.9 1654.4c92.4 0 167.7-16.7 167.7-37.2 0-20.5-75.3-37.3-167.7-37.3-92.4 0-167.7 16.7-167.7 37.3 0 20.4 75.3 37.2 167.7 37.2z" clip-rule="evenodd" class="colorfaec16 svgShape"></path><path fill="#0d42f9" fill-rule="evenodd" d="M1337.9 1647c86.2 0 156.4-13.4 156.4-29.7 0-16.4-70.2-29.8-156.4-29.8s-156.4 13.4-156.4 29.8c-.1 16.3 70.2 29.7 156.4 29.7z" clip-rule="evenodd" class="colorf9ce0d svgShape"></path><path fill="#1649fa" fill-rule="evenodd" d="M1337.9 1640.5c80.7 0 146.5-10.5 146.5-23.2 0-12.9-65.8-23.3-146.5-23.3s-146.5 10.5-146.5 23.3c0 12.7 65.8 23.2 146.5 23.2z" clip-rule="evenodd" class="colorfaec16 svgShape"></path><path fill="#2350ec" fill-rule="evenodd" d="M1394.4 1623.8c0 1.4-1.5 2.7-4.6 3.9-3 1.2-7.3 2.1-12.8 2.9-5.6.7-12.2 1.3-19.9 1.7-2.9.2-5.9.3-9 .4v1.4c0 .3-1.5.6-3.3.6H1331c-1.8 0-3.3-.3-3.3-.6v-1.2c-4.2 0-8.2-.1-12.1-.2-5.2-.2-9.8-.4-13.9-.6s-7.5-.5-10.4-.7c-2.8-.3-5-.5-6.2-.7-1.3-.2-2.3-.5-2.8-.9-.6-.4-.9-.9-.9-1.5 0-.4.1-.8.3-1 .3-.3.6-.5.9-.7.3-.2.9-.3 1.5-.4.6 0 1.3-.1 2.2-.1 1.2 0 3.1.2 5.8.5 2.5.2 5.7.6 9.3.9 3.8.3 8.1.6 13.2.9 5.1.3 11 .4 17.6.4 5 0 9.4-.1 13.4-.3 4.1-.1 7.5-.4 10.6-.8 2.9-.4 5.2-.8 6.8-1.4 1.6-.6 2.3-1.2 2.3-2s-1.1-1.5-3.5-2c-2.2-.5-5.3-1-9-1.4-3.9-.5-8.1-.8-12.8-1.1-4.8-.4-9.6-.7-14.6-1.1-5-.3-9.8-.7-14.7-1.2-4.8-.4-9-1-12.8-1.6-3.8-.7-6.8-1.4-9.1-2.3-2.2-.9-3.5-2-3.5-3.2 0-1.1 1.2-2.2 3.7-3.2 2.4-1 6.1-1.9 11-2.7 4.9-.7 11-1.3 18.2-1.8 2.9-.2 6.2-.3 9.5-.4v-1.7c0-.3 1.5-.6 3.3-.6h13.8c1.8 0 3.3.3 3.3.6v1.4c2.7.1 5.5.1 8.3.2 4.2.1 8 .3 11.5.5s6.4.4 8.8.6c2.3.3 4.3.5 5.5.6 1.2.2 2 .4 2.4.5.5.1.8.2.9.4.2.2.4.3.6.6.1.2.2.5.2.8 0 .4-.1.7-.2.9-.2.3-.5.5-.9.7-.4.1-.9.2-1.5.3-.6.1-1.3.1-1.9.1-1.1 0-2.6-.1-4.7-.3-2-.2-4.7-.5-7.8-.8-3.2-.2-7-.5-11.3-.7-4.4-.2-9.3-.3-14.9-.3-5 0-9.3 0-13.1.3-3.9.1-6.9.4-9.3.8-2.4.3-4.3.8-5.5 1.3-1.3.5-1.9 1-1.9 1.6 0 .8 1.2 1.5 3.6 2 2.4.6 5.4 1.1 9.2 1.5 3.8.4 8.1.8 13 1.1 4.9.3 9.7.7 14.7 1 5.1.4 10 .8 14.9 1.2 5 .5 9.3 1 13.1 1.6 3.8.6 6.8 1.4 9.1 2.3 2.4.7 3.5 1.8 3.5 3z" clip-rule="evenodd" class="colorec8123 svgShape"></path><path fill="#0d42f9" fill-rule="evenodd" d="M1476.6 1596.9c.1.5.1.9.1 1.4 0 20.5-75 37.2-167.7 37.2-92.7 0-167.7-16.6-167.7-37.2 0-.5 0-.9.1-1.4v-42c91.1.8 77.9 22.8 168.4 22.8s80.5-19.5 166.8-22.8v42z" clip-rule="evenodd" class="colorf9ce0d svgShape"></path><path fill="#2150f1" fill-rule="evenodd" d="M1476.6 1596.9c.1.5.1.9.1 1.4 0 18-57.2 32.9-133.6 36.4v-58.2c56.3-4.2 59.6-18.9 133.5-21.7v42.1z" clip-rule="evenodd" class="colorf19d21 svgShape"></path><path fill="#1649fa" fill-rule="evenodd" d="M1309 1590.7c92.4 0 167.7-16.6 167.7-37.2 0-20.5-75.3-37.3-167.7-37.3-92.4 0-167.7 16.7-167.7 37.3 0 20.6 75.4 37.2 167.7 37.2z" clip-rule="evenodd" class="colorfaec16 svgShape"></path><path fill="#0d42f9" fill-rule="evenodd" d="M1309 1583.3c86.2 0 156.4-13.4 156.4-29.7 0-16.4-70.2-29.8-156.4-29.8s-156.4 13.4-156.4 29.8c0 16.3 70.3 29.7 156.4 29.7z" clip-rule="evenodd" class="colorf9ce0d svgShape"></path><path fill="#1649fa" fill-rule="evenodd" d="M1309 1576.8c80.7 0 146.5-10.5 146.5-23.2 0-12.9-65.8-23.3-146.5-23.3s-146.5 10.5-146.5 23.3c.1 12.8 65.8 23.2 146.5 23.2z" clip-rule="evenodd" class="colorfaec16 svgShape"></path><path fill="#2350ec" fill-rule="evenodd" d="M1365.6 1560.2c0 1.4-1.5 2.7-4.6 4-3 1.1-7.2 2-12.8 2.8-5.6.8-12.2 1.3-19.9 1.7-2.9.2-5.9.3-9 .4v1.4c0 .3-1.5.6-3.3.6h-13.8c-1.8 0-3.3-.3-3.3-.6v-1.2c-4.2 0-8.2-.1-12.1-.2-5.2-.1-9.7-.3-13.9-.6-4.1-.2-7.5-.5-10.4-.7-2.8-.3-4.9-.5-6.2-.7-1.3-.2-2.3-.5-2.8-.9-.6-.4-.9-.9-.9-1.5 0-.4.1-.8.4-1 .2-.3.5-.5.8-.7.3-.1.9-.3 1.5-.3.6-.1 1.4-.1 2.2-.1 1.2 0 3.2.1 5.8.4 2.5.3 5.7.6 9.3.9 3.8.3 8.1.6 13.2.9 5.1.3 11 .4 17.6.4 5 0 9.4-.1 13.4-.2 4.1-.2 7.5-.5 10.6-.9 2.9-.3 5.2-.8 6.8-1.4 1.6-.5 2.3-1.2 2.3-2s-1.1-1.5-3.5-2c-2.2-.5-5.3-1-9-1.4-3.9-.4-8.1-.8-12.8-1.1-4.8-.4-9.5-.7-14.6-1-5-.4-9.8-.8-14.7-1.3-4.8-.4-8.9-.9-12.8-1.6-3.8-.6-6.8-1.4-9.1-2.3-2.2-.9-3.5-2-3.5-3.2 0-1.1 1.2-2.2 3.7-3.2 2.4-1 6.1-1.9 11-2.6 4.9-.8 11-1.4 18.2-1.9 3-.2 6.2-.3 9.5-.4v-1.7c0-.3 1.5-.5 3.3-.5h13.8c1.8 0 3.3.2 3.3.5v1.5c2.7 0 5.5 0 8.3.1 4.2.2 8 .3 11.5.5s6.4.4 8.8.6c2.3.3 4.3.5 5.5.7 1.2.1 2 .3 2.4.4.5.1.8.3.9.4l.6.6c.2.2.2.5.2.8 0 .4 0 .7-.2.9-.2.3-.5.5-.9.7-.4.1-.9.3-1.5.3-.6.1-1.3.1-1.9.1-1.1 0-2.6-.1-4.7-.3-2-.2-4.7-.5-7.8-.7-3.2-.3-7-.6-11.3-.8-4.4-.2-9.3-.3-14.9-.3-4.9 0-9.3.1-13.1.3-3.9.2-6.9.4-9.3.8-2.4.4-4.3.8-5.5 1.3-1.3.5-1.9 1-1.9 1.6 0 .8 1.2 1.5 3.6 2 2.4.6 5.5 1.1 9.2 1.5 3.8.4 8.1.8 13 1.1 4.9.4 9.7.7 14.8 1 5 .4 9.9.8 14.8 1.2 5 .5 9.3 1 13.1 1.6 3.8.7 6.8 1.4 9.1 2.3 2.4.7 3.5 1.7 3.5 3z" clip-rule="evenodd" class="colorec8123 svgShape"></path><path fill="#ffffff" fill-rule="evenodd" d="M1402 1676.6l2.2 36.9 37 2.4-37 2.2-2.2 37-2.2-37-37-2.2 37-2.4zM1253.5 1831.6l2.2 36.9 37 2.3-37 2.2-2.2 37-2.3-37-37-2.2 37-2.3zM1231.2 1604.8l2.2 37 37 2.2-37 2.2-2.2 37-2.3-37-36.9-2.2 36.9-2.2z" clip-rule="evenodd" class="colorffffff svgShape"></path></g><g fill="#000000" class="color000000 svgShape"><path fill="#0d42f9" fill-rule="evenodd" d="M1169 1906.3c.1.5.1 1 .1 1.4 0 20.6-75 37.3-167.7 37.3-92.7 0-167.7-16.6-167.7-37.3 0-.4 0-.9.1-1.4v-41.9c91 .7 77.9 22.7 168.4 22.7s80.5-19.4 166.8-22.7v41.9z" clip-rule="evenodd" class="colorf9ce0d svgShape"></path><path fill="#2150f1" fill-rule="evenodd" d="M1169 1906.3c.1.5.1 1 .1 1.4 0 18-57.2 33-133.6 36.4V1886c56.3-4.2 59.6-18.9 133.5-21.7v42z" clip-rule="evenodd" class="colorf19d21 svgShape"></path><path fill="#1649fa" fill-rule="evenodd" d="M1001.4 1900.2c92.4 0 167.7-16.7 167.7-37.3 0-20.5-75.3-37.3-167.7-37.3s-167.7 16.7-167.7 37.3c0 20.6 75.3 37.3 167.7 37.3z" clip-rule="evenodd" class="colorfaec16 svgShape"></path><path fill="#0d42f9" fill-rule="evenodd" d="M1001.4 1892.8c86.2 0 156.4-13.4 156.4-29.8s-70.2-29.7-156.4-29.7S845 1846.6 845 1863s70.2 29.8 156.4 29.8z" clip-rule="evenodd" class="colorf9ce0d svgShape"></path><path fill="#1649fa" fill-rule="evenodd" d="M1001.4 1886.2c80.7 0 146.5-10.5 146.5-23.2 0-12.8-65.8-23.2-146.5-23.2s-146.5 10.5-146.5 23.2 65.8 23.2 146.5 23.2z" clip-rule="evenodd" class="colorfaec16 svgShape"></path><path fill="#2350ec" fill-rule="evenodd" d="M1057.9 1869.6c0 1.5-1.5 2.8-4.6 4-3 1.1-7.2 2.1-12.8 2.8-5.6.8-12.2 1.4-19.9 1.8-2.9.1-5.9.2-9 .3v1.4c0 .4-1.5.6-3.3.6h-13.8c-1.8 0-3.3-.2-3.3-.6v-1.1c-4.2-.1-8.2-.1-12.1-.3-5.2-.1-9.7-.3-13.9-.6-4.1-.2-7.5-.4-10.4-.7-2.8-.2-4.9-.5-6.2-.7-1.3-.2-2.3-.5-2.8-.9-.6-.3-.9-.8-.9-1.5 0-.4.1-.7.4-1 .2-.3.5-.5.8-.6.4-.2.9-.3 1.5-.4.6-.1 1.4-.1 2.2-.1 1.3 0 3.2.1 5.8.4 2.5.3 5.7.6 9.3.9 3.8.4 8.1.7 13.2.9 5.1.3 11 .5 17.6.5 5 0 9.4-.1 13.4-.3 4.1-.2 7.5-.5 10.6-.8 2.9-.4 5.2-.9 6.8-1.4 1.6-.6 2.3-1.3 2.3-2.1 0-.7-1.1-1.4-3.5-2-2.2-.5-5.3-1-9-1.4-3.9-.4-8.1-.8-12.8-1.1-4.8-.3-9.5-.7-14.6-1-5-.4-9.8-.8-14.6-1.2-4.9-.5-9-1-12.9-1.7-3.8-.6-6.8-1.4-9.1-2.3-2.2-.9-3.5-1.9-3.5-3.2 0-1.1 1.2-2.1 3.7-3.2 2.4-1 6.1-1.9 11-2.6 4.9-.8 11-1.4 18.2-1.9 3-.1 6.2-.3 9.5-.4v-1.6c0-.4 1.5-.6 3.3-.6h13.8c1.8 0 3.3.2 3.3.6v1.4c2.7 0 5.5.1 8.3.2 4.2.1 8 .3 11.5.4 3.5.2 6.4.5 8.8.7 2.4.2 4.3.4 5.5.6 1.3.2 2 .3 2.4.4.5.2.8.3.9.5.2.1.4.3.6.5.2.2.2.5.2.9 0 .3 0 .6-.2.9-.2.2-.5.4-.9.6-.4.2-.9.3-1.5.4-.6 0-1.3.1-1.9.1-1.1 0-2.6-.1-4.7-.4-2-.2-4.7-.4-7.8-.7-3.2-.3-7-.5-11.3-.8-4.4-.2-9.3-.3-14.8-.3-5 0-9.4.1-13.2.3-3.9.2-6.9.5-9.3.8-2.4.4-4.3.8-5.5 1.3-1.3.5-1.9 1.1-1.9 1.6 0 .8 1.2 1.5 3.6 2.1 2.4.5 5.5 1 9.2 1.4 3.8.4 8.1.8 13 1.2 4.9.3 9.7.6 14.8 1 5 .3 9.9.7 14.8 1.2 5 .4 9.3.9 13.1 1.6 3.8.6 6.8 1.3 9.1 2.2 2.4.7 3.5 1.7 3.5 3z" clip-rule="evenodd" class="colorec8123 svgShape"></path><path fill="#0d42f9" fill-rule="evenodd" d="M1200.1 1848.8c0 .4.1.9.1 1.3 0 20.6-75.1 37.3-167.7 37.3-92.7 0-167.8-16.6-167.8-37.3 0-.4.1-.9.1-1.3v-42c91 .7 78 22.7 168.5 22.7s80.5-19.4 166.8-22.7v42z" clip-rule="evenodd" class="colorf9ce0d svgShape"></path><path fill="#2150f1" fill-rule="evenodd" d="M1200.1 1848.8c0 .4.1.9.1 1.3 0 18-57.4 33-133.6 36.4v-58.1c56.3-4.2 59.5-18.9 133.5-21.7v42.1z" clip-rule="evenodd" class="colorf19d21 svgShape"></path><path fill="#1649fa" fill-rule="evenodd" d="M1032.5 1842.7c92.4 0 167.7-16.7 167.7-37.3 0-20.5-75.3-37.2-167.7-37.2-92.5 0-167.8 16.6-167.8 37.2 0 20.5 75.4 37.3 167.8 37.3z" clip-rule="evenodd" class="colorfaec16 svgShape"></path><path fill="#0d42f9" fill-rule="evenodd" d="M1032.5 1835.2c86.1 0 156.4-13.4 156.4-29.8s-70.3-29.7-156.4-29.7c-86.2 0-156.5 13.3-156.5 29.7s70.4 29.8 156.5 29.8z" clip-rule="evenodd" class="colorf9ce0d svgShape"></path><path fill="#1649fa" fill-rule="evenodd" d="M1032.5 1828.6c80.6 0 146.5-10.5 146.5-23.2 0-12.8-65.9-23.2-146.5-23.2-80.7 0-146.6 10.5-146.6 23.2.1 12.8 65.9 23.2 146.6 23.2z" clip-rule="evenodd" class="colorfaec16 svgShape"></path><path fill="#2350ec" fill-rule="evenodd" d="M1089.1 1812c0 1.5-1.5 2.8-4.6 4-3 1.1-7.3 2.1-12.9 2.8-5.6.8-12.2 1.4-19.9 1.8-2.8.1-5.9.3-8.9.3v1.4c0 .4-1.5.6-3.3.6h-13.9c-1.8 0-3.2-.2-3.2-.6v-1.1c-4.3-.1-8.2-.1-12.2-.3-5.1-.1-9.7-.3-13.8-.5-4.1-.3-7.5-.5-10.5-.8-2.8-.2-4.9-.5-6.1-.7-1.4-.2-2.3-.5-2.8-.8-.6-.4-.9-.9-.9-1.6 0-.4.1-.7.3-1 .3-.3.6-.5.9-.6.3-.2.8-.3 1.4-.4.7-.1 1.4-.1 2.3-.1 1.2 0 3.1.1 5.7.4 2.5.3 5.7.6 9.4.9 3.7.4 8.1.7 13.2 1 5.1.2 10.9.4 17.5.4 5 0 9.5-.1 13.5-.3 4.1-.2 7.5-.5 10.5-.8 2.9-.4 5.3-.9 6.9-1.4 1.5-.6 2.3-1.3 2.3-2 0-.8-1.1-1.5-3.5-2-2.3-.6-5.4-1.1-9.1-1.5-3.8-.4-8-.8-12.8-1.1-4.7-.3-9.5-.7-14.5-1-5-.4-9.9-.8-14.7-1.2-4.8-.5-9-1-12.8-1.6-3.8-.7-6.8-1.5-9.1-2.4-2.3-.9-3.5-1.9-3.5-3.2 0-1.1 1.2-2.1 3.7-3.1 2.4-1.1 6-1.9 10.9-2.7 5-.8 11-1.4 18.3-1.8 2.9-.2 6.1-.4 9.5-.5v-1.6c0-.3 1.4-.6 3.2-.6h13.9c1.8 0 3.3.3 3.3.6v1.4c2.7 0 5.5.1 8.2.2 4.3.1 8.1.3 11.6.5s6.3.4 8.7.6c2.4.2 4.4.4 5.6.6 1.2.2 2 .3 2.4.4.4.2.7.3.9.5.2.1.4.3.5.5.2.3.3.5.3.9 0 .3-.1.6-.3.9-.1.2-.4.5-.9.6-.4.2-.9.3-1.5.4-.6.1-1.2.1-1.9.1-1 0-2.5-.1-4.7-.4-1.9-.2-4.6-.4-7.8-.7-3.1-.3-6.9-.5-11.3-.7-4.3-.3-9.2-.4-14.8-.4-5 0-9.3.1-13.1.3-3.9.2-7 .5-9.3.8-2.4.4-4.4.8-5.6 1.3-1.2.5-1.8 1.1-1.8 1.6 0 .8 1.2 1.5 3.6 2.1 2.3.5 5.4 1 9.2 1.4 3.8.5 8.1.8 12.9 1.2 4.9.3 9.8.6 14.8 1 5.1.4 10 .7 14.9 1.2 4.9.4 9.2 1 13 1.6 3.9.6 6.9 1.3 9.1 2.2 2.4.8 3.6 1.8 3.6 3z" clip-rule="evenodd" class="colorec8123 svgShape"></path><path fill="#0d42f9" fill-rule="evenodd" d="M1171.3 1785.2c0 .4.1.9.1 1.3 0 20.6-75.1 37.3-167.7 37.3-92.7 0-167.8-16.6-167.8-37.3 0-.4.1-.9.1-1.3v-42c91 .8 78 22.8 168.5 22.8s80.5-19.5 166.8-22.8v42z" clip-rule="evenodd" class="colorf9ce0d svgShape"></path><path fill="#2150f1" fill-rule="evenodd" d="M1171.3 1785.2c0 .4.1.9.1 1.3 0 18-57.4 33-133.6 36.4v-58.1c56.3-4.2 59.6-18.9 133.5-21.7v42.1z" clip-rule="evenodd" class="colorf19d21 svgShape"></path><path fill="#1649fa" fill-rule="evenodd" d="M1003.7 1779c92.4 0 167.7-16.7 167.7-37.3 0-20.5-75.3-37.2-167.7-37.2s-167.8 16.6-167.8 37.2 75.4 37.3 167.8 37.3z" clip-rule="evenodd" class="colorfaec16 svgShape"></path><path fill="#0d42f9" fill-rule="evenodd" d="M1003.7 1771.6c86.2 0 156.4-13.4 156.4-29.8 0-16.3-70.2-29.7-156.4-29.7s-156.5 13.4-156.5 29.7c0 16.4 70.3 29.8 156.5 29.8z" clip-rule="evenodd" class="colorf9ce0d svgShape"></path><path fill="#1649fa" fill-rule="evenodd" d="M1003.7 1765.1c80.6 0 146.5-10.5 146.5-23.3s-65.9-23.2-146.5-23.2c-80.7 0-146.6 10.5-146.6 23.2 0 12.9 65.9 23.3 146.6 23.3z" clip-rule="evenodd" class="colorfaec16 svgShape"></path><path fill="#2350ec" fill-rule="evenodd" d="M1060.2 1748.5c0 1.4-1.5 2.7-4.6 3.9-3 1.1-7.3 2.1-12.9 2.8-5.6.8-12.2 1.4-19.9 1.8-2.8.1-5.9.3-8.9.4v1.4c0 .3-1.5.5-3.3.5h-13.9c-1.8 0-3.2-.2-3.2-.5v-1.2c-4.3-.1-8.2-.1-12.2-.2-5.1-.2-9.7-.4-13.8-.6-4.1-.3-7.5-.5-10.4-.8-2.9-.2-5-.5-6.2-.7-1.3-.2-2.3-.5-2.8-.8-.6-.4-.9-.9-.9-1.6 0-.4.1-.7.3-1 .3-.2.6-.5.9-.6.3-.2.9-.3 1.4-.4.7-.1 1.4-.1 2.3-.1 1.2 0 3.1.1 5.7.4 2.5.3 5.7.6 9.4 1 3.7.3 8.1.6 13.2.9 5.1.3 10.9.4 17.5.4 5 0 9.5-.1 13.5-.3 4.1-.2 7.5-.5 10.5-.8 3-.4 5.3-.9 6.9-1.4 1.5-.6 2.3-1.3 2.3-2 0-.8-1.1-1.5-3.5-2-2.3-.6-5.4-1.1-9.1-1.5-3.8-.4-8-.8-12.8-1.1-4.7-.3-9.5-.6-14.5-1s-9.9-.7-14.7-1.2c-4.8-.4-9-1-12.8-1.6-3.8-.7-6.8-1.5-9.1-2.4-2.3-.8-3.5-1.9-3.5-3.2 0-1.1 1.2-2.1 3.7-3.1 2.4-1 6.1-1.9 10.9-2.7 5-.7 11-1.4 18.3-1.8 2.9-.2 6.1-.4 9.5-.5v-1.6c0-.3 1.4-.6 3.2-.6h13.9c1.8 0 3.3.3 3.3.6v1.4c2.7 0 5.5.1 8.2.2 4.3.1 8.1.3 11.6.5s6.3.4 8.7.6c2.4.2 4.4.4 5.6.6 1.2.2 2 .3 2.4.4.4.2.7.3.9.5.2.1.4.3.5.5.2.3.3.6.3.9 0 .3-.1.6-.3.9-.1.3-.4.5-.9.6-.4.2-.9.3-1.4.4-.6.1-1.3.1-2 .1-1 0-2.5-.1-4.7-.4-1.9-.2-4.6-.4-7.8-.7-3.1-.3-6.9-.5-11.3-.7-4.3-.3-9.2-.4-14.8-.4-5 0-9.3.1-13.1.3-3.9.2-6.9.5-9.3.9-2.4.3-4.4.7-5.6 1.2-1.2.5-1.8 1.1-1.8 1.7 0 .8 1.2 1.4 3.6 2 2.3.6 5.4 1 9.2 1.4 3.8.5 8.1.8 13 1.2 4.8.3 9.7.7 14.7 1 5.1.4 10 .8 14.9 1.2 4.9.4 9.2 1 13 1.6 3.9.6 6.9 1.4 9.2 2.2 2.3.7 3.5 1.8 3.5 3.1z" clip-rule="evenodd" class="colorec8123 svgShape"></path><path fill="#ffffff" fill-rule="evenodd" d="m1064.4 1794.4 2.2 37 37 2.2-37 2.3-2.2 36.9-2.2-36.9-37-2.3 37-2.2z" clip-rule="evenodd" class="colorffffff svgShape"></path></g><path fill="#0e35ba" fill-rule="evenodd" d="M1109.4 1940.9c.7-3.8 1.7-7.5 3-11.1 1.4 8 2.3 16.2 2.6 24.4-1.6-4.5-3.5-8.9-5.6-13.3zm-893.5 0c.9-3.8 1.8-7.5 3-11.1 1.4 8 2.3 16.2 2.7 24.4-1.6-4.5-3.4-8.9-5.7-13.3zm460 0c.9-3.8 1.8-7.5 3-11.1 1.4 8 2.3 16.2 2.7 24.4-1.6-4.5-3.4-8.9-5.7-13.3zm220.8 0c-.7-3.8-1.7-7.5-3-11.1-1.4 8-2.3 16.2-2.6 24.4 1.5-4.5 3.3-8.9 5.6-13.3zm-13.4-33.6c-3.1-5.1-6.8-10.4-11.2-15.5-3 9.1-5.1 18.1-6.7 27.4 2.6 4.5 4.8 9.2 6.7 14 3.2-8.8 6.8-17.4 11.2-25.9zm-10.7-16.7c4.8 3.8 9.2 7.9 13.2 12.1 4.3-7.6 8.9-14.9 14.5-22-2.3-2.8-4.5-5.6-7.1-8.2 3 2 5.8 4.2 8.4 6.4 8.1-10.1 17.6-19.8 28.8-28.4 2.6-4.5 5.3-9.1 8.2-13.6-1.4 3.5-2.7 6.9-3.8 10.2.4-.3.7-.4 1-.7-.4.4-.7.9-1.1 1.3-7 20.5-9.8 39.2-9.5 56.8 4.3 6 7.8 12.1 10.9 18.3 2.7-13.8 7-27.7 13.2-41.3-2.4-2.9-5-6-7.8-9.1 3.1 2.2 6.1 4.5 8.9 6.9 3.5-7.5 7.7-14.8 12.6-22-3-3.7-6-7.3-9.4-11 3.8 2.8 7.5 5.7 11.1 8.6 4-5.6 8.2-11 13.2-16.4-3.8 6.6-7.2 12.9-9.9 19.2 5.1 4.7 9.9 9.5 14.3 14.3 4.7-7.2 10.1-14.2 15.9-21.1-6-9.5-13.1-19.2-21.6-29 9.9 7.5 18.6 15.4 26.4 23.7 7.8-8.3 16.6-16.2 26.5-23.7-8.5 9.8-15.6 19.5-21.7 29 6 6.9 11.4 13.9 16 21.1 4.4-4.8 9.2-9.7 14.3-14.3-2.8-6.3-6.1-12.6-9.9-19.2 4.8 5.4 9.2 10.8 13.2 16.4 3.5-2.9 7.2-5.9 11.1-8.6-3.4 3.7-6.5 7.3-9.4 11 5 7.2 9.1 14.5 12.6 22 2.8-2.3 5.8-4.7 8.9-6.9-2.8 3.1-5.4 6.1-7.8 9.1 6.2 13.6 10.5 27.5 13.2 41.3 3.1-6.1 6.7-12.3 10.9-18.3.3-17.6-2.6-36.3-9.5-56.8-.4-.4-.9-.9-1.1-1.3.3.3.6.4 1 .7-1.3-3.4-2.6-6.7-3.8-10.2 3 4.5 5.7 9.1 8.2 13.6 11.2 8.6 20.7 18.3 28.7 28.4 2.7-2.2 5.5-4.4 8.5-6.4-2.6 2.6-5 5.4-7.1 8.2 5.5 7 10.2 14.3 14.3 22 4-4.2 8.4-8.3 13.3-12.1-7.7-22.7-20.1-45.4-40.2-68.3 28.8 21.7 48.2 47.9 61.4 75.4 3.1-3.8 6.4-7.5 9.9-11.1-3.7-15.2-9.9-31-19.7-47.7 11.8 13 20.7 26.6 27.5 40.7 2.8-2.3 5.7-4.7 8.8-6.9-2.7 3.1-5.4 6.1-7.8 9.1 6.4 13.6 10.5 27.5 13.2 41.3 3.1-6.1 6.8-12.3 10.9-18.3v-1c-3.5-5.4-7.8-10.8-12.6-16.4 4.5 3.4 8.8 6.9 12.6 10.5-.6-18.7-4.5-38.8-13.5-60.7 11.9 17.9 19.7 36.1 24.3 54.3 3-3.2 6.1-6.3 9.4-9.4-2.4-3.1-5.1-6.3-7.9-9.4 3.5 2.5 6.8 5 9.9 7.8 3-2.8 6.4-5.3 9.8-7.8-2.8 3.1-5.5 6.3-7.9 9.4 3.4 3.1 6.5 6.1 9.4 9.4 4.7-18.1 12.3-36.4 24.3-54.3-8.8 21.9-12.9 42-13.5 60.7 4-3.7 8.1-7.2 12.8-10.5-5 5.6-9.2 11-12.8 16.4v1c4.3 6 7.8 12.1 10.9 18.3 2.7-13.8 6.8-27.7 13.2-41.3-2.4-2.9-5-6-7.8-9.1 3.1 2.2 6.1 4.5 8.8 6.9 6.8-14 15.7-27.7 27.7-40.7-9.9 16.7-16.2 32.5-19.9 47.7 3.5 3.7 7 7.3 9.9 11.1 13.2-27.5 32.6-53.7 61.6-75.4-20 23-32.6 45.7-40.2 68.3 4.8 3.8 9.2 7.9 13.2 12.1 4.1-7.6 8.9-14.9 14.3-22-2.1-2.8-4.5-5.6-7-8.2 2.8 2 5.7 4.2 8.4 6.4 7.9-10.1 17.5-19.8 28.8-28.4 2.4-4.5 5.3-9.1 8.2-13.6-1.4 3.5-2.7 6.9-3.8 10.2.3-.3.6-.4 1-.7l-1.3 1.3c-7 20.5-9.6 39.2-9.4 56.8 4.1 6 7.8 12.1 10.9 18.3 2.6-13.8 6.8-27.7 13.1-41.3-2.4-2.9-5-6-7.7-9.1 3 2.2 6 4.5 8.8 6.9 6.7-14 15.7-27.7 27.5-40.7-9.8 16.7-16.2 32.5-19.7 47.7 3.5 3.7 6.8 7.3 9.9 11.1 6.2-13 13.8-25.8 23.3-37.9-3.4-4.4-7.1-8.8-11.1-13.2 4.7 3.4 9.1 6.9 13.2 10.5 6.1-7.6 12.9-14.9 20.4-21.8-3.3-4.4-6.8-8.6-10.6-13 4.7 3.5 8.9 7 13.2 10.7 4.1-3.7 8.5-7.2 13.1-10.7-3.8 4.4-7.2 8.6-10.5 13 7.5 6.9 14.2 14.2 20.3 21.8 4.1-3.7 8.5-7.2 13.2-10.5-4 4.4-7.7 8.8-11.1 13.2 9.5 12.1 17.2 24.9 23.4 37.9 3-3.8 6.2-7.5 9.9-11.1-3.7-15.2-10.1-31-19.9-47.7 11.9 13 20.9 26.6 27.5 40.7 2.8-2.3 5.8-4.7 8.9-6.9-2.8 3.1-5.4 6.1-7.8 9.1 6.2 13.6 10.5 27.5 13.2 41.3 3.1-6.1 6.7-12.3 10.9-18.3.3-17.6-2.6-36.3-9.5-56.8-.4-.4-.9-.9-1.1-1.3.3.3.6.4 1 .7-1.3-3.4-2.6-6.7-3.8-10.2 3 4.5 5.7 9.1 8.2 13.6 11.2 8.6 20.7 18.3 28.7 28.4 2.7-2.2 5.5-4.4 8.5-6.4-2.6 2.6-4.8 5.4-7.1 8.2 5.5 7 10.2 14.3 14.5 22 3.8-4.2 8.2-8.3 13.2-12.1-7.7-22.7-20.1-45.4-40.2-68.3 28.8 21.7 48.2 47.9 61.4 75.4 3.1-3.8 6.4-7.5 9.9-11.1-3.7-15.2-9.9-31-19.7-47.7 11.8 13 20.7 26.6 27.5 40.7 2.8-2.3 5.7-4.7 8.8-6.9-2.7 3.1-5.4 6.1-7.8 9.1 6.4 13.6 10.5 27.5 13.2 41.3 3.1-6.1 6.8-12.3 10.9-18.3v-1c-3.5-5.4-7.8-10.8-12.6-16.4 4.5 3.4 8.8 6.9 12.6 10.5-.6-18.7-4.5-38.8-13.5-60.7 11.9 17.9 19.7 36.1 24.3 54.3 3-3.2 6.1-6.3 9.4-9.4-2.4-3.1-5.1-6.3-7.9-9.4 3.5 2.5 6.8 5 9.9 7.8 3.1-2.8 6.4-5.3 9.8-7.8-2.8 3.1-5.5 6.3-7.9 9.4 3.4 3.1 6.5 6.1 9.4 9.4 4.7-18.1 12.3-36.4 24.3-54.3-8.8 21.9-12.9 42-13.5 60.7 4-3.7 8.1-7.2 12.8-10.5-5 5.6-9.2 11-12.8 16.4v1c4.3 6 7.8 12.1 10.9 18.3 2.7-13.8 7-27.7 13.2-41.3-2.4-2.9-5-6-7.8-9.1 3.1 2.2 6.1 4.5 8.8 6.9 6.8-14 15.7-27.7 27.7-40.7-9.9 16.7-16.2 32.5-19.9 47.7 3.5 3.7 7 7.3 9.9 11.1 13.2-27.5 32.6-53.7 61.6-75.4-20 23-32.6 45.7-40.2 68.3 4.8 3.8 9.2 7.9 13.2 12.1 4.1-7.6 8.9-14.9 14.3-22-2.1-2.8-4.5-5.6-7-8.2 2.8 2 5.7 4.2 8.4 6.4 7.9-10.1 17.5-19.8 28.8-28.4 2.4-4.5 5.2-9.1 8.2-13.6-1.4 3.5-2.7 6.9-3.8 10.2.3-.3.6-.4 1-.7l-1.3 1.3c-7 20.5-9.6 39.2-9.4 56.8 4.1 6 7.8 12.1 10.9 18.3 2.6-13.8 6.8-27.7 13.1-41.3-2.4-2.9-5-6-7.7-9.1 3 2.2 6 4.5 8.8 6.9 6.7-14 15.7-27.7 27.5-40.7-9.8 16.7-16.2 32.5-19.7 47.7 3.5 3.7 6.8 7.3 9.9 11.1 13.1-27.5 32.6-53.7 61.4-75.4-28.4 32.6-41.9 64.5-47.2 96.9 2.6 4.5 4.7 9.2 6.7 14 11.1-31.6 30.2-62.6 63.6-86.6-32.6 35.9-43 71.3-44.7 107.7 5.8-16.7 15.7-33.2 33.5-45.9-14 15.4-20.1 30.7-22.4 46.4H93.9c-2.3-15.7-8.4-31-22.4-46.4 17.6 12.7 27.7 29.3 33.3 45.9-1.7-36.4-12.1-71.8-44.6-107.7 33.3 24 52.4 55 63.6 86.6 1.8-4.8 4.1-9.5 6.7-14-5.4-32.3-18.9-64.2-47.2-96.9 28.8 21.7 48.4 47.9 61.4 75.4 3.1-3.8 6.4-7.5 9.9-11.1-3.7-15.2-9.9-31-19.7-47.7 11.8 13 20.7 26.6 27.5 40.7 2.8-2.3 5.7-4.7 8.8-6.9-2.7 3.1-5.4 6.1-7.8 9.1 6.4 13.6 10.5 27.5 13.2 41.3 3.1-6.1 6.8-12.3 10.9-18.3.3-17.6-2.4-36.3-9.4-56.8l-1.3-1.3c.4.3.7.4 1 .7-1.1-3.4-2.4-6.7-3.8-10.2 3 4.5 5.8 9.1 8.2 13.6 11.2 8.6 20.7 18.3 28.8 28.4 2.7-2.2 5.5-4.4 8.4-6.4-2.4 2.6-4.8 5.4-7 8.2 5.4 7 10.2 14.3 14.3 22 4-4.2 8.4-8.3 13.2-12.1-7.5-22.7-20.1-45.4-40.2-68.3 28.9 21.7 48.4 47.9 61.6 75.4 3-3.8 6.2-7.5 9.9-11.1-3.7-15.2-9.9-31-19.9-47.7 11.9 13 20.9 26.6 27.5 40.7 2.8-2.3 5.8-4.7 8.9-6.9-2.8 3.1-5.4 6.1-7.8 9.1 6.2 13.6 10.5 27.5 13.2 41.3 3.1-6.1 6.7-12.3 10.9-18.3v-1c-3.5-5.4-7.8-10.8-12.8-16.4 4.7 3.4 8.8 6.9 12.6 10.5-.6-18.7-4.5-38.8-13.3-60.7 11.9 17.9 19.6 36.1 24.3 54.3 2.8-3.2 6-6.3 9.4-9.4-2.4-3.1-5.1-6.3-7.9-9.4 3.4 2.5 6.7 5 9.8 7.8 3.1-2.8 6.4-5.3 9.9-7.8-2.8 3.1-5.5 6.3-7.9 9.4 3.3 3.1 6.4 6.1 9.4 9.4 4.5-18.1 12.3-36.4 24.3-54.3-8.9 21.9-12.9 42-13.5 60.7 3.8-3.7 8.1-7.2 12.6-10.5-5 5.6-9.1 11-12.6 16.4v1c4.1 6 7.8 12.1 10.9 18.3 2.6-13.8 6.8-27.7 13.1-41.3-2.3-2.9-5-6-7.7-9.1 3.1 2.2 6 4.5 8.8 6.9 6.8-14 15.7-27.7 27.5-40.7-9.8 16.7-16.2 32.5-19.7 47.7 3.5 3.7 6.8 7.3 9.9 11.1 13.1-27.5 32.6-53.7 61.4-75.4-20 23-32.6 45.7-40.2 68.3 4.8 3.8 9.2 7.9 13.2 12.1 4.3-7.6 8.9-14.9 14.5-22-2.3-2.8-4.5-5.6-7.1-8.2 3 2 5.8 4.2 8.4 6.4 8.1-10.1 17.6-19.8 28.8-28.4 2.6-4.5 5.2-9.1 8.2-13.6-1.4 3.5-2.7 6.9-3.8 10.2.4-.3.7-.4 1-.7-.4.4-.7.9-1.1 1.3-7 20.5-9.8 39.2-9.5 56.8 4.3 6 7.8 12.1 10.9 18.3 2.7-13.8 7-27.7 13.2-41.3-2.4-2.9-5-6-7.8-9.1 3.1 2.2 6.1 4.5 8.9 6.9 6.7-14 15.6-27.7 27.5-40.7-9.9 16.7-16.2 32.5-19.9 47.7 3.5 3.7 7 7.3 9.9 11.1 6.2-13 13.9-25.8 23.3-37.9-3.3-4.4-7-8.8-10.9-13.2 4.7 3.4 9.1 6.9 13.2 10.5 6-7.6 12.8-14.9 20.3-21.8-3.3-4.4-6.8-8.6-10.5-13 4.5 3.5 8.9 7 13.1 10.7 4.1-3.7 8.5-7.2 13.2-10.7-3.8 4.4-7.4 8.6-10.6 13 7.5 6.9 14.3 14.2 20.4 21.8 4.1-3.7 8.5-7.2 13.2-10.5-4 4.4-7.7 8.8-11.1 13.2 9.4 12.1 17 24.9 23.3 37.9 3.1-3.8 6.4-7.5 9.9-11.1-3.5-15.2-9.9-31-19.7-47.7 11.8 13 20.7 26.6 27.5 40.7 2.8-2.3 5.7-4.7 8.8-6.9-2.7 3.1-5.4 6.1-7.8 9.1 6.4 13.6 10.5 27.5 13.2 41.3 3.1-6.1 6.8-12.3 10.9-18.3.3-17.6-2.4-36.3-9.4-56.8l-1.3-1.3c.4.3.7.4 1 .7-1.1-3.4-2.4-6.7-3.8-10.2 3 4.5 5.8 9.1 8.2 13.6 11.2 8.6 20.7 18.3 28.8 28.4 2.7-2.2 5.5-4.4 8.4-6.4-2.4 2.6-4.8 5.4-7 8.2 5.4 7 10.2 14.3 14.3 22 4-4.2 8.4-8.3 13.2-12.1-7.5-22.7-20.1-45.4-40.2-68.3 28.9 21.7 48.4 47.9 61.6 75.4 3-3.8 6.4-7.5 9.9-11.1-3.7-15.2-9.9-31-19.9-47.7 11.9 13 20.9 26.6 27.5 40.7 2.8-2.3 5.8-4.7 8.9-6.9-2.8 3.1-5.4 6.1-7.8 9.1 6.2 13.6 10.5 27.5 13.2 41.3 3.1-6.1 6.7-12.3 10.9-18.3v-1c-3.5-5.4-7.8-10.8-12.8-16.4 4.7 3.4 8.8 6.9 12.6 10.5-.6-18.7-4.5-38.8-13.3-60.7 11.9 17.9 19.6 36.1 24.3 54.3 2.8-3.2 6-6.3 9.4-9.4-2.4-3.1-5.1-6.3-7.9-9.4 3.4 2.5 6.7 5 9.8 7.8 3.1-2.8 6.4-5.3 9.9-7.8-2.8 3.1-5.5 6.3-7.9 9.4 3.3 3.1 6.4 6.1 9.4 9.4 4.5-18.1 12.3-36.4 24.3-54.3-8.9 21.9-12.9 42-13.5 60.7 3.8-3.7 8.1-7.2 12.6-10.5-5 5.6-9.1 11-12.6 16.4v1c4.1 6 7.8 12.1 10.9 18.3 2.7-13.8 6.8-27.7 13.2-41.3-2.4-2.9-5.1-6-7.8-9.1 3.1 2.2 6 4.5 8.8 6.9 6.8-14 15.7-27.7 27.5-40.7-9.8 16.7-16.2 32.5-19.7 47.7 3.5 3.7 6.8 7.3 9.9 11.1 13.1-27.5 32.6-53.7 61.4-75.4-19.6 22.9-32.2 45.6-39.7 68.3zm93.6-28.8c-3.5 8.5-6.2 16.7-8.2 24.7 3.5 3.7 7 7.3 9.9 11.1 3-6.1 6.2-12.1 9.8-18.1-3.4-5.9-7.1-11.7-11.5-17.7zm36.8-2.4c-4.5 8.2-8.2 16.4-11.4 24.6 4.3 5.9 7.9 11.7 11.4 17.7 3.4-6 7.2-11.9 11.5-17.7-3.2-8.2-6.9-16.4-11.5-24.6zm-16.2 39.1c-1.8 6.9-3.4 13.8-4.5 20.6 2.6 4.5 4.7 9.2 6.7 14 1.4-4.2 3.1-8.5 4.8-12.6-1.8-7.2-4-14.7-7-22zm53.1-36.7c-4.4 6-8.2 11.9-11.5 17.7 3.5 6 6.8 12 9.8 18.1 3-3.8 6.2-7.5 9.9-11.1-2-8-4.7-16.2-8.2-24.7zm-20.8 36.7c-2.8 7.3-5.1 14.8-6.8 22.1 1.7 4.1 3.4 8.3 4.8 12.6 2-4.8 4.1-9.5 6.7-14-1.1-6.9-2.7-13.8-4.7-20.7zm-467.3 45.8c-.7-2.5-1.4-5-2.4-7.5-.7 5.7-1.3 11.6-1.6 17.4 1.1-3.3 2.4-6.5 4-9.9zm-15.2-30c-1.6-2-3.3-4.1-5.1-6 2 1.5 4 2.9 5.8 4.5 3.7-7.6 7.8-15.1 12.6-22.4-3.3-7.2-7.2-14.2-11.9-21.2-8.1 16.5-12.9 33.2-15.7 49.9 2.6 4.5 4.7 9.2 6.7 14 2-6.2 4.6-12.5 7.6-18.8zm14.3 13c2 2.6 3.8 5.4 5.4 8.2 1.7-2.8 3.5-5.6 5.5-8.2-1.4-7-3.1-14-5.5-21.1-2.3 7.1-4.1 14.1-5.4 21.1zm10.1 17c1.4 3.4 2.7 6.6 3.8 10-.3-5.9-.7-11.7-1.4-17.4-1 2.4-1.9 4.9-2.4 7.4zm-20.3-80.5c5.8 5.7 10.9 11.6 15.6 17.7 4.7-6.1 9.9-12 15.6-17.7-4.3-8.3-9.5-16.7-15.6-25.2-6.1 8.5-11.2 16.9-15.6 25.2zm22 26.7c4.8 7.3 9.1 14.8 12.8 22.4 1.8-1.6 3.7-3.1 5.8-4.5-1.8 1.9-3.5 4-5.1 6 2.8 6.3 5.4 12.6 7.7 18.9 1.8-4.8 4.1-9.5 6.7-14-2.8-16.7-7.8-33.4-15.7-49.9-5 6.9-9 13.9-12.2 21.1zm216.8 25c2.6 3.5 4.8 7.2 6.8 10.8 2.1-3.7 4.4-7.3 7-10.8.6-5.4 1.4-11 2.6-16.4-2.7-5-5.8-9.8-9.5-14.6-3.5 4.8-6.7 9.7-9.5 14.6 1 5.4 1.9 11 2.6 16.4zm117.2.7c2.8 4 5.3 8 7.5 12.3 1.6-2.2 3.3-4.2 5-6.3.7-7.6 1.7-15.4 3.4-23.1-1.8-3.2-3.8-6.6-6.1-9.8-4.3 8.9-7.4 17.8-9.8 26.9zm10.6 18.7c.4.9.9 1.8 1.3 2.5 0-1.8 0-3.7.1-5.6-.5 1.1-.9 2.1-1.4 3.1zm1.2-49.6c2.1 1.9 4 4 5.8 6 3-11.6 7.2-23.3 13.1-34.8-7.9 9.7-14 19.2-18.9 28.8zm-68.4 7.1c-2.8 13.9-3.4 27.5-2.4 40.8 2.7-9.2 6-18.4 9.9-27.5-2.3-4.4-4.7-9-7.5-13.3zm116.6 0c-2.7 13.9-3.3 27.5-2.4 40.8 2.7-9.2 6-18.4 9.9-27.5-2.1-4.4-4.7-9-7.5-13.3zm-267.3 14.9c3.1-5.1 6.8-10.4 11.1-15.5 3 9.1 5.1 18.1 6.7 27.4-2.6 4.5-4.7 9.2-6.7 14-3-8.8-6.7-17.4-11.1-25.9zm-13.5 8.9c-2.7 4-5.3 8-7.4 12.3-1.6-2.2-3.3-4.2-5.1-6.3-.6-7.6-1.7-15.4-3.3-23.1 1.8-3.2 3.8-6.6 6-9.8 4.3 8.9 7.5 17.8 9.8 26.9zm-10.6 18.7c-.4.9-.9 1.8-1.1 2.5 0-1.8-.1-3.7-.1-5.6.3 1.1.7 2.1 1.2 3.1zm-1.2-49.6c-2 1.9-4 4-5.8 6-3-11.6-7.1-23.3-12.9-34.8 7.7 9.7 13.9 19.2 18.7 28.8zm68.6 7.1c2.7 13.9 3.3 27.5 2.4 40.8-2.7-9.2-6-18.4-9.9-27.5 2.1-4.4 4.6-9 7.5-13.3zm-116.8 0c2.8 13.9 3.4 27.5 2.4 40.8-2.7-9.2-6-18.4-9.9-27.5 2.2-4.4 4.6-9 7.5-13.3zm-179.2 48.5c-.7-3.8-1.7-7.5-3-11.1-1.4 8-2.3 16.2-2.6 24.4 1.5-4.5 3.3-8.9 5.6-13.3zm-13.4-33.6c-3.1-5.1-6.8-10.4-11.2-15.5-3 9.1-5.1 18.1-6.7 27.4 2.6 4.5 4.8 9.2 6.7 14 3.2-8.8 6.8-17.4 11.2-25.9zm-103.8 8.2c2.6 3.5 4.8 7.2 6.8 10.8 2.1-3.7 4.4-7.3 7-10.8.6-5.4 1.4-11 2.6-16.4-2.7-5-5.8-9.8-9.5-14.6-3.5 4.8-6.7 9.7-9.5 14.6 1 5.4 1.9 11 2.6 16.4zm117.2.7c2.8 4 5.2 8 7.5 12.3 1.6-2.2 3.3-4.2 5-6.3.7-7.6 1.7-15.4 3.4-23.1-1.8-3.2-3.8-6.6-6.1-9.8-4.3 8.9-7.4 17.8-9.8 26.9zm10.6 18.7c.4.9.9 1.8 1.3 2.5 0-1.8 0-3.7.1-5.6-.5 1.1-1 2.1-1.4 3.1zm1.2-49.6c2.1 1.9 4 4 5.8 6 3-11.6 7.2-23.3 13.1-34.8-7.9 9.7-14 19.2-18.9 28.8zm-68.4 7.1c-2.8 13.9-3.4 27.5-2.4 40.8 2.7-9.2 6-18.4 9.9-27.5-2.3-4.4-4.7-9-7.5-13.3zm116.6 0c-2.7 13.9-3.3 27.5-2.4 40.8 2.7-9.2 6-18.4 9.9-27.5-2.1-4.4-4.7-9-7.5-13.3zm-267.3 14.9c3.1-5.1 6.8-10.4 11.1-15.5 3 9.1 5.1 18.1 6.7 27.4-2.6 4.5-4.7 9.2-6.7 14-3-8.8-6.7-17.4-11.1-25.9zm-13.5 8.9c-2.7 4-5.2 8-7.5 12.3-1.4-2.2-3.1-4.2-5-6.3-.6-7.6-1.7-15.4-3.3-23.1 1.8-3.2 3.8-6.6 6-9.8 4.3 8.9 7.5 17.8 9.8 26.9zm-10.6 18.7c-.4.9-.9 1.8-1.1 2.5 0-1.8-.1-3.7-.1-5.6.3 1.1.7 2.1 1.2 3.1zm-1.2-49.6c-2 1.9-4 4-5.8 6-3-11.6-7.1-23.3-12.9-34.8 7.7 9.7 13.9 19.2 18.7 28.8zm68.6 7.1c2.7 13.9 3.3 27.5 2.4 40.8-2.7-9.2-6-18.4-9.9-27.5 2.1-4.4 4.6-9 7.5-13.3zm-116.8 0c2.8 13.9 3.4 27.5 2.4 40.8-2.7-9.2-6-18.4-9.9-27.5 2.1-4.4 4.6-9 7.5-13.3zm1413.5 48.5c.7-3.8 1.7-7.5 3-11.1 1.4 8 2.3 16.2 2.6 24.4-1.6-4.5-3.5-8.9-5.6-13.3zm220.6 0c-.7-3.8-1.7-7.5-3-11.1-1.4 8-2.1 16.2-2.6 24.4 1.6-4.5 3.5-8.9 5.6-13.3zm-13.3-33.6c-3.1-5.1-6.8-10.4-11.1-15.5-3 9.1-5.1 18.1-6.7 27.4 2.4 4.5 4.7 9.2 6.7 14 3-8.8 6.7-17.4 11.1-25.9zm-331.6 37c-.6-2.5-1.4-5-2.4-7.5-.7 5.7-1.3 11.6-1.6 17.4 1.2-3.3 2.6-6.5 4-9.9zm-15.2-30c-1.6-2-3.3-4.1-5.1-6 2.1 1.5 4 2.9 5.8 4.5 3.7-7.6 7.9-15.1 12.8-22.4-3.3-7.2-7.2-14.2-12.1-21.2-7.9 16.5-12.9 33.2-15.8 49.9 2.6 4.5 4.7 9.2 6.7 14 2.3-6.2 4.9-12.5 7.7-18.8zm14.3 13c2 2.6 3.8 5.4 5.5 8.2 1.6-2.8 3.4-5.6 5.4-8.2-1.3-7-3.1-14-5.4-21.1-2.3 7.1-4 14.1-5.5 21.1zm10.1 17c1.6 3.4 2.8 6.6 4 10-.3-5.9-.9-11.7-1.6-17.4-1 2.4-1.7 4.9-2.4 7.4zm-20.3-80.5c5.8 5.7 11.1 11.6 15.7 17.7 4.7-6.1 9.8-12 15.6-17.7-4.4-8.3-9.5-16.7-15.6-25.2-6 8.5-11.3 16.9-15.7 25.2zm22 26.7c5 7.3 9.1 14.8 12.8 22.4 1.8-1.6 3.8-3.1 5.8-4.5-1.8 1.9-3.5 4-5.1 6 2.8 6.3 5.4 12.6 7.7 18.9 2-4.8 4.1-9.5 6.7-14-2.8-16.7-7.7-33.4-15.8-49.9-4.7 6.9-8.7 13.9-12.1 21.1zm216.8 25c2.6 3.5 4.8 7.2 7 10.8 2-3.7 4.3-7.3 6.8-10.8.6-5.4 1.6-11 2.7-16.4-2.8-5-6-9.8-9.5-14.6-3.7 4.8-6.8 9.7-9.5 14.6 1.1 5.4 2 11 2.5 16.4zm117.2.7c2.8 4 5.4 8 7.5 12.3 1.6-2.2 3.3-4.2 5.1-6.3.6-7.6 1.7-15.4 3.3-23.1-1.8-3.2-3.8-6.6-6-9.8-4.2 8.9-7.5 17.8-9.9 26.9zm10.8 18.7c.4.9.7 1.8 1.1 2.5 0-1.8 0-3.7.1-5.6-.3 1.1-.8 2.1-1.2 3.1zm1.1-49.6c2 1.9 4 4 5.8 6 3-11.6 7.1-23.3 12.9-34.8-7.6 9.7-13.8 19.2-18.7 28.8zm-68.5 7.1c-2.7 13.9-3.3 27.5-2.4 40.8 2.7-9.2 6-18.4 9.9-27.5-2.1-4.4-4.7-9-7.5-13.3zm116.8 0c-2.8 13.9-3.4 27.5-2.6 40.8 2.8-9.2 6.1-18.4 10.1-27.5-2.3-4.4-4.7-9-7.5-13.3zm-267.5 14.9c3.1-5.1 6.8-10.4 11.2-15.5 2.8 9.1 5.1 18.1 6.5 27.4-2.4 4.5-4.7 9.2-6.5 14-3.1-8.8-6.8-17.4-11.2-25.9zm-13.3 8.9c-2.8 4-5.2 8-7.5 12.3-1.6-2.2-3.3-4.2-5.1-6.3-.6-7.6-1.6-15.4-3.3-23.1 1.8-3.2 3.8-6.6 6.1-9.8 4.2 8.9 7.4 17.8 9.8 26.9zm-10.7 18.7c-.4.9-.9 1.8-1.3 2.5 0-1.8 0-3.7-.1-5.6.6 1.1 1 2.1 1.4 3.1zm-1.1-49.6c-2.1 1.9-4 4-5.8 6-3-11.6-7.2-23.3-13.1-34.8 7.7 9.7 13.9 19.2 18.9 28.8zm68.4 7.1c2.8 13.9 3.4 27.5 2.4 40.8-2.7-9.2-6-18.4-9.9-27.5 2.1-4.4 4.7-9 7.5-13.3zm-116.6 0c2.7 13.9 3.3 27.5 2.4 40.8-2.7-9.2-6.1-18.4-9.9-27.5 2.1-4.4 4.5-9 7.5-13.3zm-179.4 48.5c-.7-3.8-1.7-7.5-3-11.1-1.4 8-2.1 16.2-2.6 24.4 1.6-4.5 3.5-8.9 5.6-13.3zm-13.3-33.6c-3.1-5.1-6.8-10.4-11.1-15.5-3 9.1-5.1 18.1-6.7 27.4 2.4 4.5 4.7 9.2 6.7 14 3-8.8 6.7-17.4 11.1-25.9zm-103.9 8.2c2.6 3.5 4.8 7.2 7 10.8 2-3.7 4.3-7.3 6.8-10.8.6-5.4 1.6-11 2.7-16.4-2.8-5-6-9.8-9.5-14.6-3.7 4.8-6.8 9.7-9.5 14.6 1.1 5.4 1.9 11 2.5 16.4zm117.2.7c2.8 4 5.4 8 7.5 12.3 1.6-2.2 3.3-4.2 5.1-6.3.6-7.6 1.7-15.4 3.3-23.1-1.8-3.2-3.8-6.6-6-9.8-4.2 8.9-7.5 17.8-9.9 26.9zm10.8 18.7c.4.9.7 1.8 1.1 2.5 0-1.8 0-3.7.1-5.6-.3 1.1-.8 2.1-1.2 3.1zm1.1-49.6c2 1.9 4 4 5.8 6 2.8-11.6 7.1-23.3 12.9-34.8-7.6 9.7-13.8 19.2-18.7 28.8zm-68.5 7.1c-2.7 13.9-3.3 27.5-2.4 40.8 2.7-9.2 6-18.4 9.9-27.5-2.1-4.4-4.7-9-7.5-13.3zm116.8 0c-2.8 13.9-3.4 27.5-2.6 40.8 2.8-9.2 6.1-18.4 10.1-27.5-2.3-4.4-4.7-9-7.5-13.3zm-267.5 14.9c3.1-5.1 6.8-10.4 11.2-15.5 2.8 9.1 5.1 18.1 6.5 27.4-2.4 4.5-4.7 9.2-6.5 14-3.1-8.8-6.8-17.4-11.2-25.9zm-13.3 8.9c-2.8 4-5.3 8-7.5 12.3-1.6-2.2-3.3-4.2-5.1-6.3-.6-7.6-1.6-15.4-3.3-23.1 1.8-3.2 3.8-6.6 6.1-9.8 4.2 8.9 7.4 17.8 9.8 26.9zm-10.7 18.7c-.4.9-.9 1.8-1.3 2.5 0-1.8 0-3.7-.1-5.6.6 1.1 1 2.1 1.4 3.1zm-1.1-49.6c-2.1 1.9-4 4-5.8 6-3-11.6-7.2-23.3-13.1-34.8 7.7 9.7 13.9 19.2 18.9 28.8zm68.4 7.1c2.7 13.9 3.4 27.5 2.4 40.8-2.7-9.2-6-18.4-9.9-27.5 2.1-4.4 4.7-9 7.5-13.3zm-116.6 0c2.7 13.9 3.3 27.5 2.4 40.8-2.7-9.2-6.1-18.4-9.9-27.5 2.1-4.4 4.5-9 7.5-13.3z" clip-rule="evenodd" class="color0ebaa0 svgShape"></path></svg>